WorkSans-Light.ufo
<glyph name="exclam" format="2">
  <advance width="230"/>
  <unicode hex="0021"/>
  <outline>
    <contour>
      <point x="89" y="660" type="line"/>
      <point x="89" y="340" type="line"/>
      <point x="95" y="190" type="line"/>
      <point x="135" y="190" type="line"/>
      <point x="141" y="340" type="line"/>
      <point x="141" y="660" type="line"/>
    </contour>
    <contour>
      <point x="70" y="37" type="curve" smooth="yes"/>
      <point x="70" y="10"/>
      <point x="88" y="-8"/>
      <point x="115" y="-8" type="curve" smooth="yes"/>
      <point x="142" y="-8"/>
      <point x="160" y="10"/>
      <point x="160" y="37" type="curve" smooth="yes"/>
      <point x="160" y="64"/>
      <point x="142" y="82"/>
      <point x="115" y="82" type="curve" smooth="yes"/>
      <point x="88" y="82"/>
      <point x="70" y="64"/>
    </contour>
  </outline>
</glyph>
<glyph name="quotesingle" format="2">
  <advance width="194"/>
  <unicode hex="0027"/>
  <outline>
    <contour>
      <point x="75" y="685" type="line"/>
      <point x="75" y="480" type="line"/>
      <point x="115" y="480" type="line"/>
      <point x="129" y="685" type="line"/>
    </contour>
  </outline>
</glyph>
<glyph name="parenleft" format="2">
  <advance width="305"/>
  <unicode hex="0028"/>
  <outline>
    <contour>
      <point x="57" y="283" type="curve" smooth="yes"/>
      <point x="57" y="86"/>
      <point x="123" y="-66"/>
      <point x="257" y="-180" type="curve"/>
      <point x="285" y="-151" type="line"/>
      <point x="158" y="-39"/>
      <point x="108" y="93"/>
      <point x="108" y="283" type="curve" smooth="yes"/>
      <point x="108" y="473"/>
      <point x="158" y="605"/>
      <point x="285" y="717" type="curve"/>
      <point x="257" y="746" type="line"/>
      <point x="123" y="631"/>
      <point x="57" y="479"/>
    </contour>
  </outline>
</glyph>
<glyph name="comma" format="2">
  <advance width="220"/>
  <unicode hex="002C"/>
  <outline>
    <contour>
      <point x="65" y="36" type="curve" smooth="yes"/>
      <point x="65" y="8"/>
      <point x="86" y="-8"/>
      <point x="104" y="-8" type="curve" smooth="yes"/>
      <point x="117" y="-8"/>
      <point x="123" y="-4"/>
      <point x="127" y="2" type="curve"/>
      <point x="130" y="1" type="line"/>
      <point x="132" y="-37"/>
      <point x="100" y="-85"/>
      <point x="52" y="-103" type="curve"/>
      <point x="80" y="-128" type="line"/>
      <point x="139" y="-99"/>
      <point x="166" y="-44"/>
      <point x="166" y="9" type="curve" smooth="yes"/>
      <point x="166" y="52"/>
      <point x="146" y="82"/>
      <point x="111" y="82" type="curve" smooth="yes"/>
      <point x="85" y="82"/>
      <point x="65" y="61"/>
    </contour>
  </outline>
</glyph>
<glyph name="period" format="2">
  <advance width="220"/>
  <unicode hex="002E"/>
  <anchor x="65" y="37" name="_center"/>
  <outline>
    <contour>
      <point x="65" y="37" type="curve" smooth="yes"/>
      <point x="65" y="10"/>
      <point x="83" y="-8"/>
      <point x="110" y="-8" type="curve" smooth="yes"/>
      <point x="137" y="-8"/>
      <point x="155" y="10"/>
      <point x="155" y="37" type="curve" smooth="yes"/>
      <point x="155" y="64"/>
      <point x="137" y="82"/>
      <point x="110" y="82" type="curve" smooth="yes"/>
      <point x="83" y="82"/>
      <point x="65" y="64"/>
    </contour>
  </outline>
</glyph>
<glyph name="zero" format="2">
  <advance width="607"/>
  <unicode hex="0030"/>
  <outline>
    <contour>
      <point x="544" y="330" type="curve" smooth="yes"/>
      <point x="544" y="550"/>
      <point x="459" y="670"/>
      <point x="304" y="670" type="curve" smooth="yes"/>
      <point x="148" y="670"/>
      <point x="63" y="550"/>
      <point x="63" y="330" type="curve" smooth="yes"/>
      <point x="63" y="110"/>
      <point x="148" y="-10"/>
      <point x="304" y="-10" type="curve" smooth="yes"/>
      <point x="459" y="-10"/>
      <point x="544" y="110"/>
    </contour>
    <contour>
      <point x="114" y="330" type="curve" smooth="yes"/>
      <point x="114" y="521"/>
      <point x="181" y="625"/>
      <point x="304" y="625" type="curve" smooth="yes"/>
      <point x="426" y="625"/>
      <point x="493" y="521"/>
      <point x="493" y="330" type="curve" smooth="yes"/>
      <point x="493" y="139"/>
      <point x="426" y="35"/>
      <point x="304" y="35" type="curve" smooth="yes"/>
      <point x="181" y="35"/>
      <point x="114" y="139"/>
    </contour>
  </outline>
</glyph>
<glyph name="one" format="2">
  <advance width="365"/>
  <unicode hex="0031"/>
  <outline>
    <contour>
      <point x="268" y="660" type="line"/>
      <point x="223" y="660" type="line"/>
      <point x="220" y="611"/>
      <point x="218" y="549"/>
      <point x="218" y="500" type="curve" smooth="yes"/>
      <point x="218" y="0" type="line"/>
      <point x="268" y="0" type="line"/>
      <point x="268" y="512" type="line"/>
    </contour>
    <contour>
      <point x="255" y="646" type="curve"/>
      <point x="223" y="660" type="line"/>
      <point x="188" y="600"/>
      <point x="91" y="543"/>
      <point x="33" y="528" type="curve"/>
      <point x="46" y="483" type="line"/>
      <point x="132" y="506"/>
      <point x="219" y="566"/>
    </contour>
  </outline>
</glyph>
<glyph name="three" format="2">
  <advance width="554"/>
  <unicode hex="0033"/>
  <outline>
    <contour>
      <point x="71" y="532" type="curve"/>
      <point x="118" y="509" type="line"/>
      <point x="138" y="579"/>
      <point x="192" y="624"/>
      <point x="275" y="624" type="curve" smooth="yes"/>
      <point x="368" y="624"/>
      <point x="422" y="575"/>
      <point x="421" y="488" type="curve" smooth="yes"/>
      <point x="421" y="408"/>
      <point x="371" y="356"/>
      <point x="277" y="356" type="curve" smooth="yes"/>
      <point x="240" y="356" type="line"/>
      <point x="240" y="310" type="line"/>
      <point x="277" y="310" type="line" smooth="yes"/>
      <point x="382" y="310"/>
      <point x="436" y="264"/>
      <point x="437" y="180" type="curve" smooth="yes"/>
      <point x="438" y="94"/>
      <point x="372" y="36"/>
      <point x="274" y="36" type="curve" smooth="yes"/>
      <point x="167" y="36"/>
      <point x="115" y="89"/>
      <point x="94" y="170" type="curve"/>
      <point x="48" y="145" type="line"/>
      <point x="79" y="47"/>
      <point x="154" y="-10"/>
      <point x="271" y="-10" type="curve" smooth="yes"/>
      <point x="398" y="-10"/>
      <point x="489" y="65"/>
      <point x="489" y="174" type="curve" smooth="yes"/>
      <point x="489" y="261"/>
      <point x="433" y="330"/>
      <point x="347" y="333" type="curve"/>
      <point x="347" y="334" type="line"/>
      <point x="421" y="341"/>
      <point x="473" y="410"/>
      <point x="473" y="498" type="curve" smooth="yes"/>
      <point x="473" y="597"/>
      <point x="402" y="670"/>
      <point x="275" y="670" type="curve" smooth="yes"/>
      <point x="178" y="670"/>
      <point x="102" y="617"/>
    </contour>
  </outline>
</glyph>
<glyph name="six" format="2">
  <advance width="581"/>
  <unicode hex="0036"/>
  <outline>
    <contour>
      <point x="64" y="330" type="curve" smooth="yes"/>
      <point x="64" y="121"/>
      <point x="147" y="-10"/>
      <point x="306" y="-10" type="curve" smooth="yes"/>
      <point x="439" y="-10"/>
      <point x="524" y="71"/>
      <point x="524" y="198" type="curve" smooth="yes"/>
      <point x="524" y="325"/>
      <point x="442" y="407"/>
      <point x="310" y="407" type="curve" smooth="yes"/>
      <point x="223" y="407"/>
      <point x="127" y="352"/>
      <point x="118" y="249" type="curve"/>
      <point x="115" y="249" type="line"/>
      <point x="112" y="273"/>
      <point x="110" y="296"/>
      <point x="110" y="316" type="curve" smooth="yes"/>
      <point x="110" y="478"/>
      <point x="176" y="624"/>
      <point x="314" y="624" type="curve" smooth="yes"/>
      <point x="397" y="624"/>
      <point x="444" y="580"/>
      <point x="463" y="518" type="curve"/>
      <point x="509" y="540" type="line"/>
      <point x="477" y="624"/>
      <point x="418" y="670"/>
      <point x="317" y="670" type="curve" smooth="yes"/>
      <point x="173" y="670"/>
      <point x="64" y="554"/>
    </contour>
    <contour>
      <point x="472" y="200" type="curve" smooth="yes"/>
      <point x="472" y="100"/>
      <point x="409" y="37"/>
      <point x="305" y="37" type="curve" smooth="yes"/>
      <point x="207" y="37"/>
      <point x="141" y="105"/>
      <point x="141" y="200" type="curve" smooth="yes"/>
      <point x="141" y="285"/>
      <point x="207" y="360"/>
      <point x="307" y="360" type="curve" smooth="yes"/>
      <point x="409" y="360"/>
      <point x="472" y="296"/>
    </contour>
  </outline>
</glyph>
<glyph name="seven" format="2">
  <advance width="530"/>
  <unicode hex="0037"/>
  <outline>
    <contour>
      <point x="32" y="614" type="line"/>
      <point x="473" y="614" type="line"/>
      <point x="466" y="628" type="line"/>
      <point x="296" y="452"/>
      <point x="214" y="237"/>
      <point x="204" y="0" type="curve"/>
      <point x="256" y="0" type="line"/>
      <point x="266" y="243"/>
      <point x="343" y="440"/>
      <point x="507" y="614" type="curve"/>
      <point x="507" y="660" type="line"/>
      <point x="32" y="660" type="line"/>
    </contour>
  </outline>
</glyph>
<glyph name="eight" format="2">
  <advance width="591"/>
  <unicode hex="0038"/>
  <outline>
    <contour>
      <point x="91" y="502" type="curve" smooth="yes"/>
      <point x="91" y="426"/>
      <point x="135" y="370"/>
      <point x="208" y="348" type="curve"/>
      <point x="208" y="347" type="line"/>
      <point x="119" y="324"/>
      <point x="62" y="260"/>
      <point x="62" y="174" type="curve" smooth="yes"/>
      <point x="62" y="63"/>
      <point x="157" y="-10"/>
      <point x="295" y="-10" type="curve" smooth="yes"/>
      <point x="435" y="-10"/>
      <point x="529" y="63"/>
      <point x="529" y="174" type="curve" smooth="yes"/>
      <point x="529" y="260"/>
      <point x="472" y="324"/>
      <point x="383" y="347" type="curve"/>
      <point x="383" y="348" type="line"/>
      <point x="456" y="370"/>
      <point x="500" y="426"/>
      <point x="500" y="502" type="curve" smooth="yes"/>
      <point x="500" y="604"/>
      <point x="419" y="669"/>
      <point x="295" y="669" type="curve" smooth="yes"/>
      <point x="171" y="669"/>
      <point x="91" y="604"/>
    </contour>
    <contour>
      <point x="448" y="497" type="curve" smooth="yes"/>
      <point x="448" y="420"/>
      <point x="387" y="370"/>
      <point x="295" y="370" type="curve" smooth="yes"/>
      <point x="203" y="370"/>
      <point x="143" y="420"/>
      <point x="143" y="497" type="curve" smooth="yes"/>
      <point x="143" y="575"/>
      <point x="202" y="623"/>
      <point x="295" y="623" type="curve" smooth="yes"/>
      <point x="388" y="623"/>
      <point x="448" y="575"/>
    </contour>
    <contour>
      <point x="114" y="178" type="curve" smooth="yes"/>
      <point x="114" y="265"/>
      <point x="187" y="323"/>
      <point x="295" y="323" type="curve" smooth="yes"/>
      <point x="404" y="323"/>
      <point x="477" y="265"/>
      <point x="477" y="178" type="curve" smooth="yes"/>
      <point x="477" y="93"/>
      <point x="405" y="36"/>
      <point x="295" y="36" type="curve" smooth="yes"/>
      <point x="186" y="36"/>
      <point x="114" y="93"/>
    </contour>
  </outline>
</glyph>
<glyph name="at" format="2">
  <advance width="966"/>
  <unicode hex="0040"/>
  <outline>
    <contour>
      <point x="60" y="228" type="curve" smooth="yes"/>
      <point x="60" y="-31"/>
      <point x="231" y="-193"/>
      <point x="487" y="-193" type="curve" smooth="yes"/>
      <point x="597" y="-193"/>
      <point x="677" y="-158"/>
      <point x="735" y="-114" type="curve"/>
      <point x="712" y="-83" type="line"/>
      <point x="662" y="-125"/>
      <point x="587" y="-155"/>
      <point x="487" y="-155" type="curve" smooth="yes"/>
      <point x="263" y="-155"/>
      <point x="103" y="-12"/>
      <point x="103" y="228" type="curve" smooth="yes"/>
      <point x="103" y="471"/>
      <point x="253" y="627"/>
      <point x="492" y="627" type="curve" smooth="yes"/>
      <point x="752" y="627"/>
      <point x="861" y="456"/>
      <point x="861" y="253" type="curve" smooth="yes"/>
      <point x="861" y="108"/>
      <point x="822" y="29"/>
      <point x="753" y="29" type="curve" smooth="yes"/>
      <point x="695" y="29"/>
      <point x="676" y="75"/>
      <point x="679" y="141" type="curve" smooth="yes"/>
      <point x="700" y="458" type="line"/>
      <point x="666" y="458" type="line"/>
      <point x="655" y="356" type="line"/>
      <point x="633" y="424"/>
      <point x="579" y="470"/>
      <point x="485" y="470" type="curve" smooth="yes"/>
      <point x="361" y="470"/>
      <point x="259" y="375"/>
      <point x="259" y="218" type="curve" smooth="yes"/>
      <point x="259" y="80"/>
      <point x="340" y="-5"/>
      <point x="453" y="-5" type="curve" smooth="yes"/>
      <point x="543" y="-5"/>
      <point x="607" y="40"/>
      <point x="638" y="112" type="curve"/>
      <point x="643" y="40"/>
      <point x="673" y="-7"/>
      <point x="745" y="-7" type="curve" smooth="yes"/>
      <point x="841" y="-7"/>
      <point x="901" y="91"/>
      <point x="901" y="253" type="curve" smooth="yes"/>
      <point x="901" y="471"/>
      <point x="783" y="665"/>
      <point x="492" y="665" type="curve" smooth="yes"/>
      <point x="231" y="665"/>
      <point x="60" y="490"/>
    </contour>
    <contour>
      <point x="644" y="253" type="curve" smooth="yes"/>
      <point x="641" y="213" type="line" smooth="yes"/>
      <point x="634" y="104"/>
      <point x="562" y="34"/>
      <point x="466" y="34" type="curve" smooth="yes"/>
      <point x="366" y="34"/>
      <point x="304" y="106"/>
      <point x="304" y="220" type="curve" smooth="yes"/>
      <point x="304" y="351"/>
      <point x="377" y="432"/>
      <point x="490" y="432" type="curve" smooth="yes"/>
      <point x="600" y="432"/>
      <point x="649" y="353"/>
    </contour>
  </outline>
</glyph>
<glyph name="B" format="2">
  <advance width="632"/>
  <unicode hex="0042"/>
  <anchor x="280" y="0" name="bottomC"/>
  <anchor x="302" y="660" name="top"/>
  <anchor x="337" y="0" name="ogonek"/>
  <anchor x="302" y="0" name="bottom"/>
  <outline>
    <contour>
      <point x="337" y="0" type="line" smooth="yes"/>
      <point x="488" y="0"/>
      <point x="570" y="66"/>
      <point x="570" y="178" type="curve" smooth="yes"/>
      <point x="570" y="260"/>
      <point x="517" y="320"/>
      <point x="431" y="334" type="curve"/>
      <point x="431" y="335" type="line"/>
      <point x="510" y="351"/>
      <point x="552" y="409"/>
      <point x="552" y="485" type="curve" smooth="yes"/>
      <point x="552" y="596"/>
      <point x="483" y="660"/>
      <point x="337" y="660" type="curve" smooth="yes"/>
      <point x="104" y="660" type="line"/>
      <point x="104" y="0" type="line"/>
    </contour>
    <contour>
      <point x="154" y="310" type="line"/>
      <point x="347" y="310" type="line" smooth="yes"/>
      <point x="460" y="310"/>
      <point x="517" y="264"/>
      <point x="517" y="178" type="curve" smooth="yes"/>
      <point x="517" y="93"/>
      <point x="460" y="46"/>
      <point x="347" y="46" type="curve" smooth="yes"/>
      <point x="154" y="46" type="line"/>
    </contour>
    <contour>
      <point x="154" y="614" type="line"/>
      <point x="338" y="614" type="line" smooth="yes"/>
      <point x="445" y="614"/>
      <point x="499" y="570"/>
      <point x="499" y="485" type="curve" smooth="yes"/>
      <point x="499" y="398"/>
      <point x="445" y="356"/>
      <point x="338" y="356" type="curve" smooth="yes"/>
      <point x="154" y="356" type="line"/>
    </contour>
  </outline>
</glyph>
<glyph name="D" format="2">
  <advance width="704"/>
  <unicode hex="0044"/>
  <anchor x="289" y="0" name="bottomC"/>
  <anchor x="318" y="660" name="top"/>
  <anchor x="312" y="0" name="ogonek"/>
  <anchor x="361" y="330" name="center"/>
  <anchor x="318" y="0" name="bottom"/>
  <outline>
    <contour>
      <point x="129" y="660" type="line"/>
      <point x="129" y="614" type="line"/>
      <point x="316" y="614" type="line" smooth="yes"/>
      <point x="492" y="614"/>
      <point x="589" y="514"/>
      <point x="589" y="335" type="curve" smooth="yes"/>
      <point x="589" y="149"/>
      <point x="492" y="46"/>
      <point x="316" y="46" type="curve" smooth="yes"/>
      <point x="129" y="46" type="line"/>
      <point x="129" y="0" type="line"/>
      <point x="312" y="0" type="line" smooth="yes"/>
      <point x="522" y="0"/>
      <point x="641" y="118"/>
      <point x="641" y="335" type="curve" smooth="yes"/>
      <point x="641" y="546"/>
      <point x="522" y="660"/>
      <point x="312" y="660" type="curve" smooth="yes"/>
    </contour>
    <contour>
      <point x="104" y="660" type="line"/>
      <point x="104" y="0" type="line"/>
      <point x="154" y="0" type="line"/>
      <point x="154" y="660" type="line"/>
    </contour>
  </outline>
</glyph>
<glyph name="E" format="2">
  <advance width="612"/>
  <unicode hex="0045"/>
  <anchor x="329" y="0" name="bottomC"/>
  <anchor x="329" y="660" name="top"/>
  <anchor x="571" y="0" name="ogonek"/>
  <anchor x="329" y="0" name="bottom"/>
  <outline>
    <contour>
      <point x="104" y="660" type="line"/>
      <point x="104" y="0" type="line"/>
      <point x="154" y="0" type="line"/>
      <point x="154" y="660" type="line"/>
    </contour>
    <contour>
      <point x="129" y="46" type="line"/>
      <point x="129" y="0" type="line"/>
      <point x="571" y="0" type="line"/>
      <point x="571" y="46" type="line"/>
    </contour>
    <contour>
      <point x="129" y="359" type="line"/>
      <point x="129" y="312" type="line"/>
      <point x="471" y="312" type="line"/>
      <point x="471" y="359" type="line"/>
    </contour>
    <contour>
      <point x="129" y="660" type="line"/>
      <point x="129" y="614" type="line"/>
      <point x="555" y="614" type="line"/>
      <point x="555" y="660" type="line"/>
    </contour>
  </outline>
</glyph>
<glyph name="F" format="2">
  <advance width="584"/>
  <unicode hex="0046"/>
  <anchor x="143" y="0" name="bottomC"/>
  <anchor x="325" y="660" name="top"/>
  <anchor x="154" y="0" name="ogonek"/>
  <anchor x="129" y="0" name="bottom"/>
  <outline>
    <contour>
      <point x="104" y="660" type="line"/>
      <point x="104" y="0" type="line"/>
      <point x="154" y="0" type="line"/>
      <point x="154" y="660" type="line"/>
    </contour>
    <contour>
      <point x="129" y="359" type="line"/>
      <point x="129" y="312" type="line"/>
      <point x="471" y="312" type="line"/>
      <point x="471" y="359" type="line"/>
    </contour>
    <contour>
      <point x="129" y="660" type="line"/>
      <point x="129" y="614" type="line"/>
      <point x="554" y="614" type="line"/>
      <point x="554" y="660" type="line"/>
    </contour>
  </outline>
</glyph>
<glyph name="G" format="2">
  <advance width="702"/>
  <unicode hex="0047"/>
  <anchor x="356" y="0" name="bottomC"/>
  <anchor x="359" y="660" name="top"/>
  <anchor x="443" y="0" name="ogonek"/>
  <anchor x="380" y="0" name="bottom"/>
  <outline>
    <contour>
      <point x="609" y="226" type="curve"/>
      <point x="582" y="239" type="line"/>
      <point x="582" y="138"/>
      <point x="514" y="36"/>
      <point x="362" y="36" type="curve" smooth="yes"/>
      <point x="207" y="36"/>
      <point x="115" y="148"/>
      <point x="115" y="330" type="curve" smooth="yes"/>
      <point x="115" y="512"/>
      <point x="214" y="624"/>
      <point x="363" y="624" type="curve" smooth="yes"/>
      <point x="473" y="624"/>
      <point x="547" y="577"/>
      <point x="578" y="484" type="curve"/>
      <point x="624" y="508" type="line"/>
      <point x="581" y="617"/>
      <point x="498" y="670"/>
      <point x="363" y="670" type="curve" smooth="yes"/>
      <point x="183" y="670"/>
      <point x="62" y="539"/>
      <point x="62" y="330" type="curve" smooth="yes"/>
      <point x="62" y="121"/>
      <point x="179" y="-10"/>
      <point x="360" y="-10" type="curve" smooth="yes"/>
      <point x="524" y="-10"/>
      <point x="609" y="85"/>
    </contour>
    <contour>
      <point x="629" y="0" type="line"/>
      <point x="629" y="323" type="line"/>
      <point x="358" y="323" type="line"/>
      <point x="358" y="276" type="line"/>
      <point x="582" y="276" type="line"/>
      <point x="582" y="182" type="line"/>
      <point x="587" y="166" type="line"/>
      <point x="589" y="0" type="line"/>
    </contour>
  </outline>
</glyph>
<glyph name="H" format="2">
  <advance width="716"/>
  <unicode hex="0048"/>
  <anchor x="591" y="0" name="bottomC"/>
  <anchor x="358" y="660" name="top"/>
  <anchor x="612" y="0" name="ogonek"/>
  <anchor x="358" y="0" name="bottom"/>
  <outline>
    <contour>
      <point x="562" y="660" type="line"/>
      <point x="562" y="0" type="line"/>
      <point x="612" y="0" type="line"/>
      <point x="612" y="660" type="line"/>
    </contour>
    <contour>
      <point x="104" y="660" type="line"/>
      <point x="104" y="0" type="line"/>
      <point x="154" y="0" type="line"/>
      <point x="154" y="660" type="line"/>
    </contour>
    <contour>
      <point x="130" y="359" type="line"/>
      <point x="130" y="312" type="line"/>
      <point x="586" y="312" type="line"/>
      <point x="586" y="359" type="line"/>
    </contour>
  </outline>
</glyph>
<glyph name="I" format="2">
  <advance width="258"/>
  <unicode hex="0049"/>
  <anchor x="133" y="0" name="bottomC"/>
  <anchor x="129" y="660" name="top"/>
  <anchor x="154" y="0" name="ogonek"/>
  <anchor x="129" y="0" name="bottom"/>
  <outline>
    <contour>
      <point x="104" y="660" type="line"/>
      <point x="104" y="0" type="line"/>
      <point x="154" y="0" type="line"/>
      <point x="154" y="660" type="line"/>
    </contour>
  </outline>
</glyph>
<glyph name="J" format="2">
  <advance width="534"/>
  <unicode hex="004A"/>
  <anchor x="237" y="0" name="bottomC"/>
  <anchor x="412" y="660" name="top"/>
  <anchor x="293" y="0" name="ogonek"/>
  <anchor x="239" y="0" name="bottom"/>
  <outline>
    <contour>
      <point x="387" y="660" type="line"/>
      <point x="387" y="229" type="line" smooth="yes"/>
      <point x="387" y="107"/>
      <point x="341" y="36"/>
      <point x="226" y="36" type="curve" smooth="yes"/>
      <point x="116" y="36"/>
      <point x="70" y="99"/>
      <point x="87" y="221" type="curve"/>
      <point x="40" y="210" type="line"/>
      <point x="18" y="77"/>
      <point x="87" y="-10"/>
      <point x="227" y="-10" type="curve" smooth="yes"/>
      <point x="362" y="-10"/>
      <point x="437" y="77"/>
      <point x="437" y="218" type="curve" smooth="yes"/>
      <point x="437" y="660" type="line"/>
    </contour>
  </outline>
</glyph>
<glyph name="K" format="2">
  <advance width="610"/>
  <unicode hex="004B"/>
  <anchor x="567" y="0" name="bottomC"/>
  <anchor x="337" y="660" name="top"/>
  <anchor x="589" y="0" name="ogonek"/>
  <anchor x="348" y="0" name="bottom"/>
  <outline>
    <contour>
      <point x="516" y="660" type="line"/>
      <point x="128" y="264" type="line"/>
      <point x="128" y="196" type="line"/>
      <point x="298" y="369" type="line"/>
      <point x="306" y="377" type="line"/>
      <point x="582" y="660" type="line"/>
    </contour>
    <contour>
      <point x="104" y="660" type="line"/>
      <point x="104" y="0" type="line"/>
      <point x="154" y="0" type="line"/>
      <point x="154" y="660" type="line"/>
    </contour>
    <contour>
      <point x="270" y="380" type="line"/>
      <point x="528" y="0" type="line"/>
      <point x="589" y="0" type="line"/>
      <point x="310" y="410" type="line"/>
    </contour>
  </outline>
</glyph>
<glyph name="M" format="2">
  <advance width="822"/>
  <unicode hex="004D"/>
  <anchor x="430" y="0" name="bottomC"/>
  <anchor x="411" y="660" name="top"/>
  <anchor x="718" y="0" name="ogonek"/>
  <anchor x="411" y="0" name="bottom"/>
  <outline>
    <contour>
      <point x="643" y="660" type="line"/>
      <point x="444" y="159" type="line"/>
      <point x="412" y="59" type="line"/>
      <point x="411" y="59" type="line"/>
      <point x="378" y="160" type="line"/>
      <point x="179" y="660" type="line"/>
      <point x="104" y="660" type="line"/>
      <point x="104" y="0" type="line"/>
      <point x="152" y="0" type="line"/>
      <point x="152" y="492" type="line"/>
      <point x="146" y="612" type="line"/>
      <point x="147" y="612" type="line"/>
      <point x="388" y="0" type="line"/>
      <point x="434" y="0" type="line"/>
      <point x="675" y="612" type="line"/>
      <point x="676" y="612" type="line"/>
      <point x="670" y="492" type="line"/>
      <point x="670" y="0" type="line"/>
      <point x="718" y="0" type="line"/>
      <point x="718" y="660" type="line"/>
    </contour>
  </outline>
</glyph>
<glyph name="N" format="2">
  <advance width="715"/>
  <unicode hex="004E"/>
  <anchor x="588" y="0" name="bottomC"/>
  <anchor x="363" y="660" name="top"/>
  <anchor x="611" y="0" name="ogonek"/>
  <anchor x="374" y="0" name="bottom"/>
  <outline>
    <contour>
      <point x="564" y="660" type="line"/>
      <point x="564" y="137" type="line"/>
      <point x="566" y="54" type="line"/>
      <point x="566" y="54" type="line"/>
      <point x="516" y="143" type="line"/>
      <point x="167" y="660" type="line"/>
      <point x="104" y="660" type="line"/>
      <point x="104" y="0" type="line"/>
      <point x="152" y="0" type="line"/>
      <point x="152" y="523" type="line"/>
      <point x="149" y="606" type="line"/>
      <point x="150" y="606" type="line"/>
      <point x="199" y="518" type="line"/>
      <point x="549" y="0" type="line"/>
      <point x="611" y="0" type="line"/>
      <point x="611" y="660" type="line"/>
    </contour>
  </outline>
</glyph>
<glyph name="O" format="2">
  <advance width="732"/>
  <unicode hex="004F"/>
  <anchor x="366" y="0" name="bottomC"/>
  <anchor x="366" y="660" name="top"/>
  <anchor x="443" y="0" name="ogonek"/>
  <anchor x="366" y="0" name="bottom"/>
  <outline>
    <contour>
      <point x="62" y="330" type="curve" smooth="yes"/>
      <point x="62" y="121"/>
      <point x="179" y="-10"/>
      <point x="366" y="-10" type="curve" smooth="yes"/>
      <point x="553" y="-10"/>
      <point x="670" y="121"/>
      <point x="670" y="330" type="curve" smooth="yes"/>
      <point x="670" y="539"/>
      <point x="553" y="670"/>
      <point x="366" y="670" type="curve" smooth="yes"/>
      <point x="179" y="670"/>
      <point x="62" y="539"/>
    </contour>
    <contour>
      <point x="618" y="330" type="curve" smooth="yes"/>
      <point x="618" y="148"/>
      <point x="521" y="36"/>
      <point x="366" y="36" type="curve" smooth="yes"/>
      <point x="211" y="36"/>
      <point x="115" y="148"/>
      <point x="115" y="330" type="curve" smooth="yes"/>
      <point x="115" y="512"/>
      <point x="211" y="624"/>
      <point x="366" y="624" type="curve" smooth="yes"/>
      <point x="521" y="624"/>
      <point x="618" y="512"/>
    </contour>
  </outline>
</glyph>
<glyph name="R" format="2">
  <advance width="640"/>
  <unicode hex="0052"/>
  <anchor x="579" y="0" name="bottomC"/>
  <anchor x="308" y="660" name="top"/>
  <anchor x="600" y="0" name="ogonek"/>
  <anchor x="356" y="0" name="bottom"/>
  <outline>
    <contour>
      <point x="129" y="660" type="line"/>
      <point x="129" y="614" type="line"/>
      <point x="348" y="614" type="line" smooth="yes"/>
      <point x="455" y="614"/>
      <point x="513" y="564"/>
      <point x="513" y="473" type="curve" smooth="yes"/>
      <point x="513" y="382"/>
      <point x="455" y="333"/>
      <point x="348" y="333" type="curve" smooth="yes"/>
      <point x="129" y="333" type="line"/>
      <point x="129" y="286" type="line"/>
      <point x="349" y="286" type="line" smooth="yes"/>
      <point x="480" y="286"/>
      <point x="565" y="357"/>
      <point x="565" y="473" type="curve" smooth="yes"/>
      <point x="565" y="589"/>
      <point x="480" y="660"/>
      <point x="349" y="660" type="curve" smooth="yes"/>
    </contour>
    <contour>
      <point x="104" y="660" type="line"/>
      <point x="104" y="0" type="line"/>
      <point x="154" y="0" type="line"/>
      <point x="154" y="660" type="line"/>
    </contour>
    <contour>
      <point x="345" y="296" type="line"/>
      <point x="541" y="0" type="line"/>
      <point x="600" y="0" type="line"/>
      <point x="387" y="324" type="line"/>
    </contour>
  </outline>
</glyph>
<glyph name="S" format="2">
  <advance width="619"/>
  <unicode hex="0053"/>
  <anchor x="306" y="0" name="bottomC"/>
  <anchor x="309" y="660" name="top"/>
  <anchor x="402" y="0" name="ogonek"/>
  <anchor x="337" y="0" name="bottom"/>
  <outline>
    <contour>
      <point x="67" y="482" type="curve" smooth="yes"/>
      <point x="67" y="383"/>
      <point x="130" y="332"/>
      <point x="315" y="301" type="curve" smooth="yes"/>
      <point x="464" y="275"/>
      <point x="514" y="236"/>
      <point x="514" y="167" type="curve" smooth="yes"/>
      <point x="514" y="83"/>
      <point x="431" y="36"/>
      <point x="319" y="36" type="curve" smooth="yes"/>
      <point x="201" y="36"/>
      <point x="116" y="87"/>
      <point x="89" y="182" type="curve"/>
      <point x="45" y="148" type="line"/>
      <point x="80" y="48"/>
      <point x="179" y="-10"/>
      <point x="318" y="-10" type="curve" smooth="yes"/>
      <point x="466" y="-10"/>
      <point x="566" y="63"/>
      <point x="566" y="170" type="curve" smooth="yes"/>
      <point x="566" y="268"/>
      <point x="503" y="320"/>
      <point x="329" y="350" type="curve" smooth="yes"/>
      <point x="169" y="377"/>
      <point x="120" y="414"/>
      <point x="120" y="487" type="curve" smooth="yes"/>
      <point x="120" y="564"/>
      <point x="190" y="624"/>
      <point x="309" y="624" type="curve" smooth="yes"/>
      <point x="417" y="624"/>
      <point x="480" y="584"/>
      <point x="514" y="489" type="curve"/>
      <point x="557" y="524" type="line"/>
      <point x="515" y="622"/>
      <point x="431" y="670"/>
      <point x="308" y="670" type="curve" smooth="yes"/>
      <point x="158" y="670"/>
      <point x="67" y="583"/>
    </contour>
  </outline>
</glyph>
<glyph name="asciicircum" format="2">
  <advance width="547"/>
  <unicode hex="005E"/>
  <outline>
    <contour>
      <point x="84" y="355" type="line"/>
      <point x="298" y="730" type="line"/>
      <point x="249" y="730" type="line"/>
      <point x="32" y="355" type="line"/>
    </contour>
    <contour>
      <point x="298" y="730" type="line"/>
      <point x="249" y="730" type="line"/>
      <point x="464" y="355" type="line"/>
      <point x="516" y="355" type="line"/>
    </contour>
  </outline>
</glyph>
<glyph name="grave" format="2">
  <advance width="523"/>
  <unicode hex="0060"/>
  <anchor x="247" y="500" name="_top"/>
  <outline>
    <contour>
      <point x="140" y="741" type="line"/>
      <point x="233" y="583" type="line"/>
      <point x="275" y="583" type="line"/>
      <point x="194" y="741" type="line"/>
    </contour>
  </outline>
</glyph>
<glyph name="a" format="2">
  <advance width="543"/>
  <unicode hex="0061"/>
  <anchor x="473" y="0" name="bottomC"/>
  <anchor x="260" y="500" name="top"/>
  <anchor x="527" y="0" name="ogonek"/>
  <anchor x="260" y="0" name="bottom"/>
  <outline>
    <contour>
      <point x="61" y="388" type="curve"/>
      <point x="99" y="360" type="line"/>
      <point x="127" y="433"/>
      <point x="181" y="466"/>
      <point x="259" y="466" type="curve" smooth="yes"/>
      <point x="347" y="466"/>
      <point x="395" y="417"/>
      <point x="395" y="338" type="curve" smooth="yes"/>
      <point x="395" y="112" type="line"/>
      <point x="395" y="93" type="line" smooth="yes"/>
      <point x="395" y="10"/>
      <point x="433" y="-10"/>
      <point x="478" y="-10" type="curve" smooth="yes"/>
      <point x="499" y="-10"/>
      <point x="516" y="-6"/>
      <point x="527" y="0" type="curve"/>
      <point x="530" y="40" type="line"/>
      <point x="520" y="35"/>
      <point x="505" y="33"/>
      <point x="491" y="33" type="curve" smooth="yes"/>
      <point x="461" y="33"/>
      <point x="445" y="50"/>
      <point x="445" y="86" type="curve" smooth="yes"/>
      <point x="445" y="344" type="line" smooth="yes"/>
      <point x="445" y="455"/>
      <point x="372" y="510"/>
      <point x="259" y="510" type="curve" smooth="yes"/>
      <point x="160" y="510"/>
      <point x="90" y="466"/>
    </contour>
    <contour>
      <point x="242" y="267" type="line" smooth="yes"/>
      <point x="112" y="244"/>
      <point x="52" y="193"/>
      <point x="52" y="117" type="curve" smooth="yes"/>
      <point x="52" y="34"/>
      <point x="119" y="-10"/>
      <point x="215" y="-10" type="curve" smooth="yes"/>
      <point x="308" y="-10"/>
      <point x="411" y="40"/>
      <point x="411" y="132" type="curve"/>
      <point x="395" y="160" type="line"/>
      <point x="395" y="76"/>
      <point x="299" y="34"/>
      <point x="220" y="34" type="curve" smooth="yes"/>
      <point x="147" y="34"/>
      <point x="103" y="64"/>
      <point x="103" y="117" type="curve" smooth="yes"/>
      <point x="103" y="173"/>
      <point x="150" y="208"/>
      <point x="258" y="228" type="curve" smooth="yes"/>
      <point x="423" y="258" type="line"/>
      <point x="416" y="298" type="line"/>
    </contour>
  </outline>
</glyph>
<glyph name="b" format="2">
  <advance width="609"/>
  <unicode hex="0062"/>
  <anchor x="313" y="0" name="bottomC"/>
  <anchor x="114" y="730" name="top"/>
  <anchor x="434" y="19" name="ogonek"/>
  <anchor x="313" y="0" name="bottom"/>
  <outline>
    <contour>
      <point x="89" y="730" type="line"/>
      <point x="89" y="110" type="line"/>
      <point x="89" y="0" type="line"/>
      <point x="134" y="0" type="line"/>
      <point x="138" y="144" type="line"/>
      <point x="139" y="171" type="line"/>
      <point x="139" y="730" type="line"/>
    </contour>
    <component base="bowl" xScale="-1.0" xOffset="652"/>
  </outline>
</glyph>
<glyph name="c" format="2">
  <advance width="545"/>
  <unicode hex="0063"/>
  <anchor x="280" y="0" name="bottomC"/>
  <anchor x="286" y="500" name="top"/>
  <anchor x="407" y="19" name="ogonek"/>
  <anchor x="286" y="0" name="bottom"/>
  <outline>
    <contour>
      <point x="57" y="250" type="curve" smooth="yes"/>
      <point x="57" y="88"/>
      <point x="144" y="-10"/>
      <point x="292" y="-10" type="curve" smooth="yes"/>
      <point x="395" y="-10"/>
      <point x="474" y="46"/>
      <point x="500" y="137" type="curve"/>
      <point x="454" y="153" type="line"/>
      <point x="440" y="78"/>
      <point x="376" y="34"/>
      <point x="291" y="34" type="curve" smooth="yes"/>
      <point x="174" y="34"/>
      <point x="107" y="115"/>
      <point x="107" y="250" type="curve" smooth="yes"/>
      <point x="107" y="385"/>
      <point x="176" y="466"/>
      <point x="292" y="466" type="curve" smooth="yes"/>
      <point x="373" y="466"/>
      <point x="427" y="426"/>
      <point x="449" y="353" type="curve"/>
      <point x="496" y="375" type="line"/>
      <point x="465" y="460"/>
      <point x="394" y="510"/>
      <point x="293" y="510" type="curve" smooth="yes"/>
      <point x="145" y="510"/>
      <point x="57" y="412"/>
    </contour>
  </outline>
</glyph>
<glyph name="d" format="2">
  <advance width="609"/>
  <unicode hex="0064"/>
  <anchor x="313" y="265" name="center"/>
  <anchor x="296" y="0" name="bottomC"/>
  <anchor x="495" y="730" name="top"/>
  <anchor x="296" y="0" name="bottom"/>
  <anchor x="613" y="730" name="topright"/>
  <anchor x="393" y="19" name="ogonek"/>
  <outline>
    <contour>
      <point x="470" y="730" type="line"/>
      <point x="470" y="152" type="line"/>
      <point x="471" y="144" type="line"/>
      <point x="475" y="0" type="line"/>
      <point x="520" y="0" type="line"/>
      <point x="520" y="110" type="line"/>
      <point x="520" y="730" type="line"/>
    </contour>
    <component base="bowl" xOffset="-43"/>
  </outline>
</glyph>
<glyph name="e" format="2">
  <advance width="559"/>
  <unicode hex="0065"/>
  <anchor x="282" y="0" name="bottomC"/>
  <anchor x="284" y="500" name="top"/>
  <anchor x="377" y="31" name="ogonek"/>
  <anchor x="290" y="0" name="bottom"/>
  <outline>
    <contour>
      <point x="498" y="104" type="curve"/>
      <point x="456" y="126" type="line"/>
      <point x="431" y="67"/>
      <point x="371" y="34"/>
      <point x="293" y="34" type="curve" smooth="yes"/>
      <point x="176" y="34"/>
      <point x="106" y="115"/>
      <point x="106" y="250" type="curve" smooth="yes"/>
      <point x="106" y="385"/>
      <point x="172" y="466"/>
      <point x="287" y="466" type="curve" smooth="yes"/>
      <point x="397" y="466"/>
      <point x="457" y="385"/>
      <point x="459" y="254" type="curve"/>
      <point x="481" y="274" type="line"/>
      <point x="88" y="274" type="line"/>
      <point x="88" y="229" type="line"/>
      <point x="503" y="229" type="line"/>
      <point x="504" y="237"/>
      <point x="505" y="249"/>
      <point x="505" y="262" type="curve" smooth="yes"/>
      <point x="505" y="408"/>
      <point x="426" y="510"/>
      <point x="287" y="510" type="curve" smooth="yes"/>
      <point x="141" y="510"/>
      <point x="57" y="412"/>
      <point x="57" y="250" type="curve" smooth="yes"/>
      <point x="57" y="88"/>
      <point x="145" y="-10"/>
      <point x="293" y="-10" type="curve" smooth="yes"/>
      <point x="393" y="-10"/>
      <point x="461" y="33"/>
    </contour>
  </outline>
</glyph>
<glyph name="f" format="2">
  <advance width="359"/>
  <unicode hex="0066"/>
  <anchor x="151" y="0" name="bottomC"/>
  <anchor x="238" y="730" name="top"/>
  <anchor x="173" y="0" name="ogonek"/>
  <anchor x="148" y="0" name="bottom"/>
  <outline>
    <contour>
      <point x="123" y="584" type="curve" smooth="yes"/>
      <point x="123" y="0" type="line"/>
      <point x="173" y="0" type="line"/>
      <point x="173" y="482" type="line"/>
      <point x="173" y="500" type="line"/>
      <point x="173" y="579" type="line" smooth="yes"/>
      <point x="173" y="651"/>
      <point x="211" y="690"/>
      <point x="276" y="690" type="curve" smooth="yes"/>
      <point x="303" y="690"/>
      <point x="322" y="683"/>
      <point x="339" y="668" type="curve"/>
      <point x="353" y="708" type="line"/>
      <point x="336" y="725"/>
      <point x="309" y="735"/>
      <point x="272" y="735" type="curve" smooth="yes"/>
      <point x="175" y="735"/>
      <point x="123" y="675"/>
    </contour>
    <contour>
      <point x="23" y="500" type="line"/>
      <point x="23" y="457" type="line"/>
      <point x="349" y="457" type="line"/>
      <point x="349" y="500" type="line"/>
    </contour>
  </outline>
</glyph>
<glyph name="g" format="2">
  <advance width="515"/>
  <unicode hex="0067"/>
  <anchor x="260" y="-210" name="bottomC"/>
  <anchor x="260" y="500" name="top"/>
  <anchor x="400" y="-191" name="ogonek"/>
  <anchor x="260" y="-210" name="bottom"/>
  <outline>
    <contour>
      <point x="376" y="465" type="curve"/>
      <point x="409" y="451" type="line"/>
      <point x="408" y="514"/>
      <point x="447" y="548"/>
      <point x="515" y="548" type="curve"/>
      <point x="503" y="592" type="line"/>
      <point x="428" y="592"/>
      <point x="375" y="543"/>
    </contour>
    <component base="gbase" xOffset="-12"/>
  </outline>
</glyph>
<glyph name="j" format="2">
  <advance width="229"/>
  <unicode hex="006A"/>
  <anchor x="25" y="-210" name="bottomC"/>
  <anchor x="114" y="671" name="top"/>
  <anchor x="53" y="-204" name="ogonek"/>
  <anchor x="25" y="-210" name="bottom"/>
  <outline>
    <contour>
      <point x="72" y="639" type="curve" smooth="yes"/>
      <point x="72" y="616"/>
      <point x="91" y="597"/>
      <point x="114" y="597" type="curve" smooth="yes"/>
      <point x="138" y="597"/>
      <point x="156" y="616"/>
      <point x="156" y="639" type="curve" smooth="yes"/>
      <point x="156" y="663"/>
      <point x="138" y="681"/>
      <point x="114" y="681" type="curve" smooth="yes"/>
      <point x="91" y="681"/>
      <point x="72" y="663"/>
    </contour>
    <component base="jdotless"/>
  </outline>
</glyph>
<glyph name="k" format="2">
  <advance width="527"/>
  <unicode hex="006B"/>
  <anchor x="114" y="730" name="top"/>
  <anchor x="313" y="0" name="bottom"/>
  <outline>
    <contour>
      <point x="436" y="500" type="line"/>
      <point x="114" y="190" type="line"/>
      <point x="114" y="126" type="line"/>
      <point x="269" y="276" type="line"/>
      <point x="281" y="288" type="line"/>
      <point x="501" y="500" type="line"/>
    </contour>
    <contour>
      <point x="89" y="730" type="line"/>
      <point x="89" y="0" type="line"/>
      <point x="139" y="0" type="line"/>
      <point x="139" y="730" type="line"/>
    </contour>
    <contour>
      <point x="243" y="285" type="line"/>
      <point x="448" y="0" type="line"/>
      <point x="509" y="0" type="line"/>
      <point x="284" y="314" type="line"/>
    </contour>
  </outline>
</glyph>
<glyph name="s" format="2">
  <advance width="505"/>
  <unicode hex="0073"/>
  <anchor x="253" y="0" name="bottomC"/>
  <anchor x="252" y="500" name="top"/>
  <anchor x="381" y="19" name="ogonek"/>
  <anchor x="266" y="0" name="bottom"/>
  <outline>
    <contour>
      <point x="453" y="131" type="curve" smooth="yes"/>
      <point x="453" y="208"/>
      <point x="405" y="247"/>
      <point x="267" y="270" type="curve" smooth="yes"/>
      <point x="151" y="290"/>
      <point x="113" y="318"/>
      <point x="113" y="372" type="curve" smooth="yes"/>
      <point x="113" y="423"/>
      <point x="173" y="466"/>
      <point x="255" y="466" type="curve" smooth="yes"/>
      <point x="332" y="466"/>
      <point x="384" y="436"/>
      <point x="404" y="363" type="curve"/>
      <point x="447" y="388" type="line"/>
      <point x="423" y="472"/>
      <point x="359" y="510"/>
      <point x="255" y="510" type="curve" smooth="yes"/>
      <point x="140" y="510"/>
      <point x="63" y="446"/>
      <point x="63" y="367" type="curve" smooth="yes"/>
      <point x="63" y="288"/>
      <point x="113" y="250"/>
      <point x="254" y="225" type="curve" smooth="yes"/>
      <point x="368" y="205"/>
      <point x="403" y="177"/>
      <point x="403" y="129" type="curve" smooth="yes"/>
      <point x="403" y="73"/>
      <point x="351" y="34"/>
      <point x="258" y="34" type="curve" smooth="yes"/>
      <point x="172" y="34"/>
      <point x="105" y="66"/>
      <point x="84" y="134" type="curve"/>
      <point x="43" y="107" type="line"/>
      <point x="72" y="28"/>
      <point x="155" y="-10"/>
      <point x="252" y="-10" type="curve" smooth="yes"/>
      <point x="376" y="-10"/>
      <point x="453" y="46"/>
    </contour>
  </outline>
</glyph>
<glyph name="t" format="2">
  <advance width="377"/>
  <unicode hex="0074"/>
  <anchor x="143" y="265" name="center"/>
  <anchor x="253" y="0" name="bottomC"/>
  <anchor x="147" y="730" name="top"/>
  <anchor x="239" y="0" name="bottom"/>
  <anchor x="271" y="767" name="topright"/>
  <anchor x="340" y="13" name="ogonek"/>
  <outline>
    <contour>
      <point x="122" y="625" type="line"/>
      <point x="122" y="125" type="line" smooth="yes"/>
      <point x="122" y="32"/>
      <point x="174" y="-10"/>
      <point x="252" y="-10" type="curve" smooth="yes"/>
      <point x="300" y="-10"/>
      <point x="339" y="7"/>
      <point x="365" y="32" type="curve"/>
      <point x="347" y="73" type="line"/>
      <point x="323" y="49"/>
      <point x="296" y="36"/>
      <point x="260" y="36" type="curve" smooth="yes"/>
      <point x="203" y="36"/>
      <point x="172" y="69"/>
      <point x="172" y="132" type="curve" smooth="yes"/>
      <point x="172" y="639" type="line"/>
    </contour>
    <contour>
      <point x="22" y="500" type="line"/>
      <point x="22" y="457" type="line"/>
      <point x="360" y="457" type="line"/>
      <point x="360" y="500" type="line"/>
    </contour>
  </outline>
</glyph>
<glyph name="u" format="2">
  <advance width="593"/>
  <unicode hex="0075"/>
  <anchor x="498" y="0" name="bottomC"/>
  <anchor x="295" y="500" name="top"/>
  <anchor x="504" y="0" name="ogonek"/>
  <anchor x="295" y="0" name="bottom"/>
  <outline>
    <contour>
      <point x="84" y="500" type="line"/>
      <point x="84" y="170" type="line" smooth="yes"/>
      <point x="84" y="47"/>
      <point x="159" y="-10"/>
      <point x="264" y="-10" type="curve" smooth="yes"/>
      <point x="389" y="-10"/>
      <point x="476" y="64"/>
      <point x="476" y="196" type="curve"/>
      <point x="454" y="213" type="line"/>
      <point x="454" y="116"/>
      <point x="385" y="34"/>
      <point x="272" y="34" type="curve" smooth="yes"/>
      <point x="186" y="34"/>
      <point x="134" y="78"/>
      <point x="134" y="182" type="curve" smooth="yes"/>
      <point x="134" y="500" type="line"/>
    </contour>
    <contour>
      <point x="454" y="500" type="line"/>
      <point x="454" y="159" type="line"/>
      <point x="456" y="140" type="line"/>
      <point x="459" y="0" type="line"/>
      <point x="504" y="0" type="line"/>
      <point x="504" y="500" type="line"/>
    </contour>
  </outline>
</glyph>
<glyph name="w" format="2">
  <advance width="820"/>
  <unicode hex="0077"/>
  <anchor x="605" y="0" name="bottomC"/>
  <anchor x="410" y="500" name="top"/>
  <anchor x="616" y="0" name="ogonek"/>
  <anchor x="410" y="0" name="bottom"/>
  <outline>
    <contour>
      <point x="385" y="500" type="line"/>
      <point x="566" y="0" type="line"/>
      <point x="611" y="0" type="line"/>
      <point x="435" y="500" type="line"/>
    </contour>
    <contour>
      <point x="33" y="500" type="line"/>
      <point x="204" y="0" type="line"/>
      <point x="248" y="0" type="line"/>
      <point x="89" y="500" type="line"/>
    </contour>
    <contour>
      <point x="385" y="500" type="line"/>
      <point x="209" y="0" type="line"/>
      <point x="254" y="0" type="line"/>
      <point x="430" y="500" type="line"/>
    </contour>
    <contour>
      <point x="731" y="500" type="line"/>
      <point x="572" y="0" type="line"/>
      <point x="616" y="0" type="line"/>
      <point x="787" y="500" type="line"/>
    </contour>
  </outline>
</glyph>
<glyph name="x" format="2">
  <advance width="504"/>
  <unicode hex="0078"/>
  <anchor x="471" y="0" name="bottomC"/>
  <anchor x="252" y="500" name="top"/>
  <anchor x="482" y="0" name="ogonek"/>
  <anchor x="252" y="0" name="bottom"/>
  <outline>
    <contour>
      <point x="34" y="500" type="line"/>
      <point x="233" y="241" type="line"/>
      <point x="240" y="233" type="line"/>
      <point x="419" y="0" type="line"/>
      <point x="482" y="0" type="line"/>
      <point x="270" y="277" type="line"/>
      <point x="265" y="283" type="line"/>
      <point x="98" y="500" type="line"/>
    </contour>
    <contour>
      <point x="407" y="500" type="line"/>
      <point x="242" y="279" type="line"/>
      <point x="238" y="277" type="line"/>
      <point x="24" y="0" type="line"/>
      <point x="84" y="0" type="line"/>
      <point x="267" y="241" type="line"/>
      <point x="273" y="245" type="line"/>
      <point x="467" y="500" type="line"/>
    </contour>
  </outline>
</glyph>
<glyph name="braceleft" format="2">
  <advance width="308"/>
  <unicode hex="007B"/>
  <outline>
    <contour>
      <point x="132" y="627" type="curve" smooth="yes"/>
      <point x="132" y="404" type="line" smooth="yes"/>
      <point x="132" y="337"/>
      <point x="95" y="305"/>
      <point x="19" y="305" type="curve"/>
      <point x="19" y="276" type="line"/>
      <point x="120" y="276"/>
      <point x="179" y="320"/>
      <point x="179" y="400" type="curve" smooth="yes"/>
      <point x="179" y="631" type="line" smooth="yes"/>
      <point x="179" y="678"/>
      <point x="211" y="705"/>
      <point x="277" y="705" type="curve"/>
      <point x="270" y="746" type="line"/>
      <point x="175" y="746"/>
      <point x="132" y="702"/>
    </contour>
    <contour>
      <point x="19" y="261" type="line"/>
      <point x="95" y="261"/>
      <point x="132" y="230"/>
      <point x="132" y="162" type="curve" smooth="yes"/>
      <point x="132" y="-62" type="line" smooth="yes"/>
      <point x="132" y="-137"/>
      <point x="175" y="-180"/>
      <point x="270" y="-180" type="curve"/>
      <point x="277" y="-139" type="line"/>
      <point x="211" y="-139"/>
      <point x="179" y="-113"/>
      <point x="179" y="-65" type="curve" smooth="yes"/>
      <point x="179" y="166" type="line" smooth="yes"/>
      <point x="179" y="247"/>
      <point x="120" y="290"/>
      <point x="19" y="290" type="curve"/>
    </contour>
  </outline>
</glyph>
<glyph name="asciitilde" format="2">
  <advance width="511"/>
  <unicode hex="007E"/>
  <outline>
    <contour>
      <point x="421" y="389" type="line"/>
      <point x="412" y="340"/>
      <point x="391" y="312"/>
      <point x="351" y="312" type="curve" smooth="yes"/>
      <point x="281" y="312"/>
      <point x="246" y="386"/>
      <point x="157" y="386" type="curve" smooth="yes"/>
      <point x="88" y="386"/>
      <point x="51" y="345"/>
      <point x="43" y="263" type="curve"/>
      <point x="91" y="263" type="line"/>
      <point x="99" y="312"/>
      <point x="120" y="340"/>
      <point x="161" y="340" type="curve" smooth="yes"/>
      <point x="232" y="340"/>
      <point x="265" y="266"/>
      <point x="355" y="266" type="curve" smooth="yes"/>
      <point x="422" y="266"/>
      <point x="460" y="308"/>
      <point x="468" y="389" type="curve"/>
    </contour>
  </outline>
</glyph>
<glyph name="cent" format="2">
  <advance width="553"/>
  <unicode hex="00A2"/>
  <outline>
    <contour>
      <point x="62" y="250" type="curve" smooth="yes"/>
      <point x="62" y="88"/>
      <point x="149" y="-10"/>
      <point x="297" y="-10" type="curve" smooth="yes"/>
      <point x="401" y="-10"/>
      <point x="480" y="46"/>
      <point x="505" y="138" type="curve"/>
      <point x="460" y="153" type="line"/>
      <point x="443" y="76"/>
      <point x="379" y="31"/>
      <point x="296" y="31" type="curve" smooth="yes"/>
      <point x="177" y="31"/>
      <point x="110" y="112"/>
      <point x="110" y="250" type="curve" smooth="yes"/>
      <point x="110" y="388"/>
      <point x="179" y="469"/>
      <point x="298" y="469" type="curve" smooth="yes"/>
      <point x="376" y="469"/>
      <point x="432" y="428"/>
      <point x="453" y="353" type="curve"/>
      <point x="500" y="375" type="line"/>
      <point x="470" y="460"/>
      <point x="400" y="510"/>
      <point x="299" y="510" type="curve" smooth="yes"/>
      <point x="151" y="510"/>
      <point x="62" y="412"/>
    </contour>
    <contour>
      <point x="270" y="600" type="line"/>
      <point x="270" y="-100" type="line"/>
      <point x="312" y="-100" type="line"/>
      <point x="312" y="600" type="line"/>
    </contour>
  </outline>
</glyph>
<glyph name="yen" format="2">
  <advance width="596"/>
  <unicode hex="00A5"/>
  <outline>
    <contour>
      <point x="39" y="660" type="line"/>
      <point x="274" y="262" type="line"/>
      <point x="321" y="262" type="line"/>
      <point x="557" y="660" type="line"/>
      <point x="499" y="660" type="line"/>
      <point x="331" y="361" type="line"/>
      <point x="299" y="297" type="line"/>
      <point x="297" y="297" type="line"/>
      <point x="265" y="361" type="line"/>
      <point x="97" y="660" type="line"/>
    </contour>
    <contour>
      <point x="320" y="0" type="line"/>
      <point x="320" y="260" type="line"/>
      <point x="275" y="260" type="line"/>
      <point x="275" y="0" type="line"/>
    </contour>
    <contour>
      <point x="520" y="119" type="line"/>
      <point x="520" y="155" type="line"/>
      <point x="77" y="155" type="line"/>
      <point x="77" y="119" type="line"/>
    </contour>
    <contour>
      <point x="520" y="246" type="line"/>
      <point x="520" y="284" type="line"/>
      <point x="363" y="284" type="line"/>
      <point x="298" y="279" type="line"/>
      <point x="234" y="284" type="line"/>
      <point x="77" y="284" type="line"/>
      <point x="77" y="246" type="line"/>
    </contour>
  </outline>
</glyph>
<glyph name="brokenbar" format="2">
  <advance width="220"/>
  <unicode hex="00A6"/>
  <outline>
    <contour>
      <point x="88" y="730" type="line"/>
      <point x="88" y="366" type="line"/>
      <point x="132" y="366" type="line"/>
      <point x="132" y="730" type="line"/>
    </contour>
    <contour>
      <point x="88" y="196" type="line"/>
      <point x="88" y="-168" type="line"/>
      <point x="132" y="-168" type="line"/>
      <point x="132" y="196" type="line"/>
    </contour>
  </outline>
</glyph>
<glyph name="section" format="2">
  <advance width="569"/>
  <unicode hex="00A7"/>
  <outline>
    <contour>
      <point x="96" y="525" type="curve" smooth="yes"/>
      <point x="96" y="434"/>
      <point x="153" y="388"/>
      <point x="317" y="367" type="curve" smooth="yes"/>
      <point x="447" y="350"/>
      <point x="489" y="321"/>
      <point x="489" y="265" type="curve" smooth="yes"/>
      <point x="489" y="197"/>
      <point x="410" y="167"/>
      <point x="351" y="155" type="curve"/>
      <point x="382" y="123" type="line"/>
      <point x="461" y="138"/>
      <point x="539" y="186"/>
      <point x="539" y="269" type="curve" smooth="yes"/>
      <point x="539" y="351"/>
      <point x="485" y="391"/>
      <point x="330" y="413" type="curve" smooth="yes"/>
      <point x="190" y="432"/>
      <point x="146" y="464"/>
      <point x="146" y="529" type="curve" smooth="yes"/>
      <point x="146" y="587"/>
      <point x="199" y="626"/>
      <point x="294" y="626" type="curve" smooth="yes"/>
      <point x="374" y="626"/>
      <point x="425" y="600"/>
      <point x="452" y="547" type="curve"/>
      <point x="487" y="577" type="line"/>
      <point x="456" y="634"/>
      <point x="397" y="670"/>
      <point x="295" y="670" type="curve" smooth="yes"/>
      <point x="168" y="670"/>
      <point x="96" y="604"/>
    </contour>
    <contour>
      <point x="483" y="35" type="curve" smooth="yes"/>
      <point x="483" y="126"/>
      <point x="425" y="170"/>
      <point x="261" y="193" type="curve" smooth="yes"/>
      <point x="131" y="211"/>
      <point x="90" y="239"/>
      <point x="90" y="295" type="curve" smooth="yes"/>
      <point x="90" y="363"/>
      <point x="169" y="394"/>
      <point x="228" y="405" type="curve"/>
      <point x="197" y="437" type="line"/>
      <point x="118" y="422"/>
      <point x="40" y="374"/>
      <point x="40" y="291" type="curve" smooth="yes"/>
      <point x="40" y="209"/>
      <point x="94" y="169"/>
      <point x="249" y="147" type="curve" smooth="yes"/>
      <point x="388" y="127"/>
      <point x="433" y="96"/>
      <point x="433" y="31" type="curve" smooth="yes"/>
      <point x="433" y="-27"/>
      <point x="380" y="-66"/>
      <point x="287" y="-66" type="curve" smooth="yes"/>
      <point x="207" y="-66"/>
      <point x="154" y="-42"/>
      <point x="129" y="14" type="curve"/>
      <point x="91" y="-17" type="line"/>
      <point x="125" y="-77"/>
      <point x="190" y="-110"/>
      <point x="287" y="-110" type="curve" smooth="yes"/>
      <point x="411" y="-110"/>
      <point x="483" y="-44"/>
    </contour>
  </outline>
</glyph>
<glyph name="dieresis" format="2">
  <advance width="523"/>
  <unicode hex="00A8"/>
  <anchor x="264" y="500" name="_top"/>
  <outline>
    <contour>
      <point x="128" y="630" type="curve" smooth="yes"/>
      <point x="128" y="606"/>
      <point x="145" y="590"/>
      <point x="169" y="590" type="curve" smooth="yes"/>
      <point x="193" y="590"/>
      <point x="209" y="606"/>
      <point x="209" y="630" type="curve" smooth="yes"/>
      <point x="209" y="654"/>
      <point x="193" y="671"/>
      <point x="169" y="671" type="curve" smooth="yes"/>
      <point x="145" y="671"/>
      <point x="128" y="654"/>
    </contour>
    <contour>
      <point x="317" y="630" type="curve" smooth="yes"/>
      <point x="317" y="606"/>
      <point x="334" y="590"/>
      <point x="358" y="590" type="curve" smooth="yes"/>
      <point x="382" y="590"/>
      <point x="399" y="606"/>
      <point x="399" y="630" type="curve" smooth="yes"/>
      <point x="399" y="654"/>
      <point x="382" y="671"/>
      <point x="358" y="671" type="curve" smooth="yes"/>
      <point x="334" y="671"/>
      <point x="317" y="654"/>
    </contour>
  </outline>
</glyph>
<glyph name="copyright" format="2">
  <advance width="809"/>
  <unicode hex="00A9"/>
  <outline>
    <contour>
      <point x="62" y="330" type="curve" smooth="yes"/>
      <point x="62" y="125"/>
      <point x="198" y="-10"/>
      <point x="404" y="-10" type="curve" smooth="yes"/>
      <point x="611" y="-10"/>
      <point x="746" y="125"/>
      <point x="746" y="330" type="curve" smooth="yes"/>
      <point x="746" y="535"/>
      <point x="611" y="670"/>
      <point x="404" y="670" type="curve" smooth="yes"/>
      <point x="198" y="670"/>
      <point x="62" y="535"/>
    </contour>
    <contour>
      <point x="232" y="328" type="curve" smooth="yes"/>
      <point x="232" y="213"/>
      <point x="300" y="143"/>
      <point x="414" y="143" type="curve" smooth="yes"/>
      <point x="492" y="143"/>
      <point x="549" y="184"/>
      <point x="571" y="250" type="curve"/>
      <point x="535" y="265" type="line"/>
      <point x="519" y="212"/>
      <point x="474" y="181"/>
      <point x="413" y="181" type="curve" smooth="yes"/>
      <point x="327" y="181"/>
      <point x="275" y="236"/>
      <point x="275" y="328" type="curve" smooth="yes"/>
      <point x="275" y="420"/>
      <point x="327" y="475"/>
      <point x="413" y="475" type="curve" smooth="yes"/>
      <point x="473" y="475"/>
      <point x="511" y="449"/>
      <point x="529" y="397" type="curve"/>
      <point x="566" y="416" type="line"/>
      <point x="542" y="478"/>
      <point x="491" y="513"/>
      <point x="414" y="513" type="curve" smooth="yes"/>
      <point x="300" y="513"/>
      <point x="232" y="443"/>
    </contour>
    <contour>
      <point x="701" y="330" type="curve" smooth="yes"/>
      <point x="701" y="150"/>
      <point x="583" y="31"/>
      <point x="404" y="31" type="curve" smooth="yes"/>
      <point x="225" y="31"/>
      <point x="108" y="150"/>
      <point x="108" y="330" type="curve" smooth="yes"/>
      <point x="108" y="510"/>
      <point x="225" y="629"/>
      <point x="404" y="629" type="curve" smooth="yes"/>
      <point x="583" y="629"/>
      <point x="701" y="510"/>
    </contour>
  </outline>
</glyph>
<glyph name="ordfeminine" format="2">
  <advance width="368"/>
  <unicode hex="00AA"/>
  <outline>
    <contour>
      <point x="64" y="564" type="line"/>
      <point x="82" y="612"/>
      <point x="117" y="630"/>
      <point x="168" y="630" type="curve" smooth="yes"/>
      <point x="225" y="630"/>
      <point x="257" y="600"/>
      <point x="257" y="550" type="curve" smooth="yes"/>
      <point x="257" y="414" type="line"/>
      <point x="262" y="393" type="line"/>
      <point x="262" y="345"/>
      <point x="287" y="327"/>
      <point x="321" y="327" type="curve" smooth="yes"/>
      <point x="334" y="327"/>
      <point x="345" y="330"/>
      <point x="354" y="334" type="curve"/>
      <point x="357" y="364" type="line"/>
      <point x="351" y="361"/>
      <point x="343" y="359"/>
      <point x="332" y="359" type="curve" smooth="yes"/>
      <point x="312" y="359"/>
      <point x="300" y="369"/>
      <point x="300" y="396" type="curve" smooth="yes"/>
      <point x="300" y="552" type="line" smooth="yes"/>
      <point x="300" y="626"/>
      <point x="252" y="665"/>
      <point x="170" y="665" type="curve" smooth="yes"/>
      <point x="96" y="665"/>
      <point x="48" y="633"/>
      <point x="32" y="581" type="curve"/>
    </contour>
    <contour>
      <point x="341" y="211" type="line"/>
      <point x="341" y="246" type="line"/>
      <point x="32" y="246" type="line"/>
      <point x="32" y="211" type="line"/>
    </contour>
    <contour>
      <point x="274" y="425" type="curve"/>
      <point x="257" y="442" type="line"/>
      <point x="257" y="389"/>
      <point x="192" y="362"/>
      <point x="144" y="362" type="curve" smooth="yes"/>
      <point x="97" y="362"/>
      <point x="70" y="378"/>
      <point x="70" y="412" type="curve" smooth="yes"/>
      <point x="70" y="449"/>
      <point x="100" y="468"/>
      <point x="169" y="481" type="curve" smooth="yes"/>
      <point x="274" y="501" type="line"/>
      <point x="269" y="530" type="line"/>
      <point x="154" y="510" type="line" smooth="yes"/>
      <point x="66" y="494"/>
      <point x="26" y="462"/>
      <point x="26" y="409" type="curve" smooth="yes"/>
      <point x="26" y="356"/>
      <point x="69" y="327"/>
      <point x="135" y="327" type="curve" smooth="yes"/>
      <point x="207" y="327"/>
      <point x="274" y="362"/>
    </contour>
  </outline>
</glyph>
<glyph name="macron" format="2">
  <advance width="523"/>
  <unicode hex="00AF"/>
  <anchor x="262" y="500" name="_top"/>
  <outline>
    <contour>
      <point x="102" y="642" type="line"/>
      <point x="102" y="600" type="line"/>
      <point x="422" y="600" type="line"/>
      <point x="422" y="642" type="line"/>
    </contour>
  </outline>
</glyph>
<glyph name="twosuperior" format="2">
  <advance width="348"/>
  <unicode hex="00B2"/>
  <anchor x="173" y="517" name="_indexring"/>
  <outline>
    <contour>
      <point x="318" y="333" type="line"/>
      <point x="318" y="370" type="line"/>
      <point x="143" y="370" type="line" smooth="yes"/>
      <point x="131" y="370"/>
      <point x="107" y="369"/>
      <point x="97" y="368" type="curve"/>
      <point x="97" y="369" type="line"/>
      <point x="122" y="389"/>
      <point x="147" y="408"/>
      <point x="172" y="428" type="curve" smooth="yes"/>
      <point x="252" y="488"/>
      <point x="306" y="550"/>
      <point x="306" y="612" type="curve" smooth="yes"/>
      <point x="306" y="682"/>
      <point x="257" y="735"/>
      <point x="170" y="735" type="curve" smooth="yes"/>
      <point x="87" y="735"/>
      <point x="34" y="685"/>
      <point x="29" y="609" type="curve"/>
      <point x="69" y="596" type="line"/>
      <point x="72" y="659"/>
      <point x="109" y="698"/>
      <point x="169" y="698" type="curve" smooth="yes"/>
      <point x="226" y="698"/>
      <point x="260" y="662"/>
      <point x="260" y="610" type="curve" smooth="yes"/>
      <point x="260" y="557"/>
      <point x="220" y="511"/>
      <point x="140" y="447" type="curve" smooth="yes"/>
      <point x="106" y="419"/>
      <point x="72" y="392"/>
      <point x="38" y="366" type="curve"/>
      <point x="38" y="333" type="line"/>
    </contour>
  </outline>
</glyph>
<glyph name="threesuperior" format="2">
  <advance width="336"/>
  <unicode hex="00B3"/>
  <anchor x="159" y="530" name="_indexring"/>
  <outline>
    <contour>
      <point x="31" y="647" type="curve"/>
      <point x="72" y="632" type="line"/>
      <point x="81" y="673"/>
      <point x="113" y="698"/>
      <point x="161" y="698" type="curve" smooth="yes"/>
      <point x="213" y="698"/>
      <point x="243" y="670"/>
      <point x="243" y="623" type="curve" smooth="yes"/>
      <point x="243" y="580"/>
      <point x="215" y="549"/>
      <point x="162" y="549" type="curve" smooth="yes"/>
      <point x="139" y="549" type="line"/>
      <point x="139" y="515" type="line"/>
      <point x="164" y="515" type="line" smooth="yes"/>
      <point x="223" y="515"/>
      <point x="253" y="489"/>
      <point x="253" y="444" type="curve" smooth="yes"/>
      <point x="253" y="394"/>
      <point x="216" y="364"/>
      <point x="162" y="364" type="curve" smooth="yes"/>
      <point x="102" y="364"/>
      <point x="71" y="392"/>
      <point x="61" y="440" type="curve"/>
      <point x="19" y="421" type="line"/>
      <point x="38" y="360"/>
      <point x="86" y="327"/>
      <point x="161" y="327" type="curve" smooth="yes"/>
      <point x="241" y="327"/>
      <point x="299" y="371"/>
      <point x="299" y="439" type="curve" smooth="yes"/>
      <point x="299" y="494"/>
      <point x="259" y="529"/>
      <point x="214" y="532" type="curve"/>
      <point x="214" y="533" type="line"/>
      <point x="254" y="541"/>
      <point x="290" y="574"/>
      <point x="290" y="628" type="curve" smooth="yes"/>
      <point x="290" y="691"/>
      <point x="244" y="735"/>
      <point x="163" y="735" type="curve" smooth="yes"/>
      <point x="98" y="735"/>
      <point x="47" y="704"/>
    </contour>
  </outline>
</glyph>
<glyph name="uni00B5" format="2">
  <advance width="599"/>
  <unicode hex="00B5"/>
  <anchor x="503" y="0" name="bottomC"/>
  <anchor x="305" y="500" name="top"/>
  <anchor x="509" y="0" name="ogonek"/>
  <anchor x="305" y="-210" name="bottom"/>
  <outline>
    <contour>
      <point x="139" y="182" type="curve"/>
      <point x="112" y="170" type="line"/>
      <point x="112" y="47"/>
      <point x="181" y="-10"/>
      <point x="269" y="-10" type="curve" smooth="yes"/>
      <point x="394" y="-10"/>
      <point x="474" y="64"/>
      <point x="482" y="178" type="curve"/>
      <point x="459" y="191" type="line"/>
      <point x="453" y="101"/>
      <point x="380" y="34"/>
      <point x="278" y="34" type="curve" smooth="yes"/>
      <point x="195" y="34"/>
      <point x="139" y="78"/>
    </contour>
    <contour>
      <point x="89" y="500" type="line"/>
      <point x="89" y="-210" type="line"/>
      <point x="139" y="-210" type="line"/>
      <point x="139" y="500" type="line"/>
    </contour>
    <contour>
      <point x="459" y="500" type="line"/>
      <point x="459" y="167" type="line"/>
      <point x="462" y="136" type="line"/>
      <point x="467" y="0" type="line"/>
      <point x="509" y="0" type="line"/>
      <point x="509" y="155" type="line"/>
      <point x="509" y="500" type="line"/>
    </contour>
  </outline>
</glyph>
<glyph name="cedilla" format="2">
  <advance width="523"/>
  <unicode hex="00B8"/>
  <anchor x="269" y="0" name="_bottomC"/>
  <outline>
    <contour>
      <point x="332" y="-107" type="curve" smooth="yes"/>
      <point x="332" y="-146"/>
      <point x="304" y="-171"/>
      <point x="267" y="-171" type="curve" smooth="yes"/>
      <point x="236" y="-171"/>
      <point x="210" y="-160"/>
      <point x="190" y="-136" type="curve"/>
      <point x="170" y="-171" type="line"/>
      <point x="197" y="-199"/>
      <point x="229" y="-209"/>
      <point x="273" y="-209" type="curve" smooth="yes"/>
      <point x="337" y="-209"/>
      <point x="376" y="-166"/>
      <point x="376" y="-113" type="curve" smooth="yes"/>
      <point x="376" y="-62"/>
      <point x="342" y="-15"/>
      <point x="260" y="17" type="curve"/>
      <point x="226" y="3" type="line"/>
      <point x="310" y="-38"/>
      <point x="332" y="-65"/>
    </contour>
  </outline>
</glyph>
<glyph name="AE" format="2">
  <advance width="922"/>
  <unicode hex="00C6"/>
  <anchor x="490" y="0" name="bottomC"/>
  <anchor x="470" y="660" name="top"/>
  <anchor x="880" y="0" name="ogonek"/>
  <anchor x="470" y="0" name="bottom"/>
  <outline>
    <contour>
      <point x="401" y="660" type="line"/>
      <point x="-1" y="0" type="line"/>
      <point x="56" y="0" type="line"/>
      <point x="453" y="660" type="line"/>
    </contour>
    <contour>
      <point x="196" y="279" type="line"/>
      <point x="170" y="232" type="line"/>
      <point x="469" y="232" type="line"/>
      <point x="469" y="279" type="line"/>
    </contour>
    <contour>
      <point x="471" y="46" type="line"/>
      <point x="471" y="0" type="line"/>
      <point x="880" y="0" type="line"/>
      <point x="880" y="46" type="line"/>
    </contour>
    <contour>
      <point x="445" y="660" type="line"/>
      <point x="445" y="0" type="line"/>
      <point x="495" y="0" type="line"/>
      <point x="495" y="660" type="line"/>
    </contour>
    <contour>
      <point x="471" y="358" type="line"/>
      <point x="471" y="312" type="line"/>
      <point x="783" y="312" type="line"/>
      <point x="783" y="358" type="line"/>
    </contour>
    <contour>
      <point x="427" y="660" type="line"/>
      <point x="400" y="614" type="line"/>
      <point x="467" y="614" type="line"/>
      <point x="477" y="614" type="line"/>
      <point x="865" y="614" type="line"/>
      <point x="865" y="660" type="line"/>
    </contour>
  </outline>
</glyph>
<glyph name="Idieresis" format="2">
  <advance width="258"/>
  <unicode hex="00CF"/>
  <anchor x="129" y="660" name="top"/>
  <anchor x="154" y="0" name="ogonek"/>
  <anchor x="129" y="0" name="bottom"/>
  <anchor x="133" y="0" name="bottomC"/>
  <outline>
    <contour>
      <point x="15" y="790" type="curve" smooth="yes"/>
      <point x="15" y="766"/>
      <point x="31" y="750"/>
      <point x="55" y="750" type="curve" smooth="yes"/>
      <point x="80" y="750"/>
      <point x="96" y="766"/>
      <point x="96" y="790" type="curve" smooth="yes"/>
      <point x="96" y="814"/>
      <point x="80" y="831"/>
      <point x="55" y="831" type="curve" smooth="yes"/>
      <point x="31" y="831"/>
      <point x="15" y="814"/>
    </contour>
    <contour>
      <point x="162" y="790" type="curve" smooth="yes"/>
      <point x="162" y="766"/>
      <point x="178" y="750"/>
      <point x="202" y="750" type="curve" smooth="yes"/>
      <point x="226" y="750"/>
      <point x="243" y="766"/>
      <point x="243" y="790" type="curve" smooth="yes"/>
      <point x="243" y="814"/>
      <point x="226" y="831"/>
      <point x="202" y="831" type="curve" smooth="yes"/>
      <point x="178" y="831"/>
      <point x="162" y="814"/>
    </contour>
    <component base="I"/>
  </outline>
</glyph>
<glyph name="germandbls" format="2">
  <advance width="590"/>
  <unicode hex="00DF"/>
  <anchor x="318" y="0" name="bottomC"/>
  <anchor x="312" y="730" name="top"/>
  <anchor x="441" y="19" name="ogonek"/>
  <anchor x="312" y="0" name="bottom"/>
  <outline>
    <contour>
      <point x="350" y="386" type="line"/>
      <point x="452" y="388"/>
      <point x="507" y="469"/>
      <point x="507" y="555" type="curve" smooth="yes"/>
      <point x="507" y="650"/>
      <point x="446" y="735"/>
      <point x="311" y="735" type="curve" smooth="yes"/>
      <point x="152" y="735"/>
      <point x="89" y="646"/>
      <point x="89" y="506" type="curve" smooth="yes"/>
      <point x="89" y="0" type="line"/>
      <point x="139" y="0" type="line"/>
      <point x="139" y="488" type="line" smooth="yes"/>
      <point x="139" y="620"/>
      <point x="188" y="689"/>
      <point x="306" y="689" type="curve" smooth="yes"/>
      <point x="401" y="689"/>
      <point x="456" y="641"/>
      <point x="456" y="553" type="curve" smooth="yes"/>
      <point x="456" y="462"/>
      <point x="395" y="404"/>
      <point x="301" y="404" type="curve" smooth="yes"/>
      <point x="260" y="404" type="line"/>
      <point x="260" y="358" type="line"/>
      <point x="301" y="358" type="line" smooth="yes"/>
      <point x="415" y="358"/>
      <point x="486" y="304"/>
      <point x="486" y="195" type="curve" smooth="yes"/>
      <point x="486" y="100"/>
      <point x="428" y="35"/>
      <point x="332" y="35" type="curve" smooth="yes"/>
      <point x="293" y="35"/>
      <point x="264" y="45"/>
      <point x="242" y="67" type="curve"/>
      <point x="225" y="28" type="line"/>
      <point x="245" y="6"/>
      <point x="286" y="-10"/>
      <point x="330" y="-10" type="curve" smooth="yes"/>
      <point x="461" y="-10"/>
      <point x="535" y="79"/>
      <point x="535" y="190" type="curve" smooth="yes"/>
      <point x="535" y="292"/>
      <point x="478" y="382"/>
      <point x="350" y="384" type="curve"/>
    </contour>
  </outline>
</glyph>
<glyph name="ae" format="2">
  <advance width="876"/>
  <unicode hex="00E6"/>
  <anchor x="602" y="0" name="bottomC"/>
  <anchor x="422" y="500" name="top"/>
  <anchor x="681" y="0" name="ogonek"/>
  <anchor x="422" y="0" name="bottom"/>
  <outline>
    <contour>
      <point x="812" y="104" type="curve"/>
      <point x="771" y="126" type="line"/>
      <point x="747" y="67"/>
      <point x="700" y="34"/>
      <point x="617" y="34" type="curve" smooth="yes"/>
      <point x="513" y="34"/>
      <point x="444" y="115"/>
      <point x="444" y="250" type="curve" smooth="yes"/>
      <point x="444" y="385"/>
      <point x="510" y="466"/>
      <point x="613" y="466" type="curve" smooth="yes"/>
      <point x="722" y="466"/>
      <point x="774" y="393"/>
      <point x="775" y="262" type="curve"/>
      <point x="798" y="282" type="line"/>
      <point x="417" y="282" type="line"/>
      <point x="417" y="237" type="line"/>
      <point x="820" y="237" type="line"/>
      <point x="821" y="246"/>
      <point x="822" y="257"/>
      <point x="822" y="270" type="curve" smooth="yes"/>
      <point x="822" y="416"/>
      <point x="752" y="510"/>
      <point x="613" y="510" type="curve" smooth="yes"/>
      <point x="485" y="510"/>
      <point x="404" y="407"/>
      <point x="404" y="250" type="curve" smooth="yes"/>
      <point x="404" y="77"/>
      <point x="488" y="-10"/>
      <point x="617" y="-10" type="curve" smooth="yes"/>
      <point x="721" y="-10"/>
      <point x="777" y="33"/>
    </contour>
    <contour>
      <point x="427" y="179" type="curve"/>
      <point x="399" y="193" type="line"/>
      <point x="399" y="80"/>
      <point x="301" y="34"/>
      <point x="221" y="34" type="curve" smooth="yes"/>
      <point x="151" y="34"/>
      <point x="103" y="61"/>
      <point x="103" y="117" type="curve" smooth="yes"/>
      <point x="103" y="173"/>
      <point x="145" y="211"/>
      <point x="253" y="224" type="curve" smooth="yes"/>
      <point x="425" y="246" type="line"/>
      <point x="418" y="284" type="line"/>
      <point x="237" y="264" type="line" smooth="yes"/>
      <point x="110" y="249"/>
      <point x="52" y="193"/>
      <point x="52" y="117" type="curve" smooth="yes"/>
      <point x="52" y="36"/>
      <point x="116" y="-10"/>
      <point x="212" y="-10" type="curve" smooth="yes"/>
      <point x="320" y="-10"/>
      <point x="427" y="46"/>
    </contour>
    <contour>
      <point x="443" y="183" type="line"/>
      <point x="443" y="319" type="line" smooth="yes"/>
      <point x="443" y="443"/>
      <point x="374" y="510"/>
      <point x="260" y="510" type="curve" smooth="yes"/>
      <point x="162" y="510"/>
      <point x="91" y="468"/>
      <point x="61" y="388" type="curve"/>
      <point x="99" y="360" type="line"/>
      <point x="128" y="432"/>
      <point x="181" y="466"/>
      <point x="259" y="466" type="curve" smooth="yes"/>
      <point x="349" y="466"/>
      <point x="399" y="417"/>
      <point x="399" y="337" type="curve" smooth="yes"/>
      <point x="399" y="177" type="line"/>
    </contour>
  </outline>
</glyph>
<glyph name="idieresis" format="2">
  <advance width="229"/>
  <unicode hex="00EF"/>
  <anchor x="114" y="500" name="top"/>
  <anchor x="139" y="0" name="ogonek"/>
  <anchor x="114" y="0" name="bottom"/>
  <anchor x="118" y="0" name="bottomC"/>
  <outline>
    <contour>
      <point x="221" y="630" type="curve" smooth="yes"/>
      <point x="221" y="654"/>
      <point x="204" y="671"/>
      <point x="180" y="671" type="curve" smooth="yes"/>
      <point x="156" y="671"/>
      <point x="139" y="654"/>
      <point x="139" y="630" type="curve" smooth="yes"/>
      <point x="139" y="606"/>
      <point x="156" y="590"/>
      <point x="180" y="590" type="curve" smooth="yes"/>
      <point x="204" y="590"/>
      <point x="221" y="606"/>
    </contour>
    <contour>
      <point x="89" y="630" type="curve" smooth="yes"/>
      <point x="89" y="654"/>
      <point x="73" y="671"/>
      <point x="48" y="671" type="curve" smooth="yes"/>
      <point x="24" y="671"/>
      <point x="8" y="654"/>
      <point x="8" y="630" type="curve" smooth="yes"/>
      <point x="8" y="606"/>
      <point x="24" y="590"/>
      <point x="48" y="590" type="curve" smooth="yes"/>
      <point x="73" y="590"/>
      <point x="89" y="606"/>
    </contour>
    <component base="idotless"/>
  </outline>
</glyph>
<glyph name="divide" format="2">
  <advance width="604"/>
  <unicode hex="00F7"/>
  <outline>
    <contour>
      <point x="67" y="339" type="line"/>
      <point x="67" y="293" type="line"/>
      <point x="537" y="293" type="line"/>
      <point x="537" y="339" type="line"/>
    </contour>
    <component base="period" xOffset="192" yOffset="88"/>
    <component base="period" xOffset="192" yOffset="470"/>
  </outline>
</glyph>
<glyph name="aogonek" format="2">
  <advance width="543"/>
  <unicode hex="0105"/>
  <anchor x="456" y="-204" name="bottomC"/>
  <anchor x="260" y="500" name="top"/>
  <anchor x="496" y="-204" name="ogonek"/>
  <anchor x="260" y="-210" name="bottom"/>
  <outline>
    <contour>
      <point x="61" y="388" type="curve"/>
      <point x="99" y="360" type="line"/>
      <point x="128" y="432"/>
      <point x="181" y="466"/>
      <point x="259" y="466" type="curve" smooth="yes"/>
      <point x="347" y="466"/>
      <point x="395" y="417"/>
      <point x="395" y="338" type="curve" smooth="yes"/>
      <point x="395" y="121" type="line"/>
      <point x="395" y="98" type="line" smooth="yes"/>
      <point x="395" y="10"/>
      <point x="449" y="-10"/>
      <point x="484" y="-10" type="curve" smooth="yes"/>
      <point x="492" y="-10"/>
      <point x="520" y="-3"/>
      <point x="527" y="0" type="curve"/>
      <point x="530" y="40" type="line"/>
      <point x="520" y="35"/>
      <point x="505" y="33"/>
      <point x="491" y="33" type="curve" smooth="yes"/>
      <point x="461" y="33"/>
      <point x="445" y="50"/>
      <point x="445" y="86" type="curve" smooth="yes"/>
      <point x="445" y="344" type="line" smooth="yes"/>
      <point x="445" y="455"/>
      <point x="372" y="510"/>
      <point x="259" y="510" type="curve" smooth="yes"/>
      <point x="160" y="510"/>
      <point x="90" y="466"/>
    </contour>
    <contour>
      <point x="353" y="-122" type="curve" smooth="yes"/>
      <point x="353" y="-176"/>
      <point x="396" y="-209"/>
      <point x="457" y="-209" type="curve" smooth="yes"/>
      <point x="489" y="-209"/>
      <point x="512" y="-203"/>
      <point x="530" y="-191" type="curve"/>
      <point x="519" y="-158" type="line"/>
      <point x="504" y="-169"/>
      <point x="485" y="-172"/>
      <point x="460" y="-172" type="curve" smooth="yes"/>
      <point x="421" y="-172"/>
      <point x="395" y="-151"/>
      <point x="395" y="-115" type="curve" smooth="yes"/>
      <point x="395" y="-69"/>
      <point x="429" y="-36"/>
      <point x="527" y="0" type="curve"/>
      <point x="500" y="16" type="line"/>
      <point x="402" y="-18"/>
      <point x="353" y="-59"/>
    </contour>
    <contour>
      <point x="242" y="267" type="line" smooth="yes"/>
      <point x="112" y="244"/>
      <point x="52" y="193"/>
      <point x="52" y="117" type="curve" smooth="yes"/>
      <point x="52" y="34"/>
      <point x="119" y="-10"/>
      <point x="215" y="-10" type="curve" smooth="yes"/>
      <point x="308" y="-10"/>
      <point x="411" y="40"/>
      <point x="411" y="132" type="curve"/>
      <point x="395" y="160" type="line"/>
      <point x="395" y="76"/>
      <point x="299" y="34"/>
      <point x="220" y="34" type="curve" smooth="yes"/>
      <point x="147" y="34"/>
      <point x="103" y="64"/>
      <point x="103" y="117" type="curve" smooth="yes"/>
      <point x="103" y="173"/>
      <point x="150" y="207"/>
      <point x="258" y="228" type="curve" smooth="yes"/>
      <point x="423" y="258" type="line"/>
      <point x="416" y="298" type="line"/>
    </contour>
  </outline>
</glyph>
<glyph name="gbreve" format="2">
  <advance width="515"/>
  <unicode hex="011F"/>
  <outline>
    <contour>
      <point x="376" y="465" type="curve"/>
      <point x="409" y="451" type="line"/>
      <point x="408" y="514"/>
      <point x="447" y="548"/>
      <point x="515" y="548" type="curve"/>
      <point x="503" y="592" type="line"/>
      <point x="428" y="592"/>
      <point x="375" y="543"/>
    </contour>
    <component base="gbase" xOffset="-12"/>
    <component base="breve" xOffset="17"/>
  </outline>
</glyph>
<glyph name="Lslash" format="2">
  <advance width="593"/>
  <unicode hex="0141"/>
  <anchor x="486" y="339" name="center"/>
  <anchor x="369" y="0" name="bottomC"/>
  <anchor x="150" y="660" name="top"/>
  <anchor x="369" y="0" name="bottom"/>
  <anchor x="303" y="700" name="topright"/>
  <anchor x="571" y="0" name="ogonek"/>
  <outline>
    <contour>
      <point x="22" y="257" type="line"/>
      <point x="22" y="204" type="line"/>
      <point x="366" y="408" type="line"/>
      <point x="366" y="461" type="line"/>
    </contour>
    <component base="L" xOffset="21"/>
  </outline>
</glyph>
<glyph name="lslash" format="2">
  <advance width="328"/>
  <unicode hex="0142"/>
  <anchor x="283" y="357" name="center"/>
  <anchor x="215" y="0" name="bottomC"/>
  <anchor x="149" y="730" name="top"/>
  <anchor x="236" y="0" name="bottom"/>
  <anchor x="244" y="730" name="topright"/>
  <anchor x="283" y="0" name="ogonek"/>
  <outline>
    <contour>
      <point x="148" y="380" type="line"/>
      <point x="27" y="299" type="line"/>
      <point x="27" y="247" type="line"/>
      <point x="156" y="332" type="line"/>
      <point x="296" y="427" type="line"/>
      <point x="296" y="479" type="line"/>
    </contour>
    <component base="l" xOffset="39"/>
  </outline>
</glyph>
<glyph name="OE" format="2">
  <advance width="1066"/>
  <unicode hex="0152"/>
  <anchor x="633" y="0" name="bottomC"/>
  <anchor x="584" y="660" name="top"/>
  <anchor x="1024" y="0" name="ogonek"/>
  <anchor x="584" y="0" name="bottom"/>
  <outline>
    <contour>
      <point x="62" y="330" type="curve" smooth="yes"/>
      <point x="62" y="121"/>
      <point x="176" y="-10"/>
      <point x="356" y="-10" type="curve" smooth="yes"/>
      <point x="531" y="-10"/>
      <point x="629" y="112"/>
      <point x="629" y="330" type="curve" smooth="yes"/>
      <point x="629" y="548"/>
      <point x="533" y="670"/>
      <point x="358" y="670" type="curve" smooth="yes"/>
      <point x="175" y="670"/>
      <point x="62" y="539"/>
    </contour>
    <contour>
      <point x="589" y="330" type="curve" smooth="yes"/>
      <point x="589" y="139"/>
      <point x="509" y="36"/>
      <point x="358" y="36" type="curve" smooth="yes"/>
      <point x="207" y="36"/>
      <point x="115" y="148"/>
      <point x="115" y="330" type="curve" smooth="yes"/>
      <point x="115" y="512"/>
      <point x="207" y="624"/>
      <point x="358" y="624" type="curve" smooth="yes"/>
      <point x="509" y="624"/>
      <point x="589" y="521"/>
    </contour>
    <contour>
      <point x="618" y="46" type="line"/>
      <point x="614" y="0" type="line"/>
      <point x="1024" y="0" type="line"/>
      <point x="1024" y="46" type="line"/>
    </contour>
    <contour>
      <point x="589" y="660" type="line"/>
      <point x="589" y="0" type="line"/>
      <point x="635" y="0" type="line"/>
      <point x="635" y="660" type="line"/>
    </contour>
    <contour>
      <point x="614" y="359" type="line"/>
      <point x="614" y="312" type="line"/>
      <point x="929" y="312" type="line"/>
      <point x="929" y="359" type="line"/>
    </contour>
    <contour>
      <point x="614" y="660" type="line"/>
      <point x="614" y="614" type="line"/>
      <point x="1008" y="614" type="line"/>
      <point x="1008" y="660" type="line"/>
    </contour>
  </outline>
</glyph>
<glyph name="uni0162" format="2">
  <advance width="576"/>
  <unicode hex="0162"/>
  <anchor x="284" y="-204" name="bottomC"/>
  <anchor x="288" y="660" name="top"/>
  <anchor x="319" y="-204" name="ogonek"/>
  <anchor x="288" y="349" name="center"/>
  <anchor x="288" y="-210" name="bottom"/>
  <outline>
    <contour>
      <point x="345" y="-106" type="curve" smooth="yes"/>
      <point x="345" y="-145"/>
      <point x="318" y="-171"/>
      <point x="280" y="-171" type="curve" smooth="yes"/>
      <point x="246" y="-171"/>
      <point x="222" y="-157"/>
      <point x="204" y="-136" type="curve"/>
      <point x="184" y="-170" type="line"/>
      <point x="208" y="-195"/>
      <point x="239" y="-209"/>
      <point x="286" y="-209" type="curve" smooth="yes"/>
      <point x="349" y="-209"/>
      <point x="390" y="-166"/>
      <point x="390" y="-113" type="curve" smooth="yes"/>
      <point x="390" y="-65"/>
      <point x="366" y="-27"/>
      <point x="309" y="9" type="curve"/>
      <point x="263" y="0" type="line"/>
      <point x="320" y="-38"/>
      <point x="345" y="-63"/>
    </contour>
    <component base="T"/>
  </outline>
</glyph>
<glyph name="uni0163" format="2">
  <advance width="387"/>
  <unicode hex="0163"/>
  <anchor x="143" y="265" name="center"/>
  <anchor x="219" y="-204" name="bottomC"/>
  <anchor x="147" y="730" name="top"/>
  <anchor x="239" y="-210" name="bottom"/>
  <anchor x="271" y="767" name="topright"/>
  <anchor x="260" y="-204" name="ogonek"/>
  <outline>
    <contour>
      <point x="286" y="-107" type="curve" smooth="yes"/>
      <point x="286" y="-146"/>
      <point x="260" y="-171"/>
      <point x="223" y="-171" type="curve" smooth="yes"/>
      <point x="189" y="-171"/>
      <point x="165" y="-159"/>
      <point x="145" y="-136" type="curve"/>
      <point x="125" y="-171" type="line"/>
      <point x="151" y="-198"/>
      <point x="182" y="-209"/>
      <point x="228" y="-209" type="curve" smooth="yes"/>
      <point x="292" y="-209"/>
      <point x="330" y="-166"/>
      <point x="330" y="-113" type="curve" smooth="yes"/>
      <point x="330" y="-62"/>
      <point x="296" y="-14"/>
      <point x="211" y="19" type="curve"/>
      <point x="181" y="7" type="line"/>
      <point x="265" y="-38"/>
      <point x="286" y="-65"/>
    </contour>
    <component base="t"/>
  </outline>
</glyph>
<glyph name="uogonek" format="2">
  <advance width="593"/>
  <unicode hex="0173"/>
  <anchor x="443" y="-203" name="bottomC"/>
  <anchor x="292" y="500" name="top"/>
  <anchor x="469" y="-204" name="ogonek"/>
  <anchor x="295" y="-98" name="bottom"/>
  <outline>
    <contour>
      <point x="84" y="500" type="line"/>
      <point x="84" y="170" type="line" smooth="yes"/>
      <point x="84" y="47"/>
      <point x="159" y="-10"/>
      <point x="264" y="-10" type="curve" smooth="yes"/>
      <point x="378" y="-10"/>
      <point x="476" y="75"/>
      <point x="476" y="196" type="curve"/>
      <point x="454" y="217" type="line"/>
      <point x="454" y="124"/>
      <point x="382" y="34"/>
      <point x="270" y="34" type="curve" smooth="yes"/>
      <point x="186" y="34"/>
      <point x="134" y="78"/>
      <point x="134" y="182" type="curve" smooth="yes"/>
      <point x="134" y="500" type="line"/>
    </contour>
    <contour>
      <point x="504" y="0" type="curve"/>
      <point x="471" y="13" type="line"/>
      <point x="383" y="-33"/>
      <point x="346" y="-67"/>
      <point x="346" y="-125" type="curve" smooth="yes"/>
      <point x="346" y="-177"/>
      <point x="382" y="-209"/>
      <point x="444" y="-209" type="curve" smooth="yes"/>
      <point x="476" y="-209"/>
      <point x="503" y="-200"/>
      <point x="521" y="-187" type="curve"/>
      <point x="509" y="-156" type="line"/>
      <point x="494" y="-167"/>
      <point x="474" y="-172"/>
      <point x="449" y="-172" type="curve" smooth="yes"/>
      <point x="411" y="-172"/>
      <point x="386" y="-154"/>
      <point x="386" y="-118" type="curve" smooth="yes"/>
      <point x="386" y="-75"/>
      <point x="419" y="-48"/>
    </contour>
    <contour>
      <point x="454" y="500" type="line"/>
      <point x="454" y="179" type="line"/>
      <point x="454" y="140" type="line"/>
      <point x="462" y="0" type="line"/>
      <point x="504" y="0" type="line"/>
      <point x="504" y="155" type="line"/>
      <point x="504" y="500" type="line"/>
    </contour>
  </outline>
</glyph>
<glyph name="longs" format="2">
  <advance width="236"/>
  <unicode hex="017F"/>
  <anchor x="114" y="0" name="bottomC"/>
  <anchor x="182" y="730" name="top"/>
  <anchor x="135" y="0" name="ogonek"/>
  <anchor x="121" y="0" name="bottom"/>
  <outline>
    <contour>
      <point x="135" y="0" type="line"/>
      <point x="135" y="584" type="line" smooth="yes"/>
      <point x="135" y="656"/>
      <point x="164" y="690"/>
      <point x="217" y="690" type="curve" smooth="yes"/>
      <point x="241" y="690"/>
      <point x="253" y="684"/>
      <point x="268" y="671" type="curve"/>
      <point x="279" y="711" type="line"/>
      <point x="265" y="726"/>
      <point x="245" y="735"/>
      <point x="208" y="735" type="curve" smooth="yes"/>
      <point x="123" y="735"/>
      <point x="85" y="680"/>
      <point x="85" y="588" type="curve" smooth="yes"/>
      <point x="85" y="0" type="line"/>
    </contour>
  </outline>
</glyph>
<glyph name="uni02C9" format="2">
  <advance width="523"/>
  <unicode hex="02C9"/>
  <outline>
    <contour>
      <point x="102" y="642" type="line"/>
      <point x="102" y="600" type="line"/>
      <point x="422" y="600" type="line"/>
      <point x="422" y="642" type="line"/>
    </contour>
  </outline>
</glyph>
<glyph name="breve" format="2">
  <advance width="523"/>
  <unicode hex="02D8"/>
  <anchor x="252" y="500" name="_top"/>
  <outline>
    <contour>
      <point x="346" y="714" type="line"/>
      <point x="346" y="659"/>
      <point x="308" y="617"/>
      <point x="252" y="617" type="curve" smooth="yes"/>
      <point x="196" y="617"/>
      <point x="159" y="659"/>
      <point x="159" y="714" type="curve"/>
      <point x="117" y="714" type="line"/>
      <point x="117" y="632"/>
      <point x="170" y="579"/>
      <point x="252" y="579" type="curve" smooth="yes"/>
      <point x="335" y="579"/>
      <point x="388" y="632"/>
      <point x="388" y="714" type="curve"/>
    </contour>
  </outline>
</glyph>
<glyph name="dotaccent" format="2">
  <advance width="523"/>
  <unicode hex="02D9"/>
  <anchor x="262" y="500" name="_top"/>
  <outline>
    <contour>
      <point x="220" y="639" type="curve" smooth="yes"/>
      <point x="220" y="614"/>
      <point x="237" y="597"/>
      <point x="262" y="597" type="curve" smooth="yes"/>
      <point x="287" y="597"/>
      <point x="304" y="614"/>
      <point x="304" y="639" type="curve" smooth="yes"/>
      <point x="304" y="664"/>
      <point x="287" y="681"/>
      <point x="262" y="681" type="curve" smooth="yes"/>
      <point x="237" y="681"/>
      <point x="220" y="664"/>
    </contour>
  </outline>
</glyph>
<glyph name="ring" format="2">
  <advance width="523"/>
  <unicode hex="02DA"/>
  <anchor x="253" y="500" name="_top"/>
  <outline>
    <contour>
      <point x="145" y="676" type="curve" smooth="yes"/>
      <point x="145" y="617"/>
      <point x="189" y="575"/>
      <point x="250" y="575" type="curve" smooth="yes"/>
      <point x="312" y="575"/>
      <point x="355" y="617"/>
      <point x="355" y="676" type="curve" smooth="yes"/>
      <point x="355" y="734"/>
      <point x="312" y="776"/>
      <point x="250" y="776" type="curve" smooth="yes"/>
      <point x="189" y="776"/>
      <point x="145" y="734"/>
    </contour>
    <contour>
      <point x="319" y="676" type="curve" smooth="yes"/>
      <point x="319" y="637"/>
      <point x="290" y="608"/>
      <point x="250" y="608" type="curve" smooth="yes"/>
      <point x="211" y="608"/>
      <point x="182" y="637"/>
      <point x="182" y="676" type="curve" smooth="yes"/>
      <point x="182" y="714"/>
      <point x="211" y="743"/>
      <point x="250" y="743" type="curve" smooth="yes"/>
      <point x="290" y="743"/>
      <point x="319" y="714"/>
    </contour>
  </outline>
</glyph>
<glyph name="pi" format="2">
  <advance width="709"/>
  <unicode hex="03C0"/>
  <outline>
    <contour>
      <point x="680" y="500" type="line"/>
      <point x="19" y="500" type="line"/>
      <point x="19" y="458" type="line"/>
      <point x="680" y="458" type="line"/>
    </contour>
    <contour>
      <point x="169" y="497" type="line"/>
      <point x="169" y="0" type="line"/>
      <point x="219" y="0" type="line"/>
      <point x="219" y="497" type="line"/>
    </contour>
    <contour>
      <point x="471" y="497" type="line"/>
      <point x="471" y="110" type="line" smooth="yes"/>
      <point x="471" y="27"/>
      <point x="523" y="0"/>
      <point x="622" y="0" type="curve"/>
      <point x="632" y="42" type="line"/>
      <point x="563" y="42"/>
      <point x="521" y="58"/>
      <point x="521" y="116" type="curve" smooth="yes"/>
      <point x="521" y="497" type="line"/>
    </contour>
  </outline>
</glyph>
<glyph name="daggerdbl" format="2">
  <advance width="511"/>
  <unicode hex="2021"/>
  <outline>
    <contour>
      <point x="231" y="660" type="line"/>
      <point x="231" y="-100" type="line"/>
      <point x="281" y="-100" type="line"/>
      <point x="281" y="660" type="line"/>
    </contour>
    <contour>
      <point x="44" y="450" type="line"/>
      <point x="44" y="408" type="line"/>
      <point x="467" y="408" type="line"/>
      <point x="467" y="450" type="line"/>
    </contour>
    <contour>
      <point x="44" y="152" type="line"/>
      <point x="44" y="110" type="line"/>
      <point x="467" y="110" type="line"/>
      <point x="467" y="152" type="line"/>
    </contour>
  </outline>
</glyph>
<glyph name="bullet" format="2">
  <advance width="430"/>
  <unicode hex="2022"/>
  <outline>
    <contour>
      <point x="120" y="338" type="curve" smooth="yes"/>
      <point x="120" y="284"/>
      <point x="160" y="246"/>
      <point x="215" y="246" type="curve" smooth="yes"/>
      <point x="270" y="246"/>
      <point x="310" y="284"/>
      <point x="310" y="338" type="curve" smooth="yes"/>
      <point x="310" y="392"/>
      <point x="270" y="430"/>
      <point x="215" y="430" type="curve" smooth="yes"/>
      <point x="160" y="430"/>
      <point x="120" y="392"/>
    </contour>
  </outline>
</glyph>
<glyph name="perthousand" format="2">
  <advance width="1181"/>
  <unicode hex="2030"/>
  <outline>
    <contour>
      <point x="842" y="169" type="curve" smooth="yes"/>
      <point x="842" y="71"/>
      <point x="895" y="-5"/>
      <point x="992" y="-5" type="curve" smooth="yes"/>
      <point x="1090" y="-5"/>
      <point x="1141" y="71"/>
      <point x="1141" y="169" type="curve" smooth="yes"/>
      <point x="1141" y="267"/>
      <point x="1090" y="344"/>
      <point x="992" y="344" type="curve" smooth="yes"/>
      <point x="894" y="344"/>
      <point x="842" y="267"/>
    </contour>
    <contour>
      <point x="1096" y="169" type="curve" smooth="yes"/>
      <point x="1096" y="92"/>
      <point x="1062" y="35"/>
      <point x="992" y="35" type="curve" smooth="yes"/>
      <point x="921" y="35"/>
      <point x="887" y="92"/>
      <point x="887" y="169" type="curve" smooth="yes"/>
      <point x="887" y="247"/>
      <point x="921" y="304"/>
      <point x="992" y="304" type="curve" smooth="yes"/>
      <point x="1062" y="304"/>
      <point x="1096" y="247"/>
    </contour>
    <component base="percent"/>
  </outline>
</glyph>
<glyph name="fivesuperior" format="2">
  <advance width="345"/>
  <unicode hex="2075"/>
  <anchor x="174" y="535" name="_indexring"/>
  <outline>
    <contour>
      <point x="83" y="546" type="curve"/>
      <point x="82" y="546" type="line"/>
      <point x="84" y="552"/>
      <point x="85" y="559"/>
      <point x="87" y="574" type="curve" smooth="yes"/>
      <point x="98" y="693" type="line"/>
      <point x="296" y="693" type="line"/>
      <point x="296" y="730" type="line"/>
      <point x="63" y="730" type="line"/>
      <point x="44" y="506" type="line"/>
      <point x="80" y="506" type="line"/>
      <point x="98" y="534"/>
      <point x="126" y="550"/>
      <point x="176" y="550" type="curve" smooth="yes"/>
      <point x="236" y="550"/>
      <point x="270" y="515"/>
      <point x="270" y="458" type="curve" smooth="yes"/>
      <point x="270" y="403"/>
      <point x="231" y="365"/>
      <point x="173" y="365" type="curve" smooth="yes"/>
      <point x="114" y="365"/>
      <point x="81" y="392"/>
      <point x="71" y="440" type="curve"/>
      <point x="31" y="419" type="line"/>
      <point x="53" y="355"/>
      <point x="102" y="328"/>
      <point x="174" y="328" type="curve" smooth="yes"/>
      <point x="257" y="328"/>
      <point x="315" y="377"/>
      <point x="315" y="459" type="curve" smooth="yes"/>
      <point x="315" y="531"/>
      <point x="264" y="584"/>
      <point x="187" y="584" type="curve" smooth="yes"/>
      <point x="131" y="584"/>
      <point x="102" y="568"/>
    </contour>
  </outline>
</glyph>
<glyph name="sevensuperior" format="2">
  <advance width="304"/>
  <unicode hex="2077"/>
  <anchor x="145" y="543" name="_indexring"/>
  <outline>
    <contour>
      <point x="151" y="333" type="line"/>
      <point x="151" y="475"/>
      <point x="198" y="589"/>
      <point x="296" y="693" type="curve"/>
      <point x="296" y="730" type="line"/>
      <point x="4" y="730" type="line"/>
      <point x="4" y="693" type="line"/>
      <point x="273" y="693" type="line"/>
      <point x="264" y="706" type="line"/>
      <point x="157" y="599"/>
      <point x="107" y="471"/>
      <point x="107" y="333" type="curve"/>
    </contour>
  </outline>
</glyph>
<glyph name="plussuperior" format="2">
  <advance width="336"/>
  <unicode hex="207A"/>
  <outline>
    <contour>
      <point x="306" y="515" type="line"/>
      <point x="306" y="547" type="line"/>
      <point x="31" y="547" type="line"/>
      <point x="31" y="515" type="line"/>
    </contour>
    <contour>
      <point x="187" y="393" type="line"/>
      <point x="187" y="669" type="line"/>
      <point x="150" y="669" type="line"/>
      <point x="150" y="393" type="line"/>
    </contour>
  </outline>
</glyph>
<glyph name="parenleftsuperior" format="2">
  <advance width="209"/>
  <unicode hex="207D"/>
  <outline>
    <contour>
      <point x="70" y="531" type="curve" smooth="yes"/>
      <point x="70" y="415"/>
      <point x="114" y="317"/>
      <point x="192" y="246" type="curve"/>
      <point x="217" y="269" type="line"/>
      <point x="147" y="341"/>
      <point x="113" y="419"/>
      <point x="113" y="531" type="curve" smooth="yes"/>
      <point x="113" y="643"/>
      <point x="147" y="722"/>
      <point x="217" y="794" type="curve"/>
      <point x="192" y="816" type="line"/>
      <point x="114" y="745"/>
      <point x="70" y="647"/>
    </contour>
  </outline>
</glyph>
<glyph name="uni20BD" format="2">
  <advance width="618"/>
  <unicode hex="20BD"/>
  <outline>
    <contour>
      <point x="164" y="660" type="line"/>
      <point x="164" y="615" type="line"/>
      <point x="352" y="615" type="line" smooth="yes"/>
      <point x="469" y="615"/>
      <point x="530" y="561"/>
      <point x="530" y="467" type="curve" smooth="yes"/>
      <point x="530" y="372"/>
      <point x="469" y="319"/>
      <point x="352" y="319" type="curve" smooth="yes"/>
      <point x="41" y="319" type="line"/>
      <point x="41" y="275" type="line"/>
      <point x="359" y="275" type="line" smooth="yes"/>
      <point x="495" y="275"/>
      <point x="582" y="348"/>
      <point x="582" y="467" type="curve" smooth="yes"/>
      <point x="582" y="587"/>
      <point x="495" y="660"/>
      <point x="359" y="660" type="curve" smooth="yes"/>
    </contour>
    <contour>
      <point x="139" y="660" type="line"/>
      <point x="139" y="0" type="line"/>
      <point x="186" y="0" type="line"/>
      <point x="186" y="660" type="line"/>
    </contour>
    <contour>
      <point x="391" y="191" type="line"/>
      <point x="41" y="191" type="line"/>
      <point x="41" y="151" type="line"/>
      <point x="391" y="151" type="line"/>
    </contour>
  </outline>
</glyph>
<glyph name="uni2113" format="2">
  <advance width="364"/>
  <unicode hex="2113"/>
  <outline>
    <contour>
      <point x="318" y="6" type="curve"/>
      <point x="322" y="49" type="line"/>
      <point x="296" y="39"/>
      <point x="275" y="33"/>
      <point x="245" y="33" type="curve" smooth="yes"/>
      <point x="190" y="33"/>
      <point x="163" y="66"/>
      <point x="163" y="120" type="curve" smooth="yes"/>
      <point x="163" y="550" type="line" smooth="yes"/>
      <point x="163" y="603"/>
      <point x="178" y="630"/>
      <point x="215" y="630" type="curve" smooth="yes"/>
      <point x="250" y="630"/>
      <point x="266" y="608"/>
      <point x="266" y="555" type="curve" smooth="yes"/>
      <point x="266" y="419"/>
      <point x="183" y="289"/>
      <point x="43" y="238" type="curve"/>
      <point x="43" y="194" type="line"/>
      <point x="211" y="256"/>
      <point x="309" y="411"/>
      <point x="309" y="553" type="curve" smooth="yes"/>
      <point x="309" y="635"/>
      <point x="277" y="670"/>
      <point x="214" y="670" type="curve" smooth="yes"/>
      <point x="151" y="670"/>
      <point x="118" y="630"/>
      <point x="118" y="548" type="curve" smooth="yes"/>
      <point x="118" y="115" type="line" smooth="yes"/>
      <point x="118" y="27"/>
      <point x="157" y="-10"/>
      <point x="241" y="-10" type="curve" smooth="yes"/>
      <point x="272" y="-10"/>
      <point x="298" y="-5"/>
    </contour>
  </outline>
</glyph>
<glyph name="estimated" format="2">
  <advance width="794"/>
  <unicode hex="212E"/>
  <outline>
    <contour>
      <point x="62" y="330" type="curve" smooth="yes"/>
      <point x="62" y="124"/>
      <point x="196" y="-10"/>
      <point x="422" y="-10" type="curve" smooth="yes"/>
      <point x="548" y="-10"/>
      <point x="649" y="35"/>
      <point x="709" y="131" type="curve"/>
      <point x="709" y="189" type="line"/>
      <point x="642" y="84"/>
      <point x="541" y="31"/>
      <point x="423" y="31" type="curve" smooth="yes"/>
      <point x="318" y="31"/>
      <point x="236" y="64"/>
      <point x="181" y="123" type="curve"/>
      <point x="181" y="309" type="line"/>
      <point x="741" y="309" type="line"/>
      <point x="742" y="542"/>
      <point x="614" y="670"/>
      <point x="402" y="670" type="curve" smooth="yes"/>
      <point x="196" y="670"/>
      <point x="62" y="536"/>
    </contour>
    <contour>
      <point x="623" y="535" type="curve"/>
      <point x="623" y="352" type="line"/>
      <point x="181" y="352" type="line"/>
      <point x="181" y="541" type="line"/>
      <point x="233" y="597"/>
      <point x="309" y="629"/>
      <point x="402" y="629" type="curve" smooth="yes"/>
      <point x="496" y="629"/>
      <point x="572" y="595"/>
    </contour>
  </outline>
</glyph>
<glyph name="uparrow" format="2">
  <advance width="750"/>
  <unicode hex="2191"/>
  <outline>
    <contour>
      <point x="384" y="639" type="curve"/>
      <point x="365" y="639" type="line"/>
      <point x="405" y="541"/>
      <point x="513" y="427"/>
      <point x="664" y="321" type="curve"/>
      <point x="697" y="362" type="line"/>
      <point x="553" y="457"/>
      <point x="465" y="545"/>
      <point x="376" y="667" type="curve"/>
      <point x="372" y="667" type="line"/>
      <point x="284" y="545"/>
      <point x="195" y="456"/>
      <point x="51" y="362" type="curve"/>
      <point x="84" y="321" type="line"/>
      <point x="235" y="427"/>
      <point x="343" y="541"/>
    </contour>
    <contour>
      <point x="399" y="0" type="line"/>
      <point x="399" y="439" type="line" smooth="yes"/>
      <point x="399" y="498"/>
      <point x="396" y="554"/>
      <point x="393" y="598" type="curve"/>
      <point x="374" y="633" type="line"/>
      <point x="355" y="598" type="line"/>
      <point x="352" y="554"/>
      <point x="349" y="498"/>
      <point x="349" y="439" type="curve" smooth="yes"/>
      <point x="349" y="0" type="line"/>
    </contour>
  </outline>
</glyph>
<glyph name="updownarrow" format="2">
  <advance width="750"/>
  <unicode hex="2195"/>
  <outline>
    <contour>
      <point x="394" y="-75" type="line"/>
      <point x="396" y="-36"/>
      <point x="399" y="14"/>
      <point x="399" y="63" type="curve" smooth="yes"/>
      <point x="399" y="597" type="line" smooth="yes"/>
      <point x="399" y="646"/>
      <point x="396" y="696"/>
      <point x="394" y="735" type="curve"/>
      <point x="374" y="769" type="line"/>
      <point x="354" y="735" type="line"/>
      <point x="352" y="696"/>
      <point x="349" y="646"/>
      <point x="349" y="597" type="curve" smooth="yes"/>
      <point x="349" y="63" type="line" smooth="yes"/>
      <point x="349" y="14"/>
      <point x="352" y="-36"/>
      <point x="354" y="-75" type="curve"/>
      <point x="374" y="-109" type="line"/>
    </contour>
    <contour>
      <point x="384" y="775" type="curve"/>
      <point x="365" y="775" type="line"/>
      <point x="405" y="678"/>
      <point x="513" y="563"/>
      <point x="670" y="454" type="curve"/>
      <point x="697" y="498" type="line"/>
      <point x="553" y="593"/>
      <point x="465" y="681"/>
      <point x="376" y="804" type="curve"/>
      <point x="372" y="804" type="line"/>
      <point x="283" y="681"/>
      <point x="195" y="593"/>
      <point x="51" y="498" type="curve"/>
      <point x="78" y="454" type="line"/>
      <point x="235" y="563"/>
      <point x="343" y="678"/>
    </contour>
    <contour>
      <point x="51" y="162" type="line"/>
      <point x="195" y="67"/>
      <point x="283" y="-21"/>
      <point x="372" y="-144" type="curve"/>
      <point x="376" y="-144" type="line"/>
      <point x="465" y="-21"/>
      <point x="553" y="67"/>
      <point x="697" y="162" type="curve"/>
      <point x="670" y="207" type="line"/>
      <point x="513" y="97"/>
      <point x="405" y="-18"/>
      <point x="365" y="-115" type="curve"/>
      <point x="384" y="-115" type="line"/>
      <point x="343" y="-18"/>
      <point x="235" y="97"/>
      <point x="78" y="207" type="curve"/>
    </contour>
  </outline>
</glyph>
<glyph name="partialdiff" format="2">
  <advance width="589"/>
  <unicode hex="2202"/>
  <outline>
    <contour>
      <point x="96" y="600" type="curve"/>
      <point x="124" y="564" type="line"/>
      <point x="160" y="607"/>
      <point x="201" y="627"/>
      <point x="263" y="627" type="curve" smooth="yes"/>
      <point x="404" y="627"/>
      <point x="474" y="537"/>
      <point x="474" y="330" type="curve" smooth="yes"/>
      <point x="474" y="139"/>
      <point x="405" y="35"/>
      <point x="274" y="35" type="curve" smooth="yes"/>
      <point x="168" y="35"/>
      <point x="103" y="105"/>
      <point x="103" y="210" type="curve" smooth="yes"/>
      <point x="103" y="313"/>
      <point x="167" y="382"/>
      <point x="269" y="382" type="curve" smooth="yes"/>
      <point x="376" y="382"/>
      <point x="449" y="327"/>
      <point x="472" y="232" type="curve"/>
      <point x="498" y="242" type="line"/>
      <point x="479" y="357"/>
      <point x="389" y="427"/>
      <point x="270" y="427" type="curve" smooth="yes"/>
      <point x="144" y="427"/>
      <point x="53" y="338"/>
      <point x="53" y="209" type="curve" smooth="yes"/>
      <point x="53" y="81"/>
      <point x="141" y="-10"/>
      <point x="274" y="-10" type="curve" smooth="yes"/>
      <point x="433" y="-10"/>
      <point x="520" y="110"/>
      <point x="520" y="330" type="curve" smooth="yes"/>
      <point x="520" y="551"/>
      <point x="443" y="670"/>
      <point x="264" y="670" type="curve" smooth="yes"/>
      <point x="197" y="670"/>
      <point x="141" y="646"/>
    </contour>
  </outline>
</glyph>
<glyph name="uni2206" format="2">
  <advance width="655"/>
  <unicode hex="2206"/>
  <outline>
    <contour>
      <point x="297" y="660" type="line"/>
      <point x="34" y="42" type="line"/>
      <point x="34" y="0" type="line"/>
      <point x="621" y="0" type="line"/>
      <point x="621" y="42" type="line"/>
      <point x="359" y="660" type="line"/>
    </contour>
    <contour>
      <point x="573" y="42" type="line"/>
      <point x="82" y="42" type="line"/>
      <point x="327" y="622" type="line"/>
    </contour>
  </outline>
</glyph>
<glyph name="product" format="2">
  <advance width="664"/>
  <unicode hex="220F"/>
  <outline>
    <contour>
      <point x="529" y="660" type="line"/>
      <point x="529" y="-128" type="line"/>
      <point x="579" y="-128" type="line"/>
      <point x="579" y="660" type="line"/>
    </contour>
    <contour>
      <point x="85" y="660" type="line"/>
      <point x="85" y="-128" type="line"/>
      <point x="135" y="-128" type="line"/>
      <point x="135" y="660" type="line"/>
    </contour>
    <contour>
      <point x="111" y="660" type="line"/>
      <point x="111" y="614" type="line"/>
      <point x="553" y="614" type="line"/>
      <point x="553" y="660" type="line"/>
    </contour>
  </outline>
</glyph>
<glyph name="summation" format="2">
  <advance width="606"/>
  <unicode hex="2211"/>
  <outline>
    <contour>
      <point x="382" y="272" type="line"/>
      <point x="45" y="-82" type="line"/>
      <point x="80" y="-111" type="line"/>
      <point x="444" y="268" type="line"/>
      <point x="444" y="272" type="line"/>
    </contour>
    <contour>
      <point x="45" y="-82" type="line"/>
      <point x="45" y="-128" type="line"/>
      <point x="552" y="-128" type="line"/>
      <point x="552" y="-82" type="line"/>
    </contour>
    <contour>
      <point x="45" y="614" type="line"/>
      <point x="382" y="272" type="line"/>
      <point x="444" y="272" type="line"/>
      <point x="444" y="276" type="line"/>
      <point x="81" y="643" type="line"/>
    </contour>
    <contour>
      <point x="45" y="660" type="line"/>
      <point x="45" y="614" type="line"/>
      <point x="552" y="614" type="line"/>
      <point x="552" y="660" type="line"/>
    </contour>
  </outline>
</glyph>
<glyph name="radical" format="2">
  <advance width="637"/>
  <unicode hex="221A"/>
  <outline>
    <contour>
      <point x="584" y="818" type="line"/>
      <point x="308" y="108" type="line"/>
      <point x="273" y="0" type="line"/>
      <point x="313" y="0" type="line"/>
      <point x="634" y="818" type="line"/>
    </contour>
    <contour>
      <point x="20" y="392" type="line"/>
      <point x="20" y="346" type="line"/>
      <point x="123" y="346" type="line"/>
      <point x="262" y="0" type="line"/>
      <point x="304" y="0" type="line"/>
      <point x="268" y="107" type="line"/>
      <point x="153" y="392" type="line"/>
    </contour>
  </outline>
</glyph>
<glyph name="approxequal" format="2">
  <advance width="604"/>
  <unicode hex="2248"/>
  <outline>
    <contour>
      <point x="74" y="419" type="curve"/>
      <point x="74" y="372" type="line"/>
      <point x="111" y="409"/>
      <point x="142" y="427"/>
      <point x="193" y="427" type="curve" smooth="yes"/>
      <point x="268" y="427"/>
      <point x="338" y="358"/>
      <point x="413" y="358" type="curve" smooth="yes"/>
      <point x="455" y="358"/>
      <point x="493" y="374"/>
      <point x="530" y="410" type="curve"/>
      <point x="530" y="458" type="line"/>
      <point x="487" y="415"/>
      <point x="451" y="403"/>
      <point x="414" y="403" type="curve" smooth="yes"/>
      <point x="341" y="403"/>
      <point x="274" y="472"/>
      <point x="193" y="472" type="curve" smooth="yes"/>
      <point x="144" y="472"/>
      <point x="114" y="457"/>
    </contour>
    <contour>
      <point x="74" y="226" type="curve"/>
      <point x="74" y="178" type="line"/>
      <point x="111" y="215"/>
      <point x="142" y="233"/>
      <point x="193" y="233" type="curve" smooth="yes"/>
      <point x="268" y="233"/>
      <point x="338" y="165"/>
      <point x="413" y="165" type="curve" smooth="yes"/>
      <point x="455" y="165"/>
      <point x="493" y="181"/>
      <point x="530" y="217" type="curve"/>
      <point x="530" y="265" type="line"/>
      <point x="487" y="221"/>
      <point x="451" y="210"/>
      <point x="414" y="210" type="curve" smooth="yes"/>
      <point x="341" y="210"/>
      <point x="274" y="278"/>
      <point x="193" y="278" type="curve" smooth="yes"/>
      <point x="144" y="278"/>
      <point x="114" y="263"/>
    </contour>
  </outline>
</glyph>
<glyph name="notequal" format="2">
  <advance width="604"/>
  <unicode hex="2260"/>
  <outline>
    <contour>
      <point x="394" y="545" type="line"/>
      <point x="161" y="69" type="line"/>
      <point x="211" y="69" type="line"/>
      <point x="444" y="545" type="line"/>
    </contour>
    <contour>
      <point x="75" y="432" type="line"/>
      <point x="75" y="388" type="line"/>
      <point x="529" y="388" type="line"/>
      <point x="529" y="432" type="line"/>
    </contour>
    <contour>
      <point x="75" y="228" type="line"/>
      <point x="75" y="184" type="line"/>
      <point x="529" y="184" type="line"/>
      <point x="529" y="228" type="line"/>
    </contour>
  </outline>
</glyph>
<glyph name="lessequal" format="2">
  <advance width="604"/>
  <unicode hex="2264"/>
  <outline>
    <contour>
      <point x="74" y="407" type="line"/>
      <point x="74" y="359" type="line"/>
      <point x="538" y="573" type="line"/>
      <point x="538" y="627" type="line"/>
    </contour>
    <contour>
      <point x="74" y="0" type="line"/>
      <point x="538" y="0" type="line"/>
      <point x="538" y="46" type="line"/>
      <point x="74" y="46" type="line"/>
    </contour>
    <contour>
      <point x="74" y="393" type="line"/>
      <point x="74" y="345" type="line"/>
      <point x="538" y="120" type="line"/>
      <point x="538" y="174" type="line"/>
    </contour>
  </outline>
</glyph>
<glyph name="whiteDiamond" format="2">
  <advance width="600"/>
  <unicode hex="25C7"/>
  <outline>
    <contour>
      <point x="561" y="255" type="line"/>
      <point x="300" y="517" type="line"/>
      <point x="39" y="255" type="line"/>
      <point x="300" y="-6" type="line"/>
    </contour>
    <contour>
      <point x="112" y="255" type="line"/>
      <point x="300" y="443" type="line"/>
      <point x="488" y="255" type="line"/>
      <point x="300" y="67" type="line"/>
    </contour>
  </outline>
</glyph>
<glyph name="whiteCircle" format="2">
  <advance width="600"/>
  <unicode hex="25CB"/>
  <outline>
    <contour>
      <point x="538" y="250" type="curve" smooth="yes"/>
      <point x="538" y="386"/>
      <point x="435" y="489"/>
      <point x="300" y="489" type="curve" smooth="yes"/>
      <point x="165" y="489"/>
      <point x="62" y="386"/>
      <point x="62" y="250" type="curve" smooth="yes"/>
      <point x="62" y="114"/>
      <point x="165" y="11"/>
      <point x="300" y="11" type="curve" smooth="yes"/>
      <point x="435" y="11"/>
      <point x="538" y="114"/>
    </contour>
    <contour>
      <point x="112" y="250" type="curve" smooth="yes"/>
      <point x="112" y="360"/>
      <point x="193" y="443"/>
      <point x="300" y="443" type="curve" smooth="yes"/>
      <point x="407" y="443"/>
      <point x="488" y="360"/>
      <point x="488" y="250" type="curve" smooth="yes"/>
      <point x="488" y="140"/>
      <point x="407" y="58"/>
      <point x="300" y="58" type="curve" smooth="yes"/>
      <point x="193" y="58"/>
      <point x="112" y="140"/>
    </contour>
  </outline>
</glyph>
<glyph name="blackCircle" format="2">
  <advance width="600"/>
  <unicode hex="25CF"/>
  <outline>
    <contour>
      <point x="539" y="250" type="curve" smooth="yes"/>
      <point x="539" y="386"/>
      <point x="436" y="489"/>
      <point x="300" y="489" type="curve" smooth="yes"/>
      <point x="164" y="489"/>
      <point x="61" y="386"/>
      <point x="61" y="250" type="curve" smooth="yes"/>
      <point x="61" y="114"/>
      <point x="164" y="11"/>
      <point x="300" y="11" type="curve" smooth="yes"/>
      <point x="436" y="11"/>
      <point x="539" y="114"/>
    </contour>
  </outline>
</glyph>
<glyph name="heavyquoteleft" format="2">
  <advance width="703"/>
  <unicode hex="275B"/>
  <outline>
    <contour>
      <point x="59" y="276" type="curve" smooth="yes"/>
      <point x="59" y="109"/>
      <point x="143" y="-10"/>
      <point x="364" y="-10" type="curve" smooth="yes"/>
      <point x="546" y="-10"/>
      <point x="649" y="76"/>
      <point x="649" y="233" type="curve" smooth="yes"/>
      <point x="649" y="388"/>
      <point x="535" y="471"/>
      <point x="370" y="471" type="curve" smooth="yes"/>
      <point x="260" y="471"/>
      <point x="189" y="442"/>
      <point x="133" y="379" type="curve"/>
      <point x="125" y="384" type="line"/>
      <point x="175" y="506"/>
      <point x="271" y="637"/>
      <point x="607" y="619" type="curve"/>
      <point x="576" y="663" type="line"/>
      <point x="171" y="680"/>
      <point x="59" y="485"/>
    </contour>
  </outline>
</glyph>
<glyph name="A.swsh" format="2">
  <advance width="890"/>
  <anchor x="578" y="660" name="top"/>
  <anchor x="871" y="0" name="ogonek"/>
  <anchor x="578" y="0" name="bottom"/>
  <outline>
    <contour>
      <point x="350" y="32" type="curve" smooth="yes"/>
      <point x="553" y="543" type="line"/>
      <point x="577" y="611" type="line"/>
      <point x="578" y="611" type="line"/>
      <point x="602" y="541" type="line"/>
      <point x="818" y="0" type="line"/>
      <point x="871" y="0" type="line"/>
      <point x="608" y="660" type="line"/>
      <point x="549" y="660" type="line"/>
      <point x="311" y="67" type="line" smooth="yes"/>
      <point x="269" y="-38"/>
      <point x="240" y="-66"/>
      <point x="168" y="-66" type="curve" smooth="yes"/>
      <point x="94" y="-66"/>
      <point x="48" y="-40"/>
      <point x="42" y="53" type="curve"/>
      <point x="5" y="27" type="line"/>
      <point x="8" y="-66"/>
      <point x="71" y="-110"/>
      <point x="169" y="-110" type="curve" smooth="yes"/>
      <point x="262" y="-110"/>
      <point x="312" y="-65"/>
    </contour>
    <contour>
      <point x="752" y="207" type="line"/>
      <point x="752" y="253" type="line"/>
      <point x="401" y="253" type="line"/>
      <point x="401" y="207" type="line"/>
    </contour>
    <component base="__swash_topleft" xOffset="80"/>
  </outline>
</glyph>
<glyph name="Aogonek_y" format="2">
  <advance width="1092"/>
  <anchor x="313" y="660" name="top"/>
  <anchor x="606" y="0" name="ogonek"/>
  <anchor x="313" y="0" name="bottom"/>
  <anchor x="594" y="0" name="bottomC"/>
  <outline>
    <contour>
      <point x="1018" y="500" type="line"/>
      <point x="871" y="126" type="line"/>
      <point x="844" y="54" type="line"/>
      <point x="819" y="121" type="line"/>
      <point x="666" y="500" type="line"/>
      <point x="609" y="500" type="line"/>
      <point x="768" y="124" type="line"/>
      <point x="820" y="0" type="line"/>
      <point x="786" y="-83" type="line" smooth="yes"/>
      <point x="757" y="-154"/>
      <point x="728" y="-172"/>
      <point x="697" y="-172" type="curve" smooth="yes"/>
      <point x="674" y="-172"/>
      <point x="658" y="-167"/>
      <point x="643" y="-154" type="curve"/>
      <point x="630" y="-194" type="line"/>
      <point x="647" y="-207"/>
      <point x="665" y="-215"/>
      <point x="699" y="-215" type="curve" smooth="yes"/>
      <point x="751" y="-215"/>
      <point x="793" y="-186"/>
      <point x="824" y="-108" type="curve" smooth="yes"/>
      <point x="1072" y="500" type="line"/>
    </contour>
    <contour>
      <point x="577" y="21" type="line"/>
      <point x="468" y="-15"/>
      <point x="423" y="-58"/>
      <point x="423" y="-120" type="curve" smooth="yes"/>
      <point x="423" y="-177"/>
      <point x="458" y="-209"/>
      <point x="518" y="-209" type="curve" smooth="yes"/>
      <point x="546" y="-209"/>
      <point x="569" y="-202"/>
      <point x="585" y="-190" type="curve"/>
      <point x="573" y="-157" type="line"/>
      <point x="559" y="-168"/>
      <point x="541" y="-172"/>
      <point x="521" y="-172" type="curve" smooth="yes"/>
      <point x="485" y="-172"/>
      <point x="464" y="-152"/>
      <point x="464" y="-118" type="curve" smooth="yes"/>
      <point x="464" y="-69"/>
      <point x="509" y="-32"/>
      <point x="606" y="0" type="curve"/>
    </contour>
    <component base="A"/>
  </outline>
</glyph>
<glyph name="Euro.tf" format="2">
  <advance width="604"/>
  <outline>
    <contour>
      <point x="29" y="272" type="line"/>
      <point x="29" y="230" type="line"/>
      <point x="360" y="230" type="line"/>
      <point x="374" y="272" type="line"/>
    </contour>
    <contour>
      <point x="29" y="422" type="line"/>
      <point x="29" y="380" type="line"/>
      <point x="398" y="380" type="line"/>
      <point x="413" y="422" type="line"/>
    </contour>
    <component base="euro.part.tf"/>
  </outline>
</glyph>
<glyph name="Hsuperior" format="2">
  <advance width="443"/>
  <outline>
    <contour>
      <point x="339" y="730" type="line"/>
      <point x="339" y="333" type="line"/>
      <point x="384" y="333" type="line"/>
      <point x="384" y="730" type="line"/>
    </contour>
    <contour>
      <point x="59" y="730" type="line"/>
      <point x="59" y="333" type="line"/>
      <point x="105" y="333" type="line"/>
      <point x="105" y="730" type="line"/>
    </contour>
    <contour>
      <point x="82" y="555" type="line"/>
      <point x="82" y="517" type="line"/>
      <point x="362" y="517" type="line"/>
      <point x="362" y="555" type="line"/>
    </contour>
  </outline>
</glyph>
<glyph name="L.swsh" format="2">
  <advance width="612"/>
  <anchor x="464" y="339" name="center"/>
  <anchor x="331" y="0" name="bottomC"/>
  <anchor x="129" y="660" name="top"/>
  <anchor x="354" y="0" name="bottom"/>
  <anchor x="282" y="700" name="topright"/>
  <anchor x="410" y="0" name="ogonek"/>
  <outline>
    <contour>
      <point x="410" y="0" type="line" smooth="yes"/>
      <point x="530" y="0"/>
      <point x="602" y="55"/>
      <point x="602" y="169" type="curve" smooth="yes"/>
      <point x="602" y="267"/>
      <point x="539" y="321"/>
      <point x="460" y="330" type="curve"/>
      <point x="438" y="291" type="line"/>
      <point x="506" y="283"/>
      <point x="552" y="244"/>
      <point x="552" y="170" type="curve" smooth="yes"/>
      <point x="552" y="80"/>
      <point x="494" y="46"/>
      <point x="398" y="46" type="curve" smooth="yes"/>
      <point x="267" y="46" type="line"/>
      <point x="267" y="0" type="line"/>
    </contour>
    <contour>
      <point x="353" y="0" type="line"/>
      <point x="353" y="46" type="line"/>
      <point x="129" y="46" type="line"/>
      <point x="129" y="0" type="line"/>
    </contour>
    <contour>
      <point x="154" y="0" type="line"/>
      <point x="154" y="660" type="line"/>
      <point x="104" y="660" type="line"/>
      <point x="104" y="0" type="line"/>
    </contour>
  </outline>
</glyph>
<glyph name="Lslash.swsh" format="2">
  <advance width="633"/>
  <anchor x="486" y="339" name="center"/>
  <anchor x="375" y="0" name="bottomC"/>
  <anchor x="150" y="660" name="top"/>
  <anchor x="375" y="0" name="bottom"/>
  <anchor x="303" y="700" name="topright"/>
  <anchor x="431" y="0" name="ogonek"/>
  <outline>
    <contour>
      <point x="22" y="257" type="line"/>
      <point x="22" y="204" type="line"/>
      <point x="366" y="408" type="line"/>
      <point x="366" y="461" type="line"/>
    </contour>
    <component base="L.swsh" xOffset="21"/>
  </outline>
</glyph>
<glyph name="M.swsh" format="2">
  <advance width="1039"/>
  <anchor x="646" y="0" name="bottomC"/>
  <anchor x="628" y="660" name="top"/>
  <anchor x="935" y="0" name="ogonek"/>
  <anchor x="628" y="0" name="bottom"/>
  <outline>
    <contour>
      <point x="650" y="0" type="line"/>
      <point x="892" y="612" type="line"/>
      <point x="892" y="612" type="line"/>
      <point x="887" y="492" type="line"/>
      <point x="887" y="0" type="line"/>
      <point x="935" y="0" type="line"/>
      <point x="935" y="660" type="line"/>
      <point x="860" y="660" type="line"/>
      <point x="661" y="159" type="line"/>
      <point x="628" y="59" type="line"/>
      <point x="627" y="59" type="line"/>
      <point x="595" y="160" type="line"/>
      <point x="396" y="660" type="line"/>
      <point x="320" y="660" type="line"/>
      <point x="320" y="144" type="line"/>
      <point x="368" y="144" type="line"/>
      <point x="368" y="492" type="line"/>
      <point x="363" y="612" type="line"/>
      <point x="364" y="612" type="line"/>
      <point x="605" y="0" type="line"/>
    </contour>
    <contour>
      <point x="173" y="364" type="line"/>
      <point x="106" y="377"/>
      <point x="60" y="421"/>
      <point x="60" y="490" type="curve" smooth="yes"/>
      <point x="60" y="579"/>
      <point x="118" y="619"/>
      <point x="214" y="619" type="curve" smooth="yes"/>
      <point x="381" y="619" type="line"/>
      <point x="381" y="660" type="line"/>
      <point x="202" y="660" type="line" smooth="yes"/>
      <point x="82" y="660"/>
      <point x="10" y="600"/>
      <point x="10" y="491" type="curve" smooth="yes"/>
      <point x="10" y="398"/>
      <point x="72" y="339"/>
      <point x="152" y="325" type="curve"/>
    </contour>
    <component base="swash_bttmleft" xOffset="42"/>
  </outline>
</glyph>
<glyph name="N.swsh" format="2">
  <advance width="715"/>
  <anchor x="588" y="0" name="bottomC"/>
  <anchor x="363" y="660" name="top"/>
  <anchor x="611" y="0" name="ogonek"/>
  <anchor x="374" y="0" name="bottom"/>
  <outline>
    <contour>
      <point x="152" y="0" type="line"/>
      <point x="152" y="523" type="line"/>
      <point x="149" y="606" type="line"/>
      <point x="150" y="606" type="line"/>
      <point x="199" y="518" type="line"/>
      <point x="549" y="0" type="line"/>
      <point x="611" y="0" type="line"/>
      <point x="611" y="477" type="line"/>
      <point x="564" y="477" type="line"/>
      <point x="564" y="137" type="line"/>
      <point x="566" y="54" type="line"/>
      <point x="566" y="54" type="line"/>
      <point x="516" y="143" type="line"/>
      <point x="167" y="660" type="line"/>
      <point x="104" y="660" type="line"/>
      <point x="104" y="0" type="line"/>
    </contour>
    <contour>
      <point x="611" y="423" type="line"/>
      <point x="611" y="548" type="line" smooth="yes"/>
      <point x="611" y="639"/>
      <point x="658" y="692"/>
      <point x="736" y="692" type="curve" smooth="yes"/>
      <point x="809" y="692"/>
      <point x="847" y="659"/>
      <point x="858" y="585" type="curve"/>
      <point x="895" y="611" type="line"/>
      <point x="884" y="690"/>
      <point x="832" y="735"/>
      <point x="736" y="735" type="curve" smooth="yes"/>
      <point x="625" y="735"/>
      <point x="564" y="663"/>
      <point x="564" y="559" type="curve" smooth="yes"/>
      <point x="564" y="423" type="line"/>
    </contour>
  </outline>
</glyph>
<glyph name="Odieresis.titl" format="2">
  <advance width="732"/>
  <outline>
    <contour>
      <point x="259" y="540" type="curve" smooth="yes"/>
      <point x="259" y="516"/>
      <point x="275" y="500"/>
      <point x="298" y="500" type="curve" smooth="yes"/>
      <point x="321" y="500"/>
      <point x="337" y="516"/>
      <point x="337" y="540" type="curve" smooth="yes"/>
      <point x="337" y="563"/>
      <point x="321" y="579"/>
      <point x="298" y="579" type="curve" smooth="yes"/>
      <point x="275" y="579"/>
      <point x="259" y="563"/>
    </contour>
    <contour>
      <point x="395" y="540" type="curve" smooth="yes"/>
      <point x="395" y="516"/>
      <point x="411" y="500"/>
      <point x="434" y="500" type="curve" smooth="yes"/>
      <point x="458" y="500"/>
      <point x="473" y="516"/>
      <point x="473" y="540" type="curve" smooth="yes"/>
      <point x="473" y="563"/>
      <point x="458" y="579"/>
      <point x="434" y="579" type="curve" smooth="yes"/>
      <point x="411" y="579"/>
      <point x="395" y="563"/>
    </contour>
    <contour>
      <point x="62" y="330" type="curve" smooth="yes"/>
      <point x="62" y="121"/>
      <point x="179" y="-10"/>
      <point x="366" y="-10" type="curve" smooth="yes"/>
      <point x="553" y="-10"/>
      <point x="670" y="121"/>
      <point x="670" y="330" type="curve" smooth="yes"/>
      <point x="670" y="539"/>
      <point x="553" y="670"/>
      <point x="366" y="670" type="curve" smooth="yes"/>
      <point x="179" y="670"/>
      <point x="62" y="539"/>
    </contour>
    <contour>
      <point x="618" y="330" type="curve" smooth="yes"/>
      <point x="618" y="148"/>
      <point x="521" y="36"/>
      <point x="366" y="36" type="curve" smooth="yes"/>
      <point x="211" y="36"/>
      <point x="115" y="148"/>
      <point x="115" y="330" type="curve" smooth="yes"/>
      <point x="115" y="512"/>
      <point x="211" y="624"/>
      <point x="366" y="624" type="curve" smooth="yes"/>
      <point x="521" y="624"/>
      <point x="618" y="512"/>
    </contour>
  </outline>
</glyph>
<glyph name="R.swsh.001" format="2">
  <advance width="675"/>
  <anchor x="658" y="-80" name="bottomC"/>
  <anchor x="308" y="660" name="top"/>
  <anchor x="650" y="-91" name="ogonek"/>
  <anchor x="356" y="0" name="bottom"/>
  <outline>
    <contour>
      <point x="349" y="286" type="line" smooth="yes"/>
      <point x="480" y="286"/>
      <point x="565" y="357"/>
      <point x="565" y="473" type="curve" smooth="yes"/>
      <point x="565" y="589"/>
      <point x="480" y="660"/>
      <point x="349" y="660" type="curve" smooth="yes"/>
      <point x="129" y="660" type="line"/>
      <point x="129" y="614" type="line"/>
      <point x="348" y="614" type="line" smooth="yes"/>
      <point x="455" y="614"/>
      <point x="513" y="564"/>
      <point x="513" y="473" type="curve" smooth="yes"/>
      <point x="513" y="382"/>
      <point x="455" y="333"/>
      <point x="348" y="333" type="curve" smooth="yes"/>
      <point x="129" y="333" type="line"/>
      <point x="129" y="286" type="line"/>
    </contour>
    <contour>
      <point x="154" y="0" type="line"/>
      <point x="154" y="660" type="line"/>
      <point x="104" y="660" type="line"/>
      <point x="104" y="0" type="line"/>
    </contour>
    <contour>
      <point x="675" y="-60" type="line"/>
      <point x="628" y="-46"/>
      <point x="575" y="2"/>
      <point x="550" y="37" type="curve" smooth="yes"/>
      <point x="351" y="323" type="line"/>
      <point x="314" y="296" type="line"/>
      <point x="503" y="23" type="line" smooth="yes"/>
      <point x="533" y="-21"/>
      <point x="564" y="-58"/>
      <point x="649" y="-94" type="curve"/>
    </contour>
  </outline>
</glyph>
<glyph name="Udieresis.titl" format="2">
  <advance width="701"/>
  <outline>
    <contour>
      <point x="463" y="623" type="curve" smooth="yes"/>
      <point x="463" y="646"/>
      <point x="447" y="662"/>
      <point x="424" y="662" type="curve" smooth="yes"/>
      <point x="400" y="662"/>
      <point x="384" y="646"/>
      <point x="384" y="623" type="curve" smooth="yes"/>
      <point x="384" y="599"/>
      <point x="400" y="583"/>
      <point x="424" y="583" type="curve" smooth="yes"/>
      <point x="447" y="583"/>
      <point x="463" y="599"/>
    </contour>
    <contour>
      <point x="316" y="623" type="curve" smooth="yes"/>
      <point x="316" y="646"/>
      <point x="300" y="662"/>
      <point x="277" y="662" type="curve" smooth="yes"/>
      <point x="254" y="662"/>
      <point x="238" y="646"/>
      <point x="238" y="623" type="curve" smooth="yes"/>
      <point x="238" y="599"/>
      <point x="254" y="583"/>
      <point x="277" y="583" type="curve" smooth="yes"/>
      <point x="300" y="583"/>
      <point x="316" y="599"/>
    </contour>
    <contour>
      <point x="555" y="660" type="line"/>
      <point x="555" y="251" type="line" smooth="yes"/>
      <point x="555" y="109"/>
      <point x="484" y="36"/>
      <point x="351" y="36" type="curve" smooth="yes"/>
      <point x="217" y="36"/>
      <point x="146" y="109"/>
      <point x="146" y="251" type="curve" smooth="yes"/>
      <point x="146" y="660" type="line"/>
      <point x="96" y="660" type="line"/>
      <point x="96" y="241" type="line" smooth="yes"/>
      <point x="96" y="77"/>
      <point x="189" y="-10"/>
      <point x="351" y="-10" type="curve" smooth="yes"/>
      <point x="512" y="-10"/>
      <point x="605" y="77"/>
      <point x="605" y="241" type="curve" smooth="yes"/>
      <point x="605" y="660" type="line"/>
    </contour>
  </outline>
</glyph>
<glyph name="Ydieresis.titl" format="2">
  <advance width="544"/>
  <outline>
    <contour>
      <point x="376" y="631" type="curve" smooth="yes"/>
      <point x="376" y="654"/>
      <point x="360" y="670"/>
      <point x="337" y="670" type="curve" smooth="yes"/>
      <point x="314" y="670"/>
      <point x="297" y="654"/>
      <point x="297" y="631" type="curve" smooth="yes"/>
      <point x="297" y="608"/>
      <point x="314" y="591"/>
      <point x="337" y="591" type="curve" smooth="yes"/>
      <point x="360" y="591"/>
      <point x="376" y="608"/>
    </contour>
    <contour>
      <point x="245" y="631" type="curve" smooth="yes"/>
      <point x="245" y="654"/>
      <point x="229" y="670"/>
      <point x="206" y="670" type="curve" smooth="yes"/>
      <point x="183" y="670"/>
      <point x="167" y="654"/>
      <point x="167" y="631" type="curve" smooth="yes"/>
      <point x="167" y="608"/>
      <point x="183" y="591"/>
      <point x="206" y="591" type="curve" smooth="yes"/>
      <point x="229" y="591"/>
      <point x="245" y="608"/>
    </contour>
    <contour>
      <point x="472" y="660" type="line"/>
      <point x="343" y="434" type="line"/>
      <point x="272" y="309" type="line"/>
      <point x="201" y="434" type="line"/>
      <point x="72" y="660" type="line"/>
      <point x="13" y="660" type="line"/>
      <point x="247" y="257" type="line"/>
      <point x="247" y="0" type="line"/>
      <point x="297" y="0" type="line"/>
      <point x="297" y="257" type="line"/>
      <point x="531" y="660" type="line"/>
    </contour>
  </outline>
</glyph>
<glyph name="acutecmb.cap" format="2">
  <anchor x="0" y="660" name="_top"/>
  <outline>
    <contour>
      <point x="-23" y="743" type="line"/>
      <point x="18" y="743" type="line"/>
      <point x="100" y="897" type="line"/>
      <point x="47" y="897" type="line"/>
    </contour>
  </outline>
</glyph>
<glyph name="adieresis.titl.sc" format="2">
  <advance width="561"/>
  <outline>
    <contour>
      <point x="197" y="528" type="curve" smooth="yes"/>
      <point x="197" y="550"/>
      <point x="182" y="565"/>
      <point x="159" y="565" type="curve" smooth="yes"/>
      <point x="136" y="565"/>
      <point x="121" y="550"/>
      <point x="121" y="528" type="curve" smooth="yes"/>
      <point x="121" y="507"/>
      <point x="136" y="492"/>
      <point x="159" y="492" type="curve" smooth="yes"/>
      <point x="182" y="492"/>
      <point x="197" y="507"/>
    </contour>
    <contour>
      <point x="444" y="528" type="curve" smooth="yes"/>
      <point x="444" y="550"/>
      <point x="428" y="565"/>
      <point x="406" y="565" type="curve" smooth="yes"/>
      <point x="383" y="565"/>
      <point x="368" y="550"/>
      <point x="368" y="528" type="curve" smooth="yes"/>
      <point x="368" y="507"/>
      <point x="383" y="492"/>
      <point x="406" y="492" type="curve" smooth="yes"/>
      <point x="428" y="492"/>
      <point x="444" y="507"/>
    </contour>
    <contour>
      <point x="73" y="0" type="line"/>
      <point x="262" y="456" type="line"/>
      <point x="282" y="514" type="line"/>
      <point x="283" y="514" type="line"/>
      <point x="303" y="456" type="line"/>
      <point x="492" y="0" type="line"/>
      <point x="545" y="0" type="line"/>
      <point x="312" y="560" type="line"/>
      <point x="253" y="560" type="line"/>
      <point x="20" y="0" type="line"/>
    </contour>
    <contour>
      <point x="438" y="174" type="line"/>
      <point x="438" y="217" type="line"/>
      <point x="126" y="217" type="line"/>
      <point x="126" y="174" type="line"/>
    </contour>
  </outline>
</glyph>
<glyph name="ampersand.sc" format="2">
  <advance width="539"/>
  <outline>
    <contour>
      <point x="540" y="28" type="line"/>
      <point x="480" y="26"/>
      <point x="447" y="60"/>
      <point x="311" y="222" type="curve" smooth="yes"/>
      <point x="180" y="378"/>
      <point x="163" y="397"/>
      <point x="163" y="445" type="curve" smooth="yes"/>
      <point x="163" y="493"/>
      <point x="197" y="527"/>
      <point x="252" y="527" type="curve" smooth="yes"/>
      <point x="306" y="527"/>
      <point x="340" y="501"/>
      <point x="340" y="454" type="curve" smooth="yes"/>
      <point x="340" y="407"/>
      <point x="321" y="370"/>
      <point x="213" y="315" type="curve"/>
      <point x="101" y="259"/>
      <point x="43" y="211"/>
      <point x="43" y="127" type="curve" smooth="yes"/>
      <point x="43" y="44"/>
      <point x="118" y="-8"/>
      <point x="221" y="-8" type="curve" smooth="yes"/>
      <point x="306" y="-8"/>
      <point x="369" y="24"/>
      <point x="412" y="75" type="curve"/>
      <point x="462" y="136"/>
      <point x="483" y="220"/>
      <point x="482" y="302" type="curve"/>
      <point x="444" y="310" type="line"/>
      <point x="446" y="222"/>
      <point x="426" y="151"/>
      <point x="383" y="102" type="curve"/>
      <point x="346" y="56"/>
      <point x="291" y="29"/>
      <point x="220" y="29" type="curve" smooth="yes"/>
      <point x="148" y="29"/>
      <point x="88" y="68"/>
      <point x="88" y="131" type="curve" smooth="yes"/>
      <point x="88" y="196"/>
      <point x="135" y="232"/>
      <point x="236" y="285" type="curve"/>
      <point x="356" y="347"/>
      <point x="384" y="393"/>
      <point x="384" y="457" type="curve" smooth="yes"/>
      <point x="384" y="528"/>
      <point x="328" y="567"/>
      <point x="252" y="567" type="curve" smooth="yes"/>
      <point x="166" y="567"/>
      <point x="118" y="512"/>
      <point x="118" y="446" type="curve" smooth="yes"/>
      <point x="118" y="383"/>
      <point x="153" y="345"/>
      <point x="282" y="194" type="curve" smooth="yes"/>
      <point x="424" y="27"/>
      <point x="462" y="-8"/>
      <point x="531" y="-8" type="curve"/>
    </contour>
  </outline>
</glyph>
<glyph name="aogonek_j" format="2">
  <advance width="772"/>
  <outline>
    <contour>
      <point x="61" y="388" type="curve"/>
      <point x="99" y="360" type="line"/>
      <point x="128" y="432"/>
      <point x="181" y="466"/>
      <point x="259" y="466" type="curve" smooth="yes"/>
      <point x="347" y="466"/>
      <point x="395" y="417"/>
      <point x="395" y="338" type="curve" smooth="yes"/>
      <point x="395" y="121" type="line"/>
      <point x="395" y="98" type="line" smooth="yes"/>
      <point x="395" y="10"/>
      <point x="449" y="-10"/>
      <point x="484" y="-10" type="curve" smooth="yes"/>
      <point x="492" y="-10"/>
      <point x="520" y="-3"/>
      <point x="527" y="0" type="curve"/>
      <point x="530" y="40" type="line"/>
      <point x="520" y="35"/>
      <point x="505" y="33"/>
      <point x="491" y="33" type="curve" smooth="yes"/>
      <point x="461" y="33"/>
      <point x="445" y="50"/>
      <point x="445" y="86" type="curve" smooth="yes"/>
      <point x="445" y="344" type="line" smooth="yes"/>
      <point x="445" y="455"/>
      <point x="372" y="510"/>
      <point x="259" y="510" type="curve" smooth="yes"/>
      <point x="160" y="510"/>
      <point x="90" y="466"/>
    </contour>
    <contour>
      <point x="242" y="267" type="line" smooth="yes"/>
      <point x="112" y="244"/>
      <point x="52" y="193"/>
      <point x="52" y="117" type="curve" smooth="yes"/>
      <point x="52" y="34"/>
      <point x="119" y="-10"/>
      <point x="215" y="-10" type="curve" smooth="yes"/>
      <point x="308" y="-10"/>
      <point x="411" y="40"/>
      <point x="411" y="132" type="curve"/>
      <point x="395" y="160" type="line"/>
      <point x="395" y="76"/>
      <point x="299" y="34"/>
      <point x="220" y="34" type="curve" smooth="yes"/>
      <point x="147" y="34"/>
      <point x="103" y="64"/>
      <point x="103" y="117" type="curve" smooth="yes"/>
      <point x="103" y="173"/>
      <point x="150" y="207"/>
      <point x="258" y="228" type="curve" smooth="yes"/>
      <point x="423" y="258" type="line"/>
      <point x="416" y="298" type="line"/>
    </contour>
    <contour>
      <point x="329" y="-127" type="curve" smooth="yes"/>
      <point x="329" y="-177"/>
      <point x="368" y="-209"/>
      <point x="423" y="-209" type="curve" smooth="yes"/>
      <point x="451" y="-209"/>
      <point x="467" y="-204"/>
      <point x="483" y="-193" type="curve"/>
      <point x="479" y="-159" type="line"/>
      <point x="467" y="-168"/>
      <point x="452" y="-172"/>
      <point x="434" y="-172" type="curve" smooth="yes"/>
      <point x="396" y="-172"/>
      <point x="371" y="-152"/>
      <point x="371" y="-119" type="curve" smooth="yes"/>
      <point x="371" y="-65"/>
      <point x="434" y="-29"/>
      <point x="527" y="0" type="curve"/>
      <point x="495" y="15" type="line"/>
      <point x="398" y="-16"/>
      <point x="329" y="-55"/>
    </contour>
    <contour>
      <point x="632" y="500" type="line"/>
      <point x="632" y="-67" type="line" smooth="yes"/>
      <point x="632" y="-139"/>
      <point x="615" y="-167"/>
      <point x="575" y="-167" type="curve" smooth="yes"/>
      <point x="551" y="-167"/>
      <point x="538" y="-164"/>
      <point x="524" y="-154" type="curve"/>
      <point x="514" y="-201" type="line"/>
      <point x="531" y="-211"/>
      <point x="549" y="-215"/>
      <point x="576" y="-215" type="curve" smooth="yes"/>
      <point x="637" y="-215"/>
      <point x="682" y="-177"/>
      <point x="682" y="-71" type="curve" smooth="yes"/>
      <point x="682" y="500" type="line"/>
    </contour>
    <contour>
      <point x="615" y="639" type="curve" smooth="yes"/>
      <point x="615" y="616"/>
      <point x="634" y="597"/>
      <point x="657" y="597" type="curve" smooth="yes"/>
      <point x="681" y="597"/>
      <point x="699" y="616"/>
      <point x="699" y="639" type="curve" smooth="yes"/>
      <point x="699" y="663"/>
      <point x="681" y="681"/>
      <point x="657" y="681" type="curve" smooth="yes"/>
      <point x="634" y="681"/>
      <point x="615" y="663"/>
    </contour>
  </outline>
</glyph>
<glyph name="b.sc" format="2">
  <advance width="570"/>
  <anchor x="267" y="0" name="bottomC"/>
  <anchor x="283" y="560" name="top"/>
  <anchor x="308" y="0" name="ogonek"/>
  <anchor x="283" y="0" name="bottom"/>
  <outline>
    <contour>
      <point x="308" y="0" type="line" smooth="yes"/>
      <point x="442" y="0"/>
      <point x="514" y="54"/>
      <point x="514" y="149" type="curve" smooth="yes"/>
      <point x="514" y="218"/>
      <point x="472" y="274"/>
      <point x="390" y="283" type="curve"/>
      <point x="390" y="284" type="line"/>
      <point x="458" y="297"/>
      <point x="497" y="346"/>
      <point x="497" y="412" type="curve" smooth="yes"/>
      <point x="497" y="507"/>
      <point x="436" y="560"/>
      <point x="308" y="560" type="curve" smooth="yes"/>
      <point x="92" y="560" type="line"/>
      <point x="92" y="0" type="line"/>
    </contour>
    <contour>
      <point x="142" y="261" type="line"/>
      <point x="315" y="261" type="line" smooth="yes"/>
      <point x="413" y="261"/>
      <point x="464" y="224"/>
      <point x="464" y="152" type="curve" smooth="yes"/>
      <point x="464" y="80"/>
      <point x="413" y="43"/>
      <point x="315" y="43" type="curve" smooth="yes"/>
      <point x="142" y="43" type="line"/>
    </contour>
    <contour>
      <point x="142" y="517" type="line"/>
      <point x="311" y="517" type="line" smooth="yes"/>
      <point x="400" y="517"/>
      <point x="447" y="481"/>
      <point x="447" y="410" type="curve" smooth="yes"/>
      <point x="447" y="338"/>
      <point x="400" y="303"/>
      <point x="311" y="303" type="curve" smooth="yes"/>
      <point x="142" y="303" type="line"/>
    </contour>
  </outline>
</glyph>
<glyph name="blackCircle.case" format="2">
  <advance width="724"/>
  <outline>
    <contour>
      <point x="662" y="330" type="curve" smooth="yes"/>
      <point x="662" y="502"/>
      <point x="533" y="630"/>
      <point x="362" y="630" type="curve" smooth="yes"/>
      <point x="190" y="630"/>
      <point x="62" y="502"/>
      <point x="62" y="330" type="curve" smooth="yes"/>
      <point x="62" y="159"/>
      <point x="190" y="30"/>
      <point x="362" y="30" type="curve" smooth="yes"/>
      <point x="533" y="30"/>
      <point x="662" y="159"/>
    </contour>
  </outline>
</glyph>
<glyph name="bowl" format="2">
  <advance width="628"/>
  <outline>
    <contour>
      <point x="101" y="250" type="curve" smooth="yes"/>
      <point x="101" y="87"/>
      <point x="188" y="-10"/>
      <point x="329" y="-10" type="curve" smooth="yes"/>
      <point x="449" y="-10"/>
      <point x="529" y="73"/>
      <point x="529" y="194" type="curve"/>
      <point x="513" y="245" type="line"/>
      <point x="513" y="114"/>
      <point x="442" y="34"/>
      <point x="335" y="34" type="curve" smooth="yes"/>
      <point x="219" y="34"/>
      <point x="151" y="116"/>
      <point x="151" y="250" type="curve" smooth="yes"/>
      <point x="151" y="384"/>
      <point x="219" y="466"/>
      <point x="335" y="466" type="curve" smooth="yes"/>
      <point x="443" y="466"/>
      <point x="513" y="385"/>
      <point x="513" y="255" type="curve"/>
      <point x="530" y="304" type="line"/>
      <point x="530" y="426"/>
      <point x="449" y="510"/>
      <point x="329" y="510" type="curve" smooth="yes"/>
      <point x="188" y="510"/>
      <point x="101" y="413"/>
    </contour>
  </outline>
</glyph>
<glyph name="bracketleft.case" format="2">
  <advance width="311"/>
  <outline>
    <contour>
      <point x="82" y="752" type="line"/>
      <point x="82" y="-97" type="line"/>
      <point x="129" y="-97" type="line"/>
      <point x="129" y="752" type="line"/>
    </contour>
    <contour>
      <point x="107" y="-53" type="line"/>
      <point x="107" y="-97" type="line"/>
      <point x="288" y="-97" type="line"/>
      <point x="288" y="-53" type="line"/>
    </contour>
    <contour>
      <point x="107" y="752" type="line"/>
      <point x="107" y="708" type="line"/>
      <point x="288" y="708" type="line"/>
      <point x="288" y="752" type="line"/>
    </contour>
  </outline>
</glyph>
<glyph name="c_t" format="2">
  <advance width="868"/>
  <outline>
    <contour>
      <point x="499" y="138" type="curve"/>
      <point x="454" y="153" type="line"/>
      <point x="437" y="78"/>
      <point x="373" y="34"/>
      <point x="291" y="34" type="curve" smooth="yes"/>
      <point x="174" y="34"/>
      <point x="107" y="115"/>
      <point x="107" y="250" type="curve" smooth="yes"/>
      <point x="107" y="385"/>
      <point x="176" y="466"/>
      <point x="292" y="466" type="curve" smooth="yes"/>
      <point x="371" y="466"/>
      <point x="426" y="425"/>
      <point x="448" y="353" type="curve"/>
      <point x="495" y="375" type="line"/>
      <point x="458" y="452"/>
      <point x="433" y="515"/>
      <point x="433" y="573" type="curve" smooth="yes"/>
      <point x="433" y="661"/>
      <point x="472" y="690"/>
      <point x="522" y="690" type="curve" smooth="yes"/>
      <point x="579" y="690"/>
      <point x="612" y="651"/>
      <point x="612" y="561" type="curve" smooth="yes"/>
      <point x="612" y="125" type="line" smooth="yes"/>
      <point x="612" y="32"/>
      <point x="665" y="-10"/>
      <point x="743" y="-10" type="curve" smooth="yes"/>
      <point x="791" y="-10"/>
      <point x="830" y="7"/>
      <point x="856" y="32" type="curve"/>
      <point x="837" y="73" type="line"/>
      <point x="814" y="49"/>
      <point x="787" y="36"/>
      <point x="751" y="36" type="curve" smooth="yes"/>
      <point x="694" y="36"/>
      <point x="662" y="69"/>
      <point x="662" y="132" type="curve" smooth="yes"/>
      <point x="662" y="582" type="line" smooth="yes"/>
      <point x="662" y="685"/>
      <point x="605" y="733"/>
      <point x="525" y="733" type="curve" smooth="yes"/>
      <point x="450" y="733"/>
      <point x="388" y="690"/>
      <point x="388" y="580" type="curve" smooth="yes"/>
      <point x="388" y="527"/>
      <point x="402" y="486"/>
      <point x="427" y="443" type="curve"/>
      <point x="438" y="452" type="line"/>
      <point x="405" y="491"/>
      <point x="356" y="510"/>
      <point x="293" y="510" type="curve" smooth="yes"/>
      <point x="145" y="510"/>
      <point x="57" y="412"/>
      <point x="57" y="250" type="curve" smooth="yes"/>
      <point x="57" y="88"/>
      <point x="144" y="-10"/>
      <point x="292" y="-10" type="curve" smooth="yes"/>
      <point x="395" y="-10"/>
      <point x="474" y="46"/>
    </contour>
    <contour>
      <point x="851" y="457" type="line"/>
      <point x="851" y="500" type="line"/>
      <point x="628" y="500" type="line"/>
      <point x="628" y="457" type="line"/>
    </contour>
  </outline>
</glyph>
<glyph name="caron.alt" format="2">
  <advance width="250"/>
  <anchor x="89" y="730" name="_topright"/>
  <outline>
    <contour>
      <point x="89" y="730" type="line"/>
      <point x="67" y="533" type="line"/>
      <point x="102" y="533" type="line"/>
      <point x="138" y="730" type="line"/>
    </contour>
  </outline>
</glyph>
<glyph name="d.sc" format="2">
  <advance width="629"/>
  <anchor x="258" y="0" name="bottomC"/>
  <anchor x="285" y="560" name="top"/>
  <anchor x="282" y="0" name="ogonek"/>
  <anchor x="305" y="259" name="center"/>
  <anchor x="285" y="0" name="bottom"/>
  <outline>
    <contour>
      <point x="120" y="560" type="line"/>
      <point x="120" y="517" type="line"/>
      <point x="285" y="517" type="line" smooth="yes"/>
      <point x="440" y="517"/>
      <point x="523" y="435"/>
      <point x="523" y="284" type="curve" smooth="yes"/>
      <point x="523" y="128"/>
      <point x="440" y="43"/>
      <point x="285" y="43" type="curve" smooth="yes"/>
      <point x="120" y="43" type="line"/>
      <point x="120" y="0" type="line"/>
      <point x="282" y="0" type="line" smooth="yes"/>
      <point x="469" y="0"/>
      <point x="573" y="100"/>
      <point x="573" y="284" type="curve" smooth="yes"/>
      <point x="573" y="463"/>
      <point x="469" y="560"/>
      <point x="282" y="560" type="curve" smooth="yes"/>
    </contour>
    <contour>
      <point x="92" y="560" type="line"/>
      <point x="92" y="0" type="line"/>
      <point x="142" y="0" type="line"/>
      <point x="142" y="560" type="line"/>
    </contour>
  </outline>
</glyph>
<glyph name="dollar.001" format="2">
  <advance width="578"/>
  <outline>
    <contour>
      <point x="274" y="327" type="curve" smooth="yes"/>
      <point x="274" y="316"/>
      <point x="286" y="310"/>
      <point x="286" y="322" type="curve" smooth="yes"/>
      <point x="286" y="323"/>
      <point x="289" y="338"/>
      <point x="294" y="338" type="curve" smooth="yes"/>
      <point x="299" y="338"/>
      <point x="287" y="348"/>
      <point x="290" y="346" type="curve"/>
      <point x="257" y="331" type="line"/>
      <point x="263" y="320"/>
      <point x="276" y="309"/>
      <point x="293" y="309" type="curve" smooth="yes"/>
      <point x="305" y="309"/>
      <point x="318" y="308"/>
      <point x="318" y="326" type="curve" smooth="yes"/>
      <point x="318" y="339"/>
      <point x="307" y="343"/>
      <point x="307" y="330" type="curve" smooth="yes"/>
      <point x="307" y="323"/>
      <point x="294" y="321"/>
      <point x="297" y="321" type="curve" smooth="yes"/>
      <point x="293" y="321"/>
      <point x="273" y="330"/>
      <point x="283" y="333" type="curve"/>
      <point x="310" y="356" type="line"/>
      <point x="296" y="355"/>
      <point x="304" y="351"/>
      <point x="297" y="351" type="curve" smooth="yes"/>
      <point x="281" y="351"/>
      <point x="274" y="337"/>
    </contour>
    <contour>
      <point x="283" y="-37" type="line"/>
      <point x="283" y="-49" type="line"/>
      <point x="312" y="-49" type="line"/>
      <point x="312" y="-37" type="line"/>
    </contour>
    <contour>
      <point x="318" y="637" type="line"/>
      <point x="318" y="769" type="line"/>
      <point x="276" y="769" type="line"/>
      <point x="276" y="637" type="line"/>
    </contour>
  </outline>
</glyph>
<glyph name="dollar.tf" format="2">
  <advance width="604"/>
  <outline>
    <contour>
      <point x="88" y="477" type="curve" smooth="yes"/>
      <point x="88" y="240"/>
      <point x="498" y="370"/>
      <point x="498" y="171" type="curve" smooth="yes"/>
      <point x="498" y="84"/>
      <point x="423" y="42"/>
      <point x="321" y="42" type="curve" smooth="yes"/>
      <point x="221" y="42"/>
      <point x="133" y="99"/>
      <point x="115" y="195" type="curve"/>
      <point x="68" y="171" type="line"/>
      <point x="100" y="60"/>
      <point x="192" y="0"/>
      <point x="320" y="0" type="curve" smooth="yes"/>
      <point x="455" y="0"/>
      <point x="545" y="69"/>
      <point x="545" y="175" type="curve" smooth="yes"/>
      <point x="545" y="415"/>
      <point x="136" y="283"/>
      <point x="136" y="481" type="curve" smooth="yes"/>
      <point x="136" y="562"/>
      <point x="199" y="617"/>
      <point x="311" y="617" type="curve" smooth="yes"/>
      <point x="412" y="617"/>
      <point x="468" y="579"/>
      <point x="500" y="484" type="curve"/>
      <point x="540" y="516" type="line"/>
      <point x="500" y="615"/>
      <point x="429" y="660"/>
      <point x="310" y="660" type="curve" smooth="yes"/>
      <point x="171" y="660"/>
      <point x="88" y="576"/>
    </contour>
    <contour>
      <point x="292" y="760" type="line"/>
      <point x="292" y="-100" type="line"/>
      <point x="335" y="-100" type="line"/>
      <point x="335" y="760" type="line"/>
    </contour>
  </outline>
</glyph>
<glyph name="eight.osf" format="2">
  <advance width="577"/>
  <outline>
    <contour>
      <point x="86" y="502" type="curve" smooth="yes"/>
      <point x="86" y="426"/>
      <point x="130" y="370"/>
      <point x="201" y="348" type="curve"/>
      <point x="201" y="347" type="line"/>
      <point x="113" y="324"/>
      <point x="57" y="260"/>
      <point x="57" y="174" type="curve" smooth="yes"/>
      <point x="57" y="63"/>
      <point x="151" y="-10"/>
      <point x="288" y="-10" type="curve" smooth="yes"/>
      <point x="427" y="-10"/>
      <point x="520" y="63"/>
      <point x="520" y="174" type="curve" smooth="yes"/>
      <point x="520" y="260"/>
      <point x="464" y="324"/>
      <point x="376" y="347" type="curve"/>
      <point x="376" y="348" type="line"/>
      <point x="448" y="370"/>
      <point x="491" y="426"/>
      <point x="491" y="502" type="curve" smooth="yes"/>
      <point x="491" y="604"/>
      <point x="411" y="669"/>
      <point x="288" y="669" type="curve" smooth="yes"/>
      <point x="165" y="669"/>
      <point x="86" y="604"/>
    </contour>
    <contour>
      <point x="441" y="499" type="curve" smooth="yes"/>
      <point x="441" y="420"/>
      <point x="381" y="369"/>
      <point x="288" y="369" type="curve" smooth="yes"/>
      <point x="196" y="369"/>
      <point x="136" y="420"/>
      <point x="136" y="499" type="curve" smooth="yes"/>
      <point x="136" y="578"/>
      <point x="196" y="627"/>
      <point x="288" y="627" type="curve" smooth="yes"/>
      <point x="381" y="627"/>
      <point x="441" y="578"/>
    </contour>
    <contour>
      <point x="107" y="178" type="curve" smooth="yes"/>
      <point x="107" y="266"/>
      <point x="179" y="325"/>
      <point x="288" y="325" type="curve" smooth="yes"/>
      <point x="398" y="325"/>
      <point x="470" y="266"/>
      <point x="470" y="178" type="curve" smooth="yes"/>
      <point x="470" y="90"/>
      <point x="398" y="33"/>
      <point x="288" y="33" type="curve" smooth="yes"/>
      <point x="179" y="33"/>
      <point x="107" y="90"/>
    </contour>
  </outline>
</glyph>
<glyph name="emdashsuperior" format="2">
  <advance width="629"/>
  <outline>
    <contour>
      <point x="49" y="547" type="line"/>
      <point x="49" y="515" type="line"/>
      <point x="581" y="515" type="line"/>
      <point x="581" y="547" type="line"/>
    </contour>
  </outline>
</glyph>
<glyph name="endashsuperior" format="2">
  <advance width="411"/>
  <outline>
    <contour>
      <point x="49" y="547" type="line"/>
      <point x="49" y="515" type="line"/>
      <point x="362" y="515" type="line"/>
      <point x="362" y="547" type="line"/>
    </contour>
  </outline>
</glyph>
<glyph name="euro.part" format="2">
  <advance width="676"/>
  <outline>
    <contour>
      <point x="130" y="330" type="curve" smooth="yes"/>
      <point x="130" y="119"/>
      <point x="229" y="-10"/>
      <point x="399" y="-10" type="curve" smooth="yes"/>
      <point x="502" y="-10"/>
      <point x="597" y="53"/>
      <point x="630" y="169" type="curve"/>
      <point x="585" y="187" type="line"/>
      <point x="559" y="85"/>
      <point x="481" y="34"/>
      <point x="400" y="34" type="curve" smooth="yes"/>
      <point x="263" y="34"/>
      <point x="180" y="146"/>
      <point x="180" y="330" type="curve" smooth="yes"/>
      <point x="180" y="514"/>
      <point x="266" y="626"/>
      <point x="401" y="626" type="curve" smooth="yes"/>
      <point x="486" y="626"/>
      <point x="550" y="582"/>
      <point x="576" y="499" type="curve"/>
      <point x="620" y="522" type="line"/>
      <point x="587" y="618"/>
      <point x="506" y="670"/>
      <point x="397" y="670" type="curve" smooth="yes"/>
      <point x="230" y="670"/>
      <point x="130" y="541"/>
    </contour>
  </outline>
</glyph>
<glyph name="exclam.sc" format="2">
  <advance width="209"/>
  <outline>
    <contour>
      <point x="79" y="560" type="line"/>
      <point x="79" y="294" type="line"/>
      <point x="85" y="160" type="line"/>
      <point x="125" y="160" type="line"/>
      <point x="131" y="294" type="line"/>
      <point x="131" y="560" type="line"/>
    </contour>
    <component base="period" xScale="0.968125" yScale="0.9575" xOffset="-1"/>
  </outline>
</glyph>
<glyph name="f.sc" format="2">
  <advance width="524"/>
  <anchor x="132" y="0" name="bottomC"/>
  <anchor x="294" y="560" name="top"/>
  <anchor x="142" y="0" name="ogonek"/>
  <anchor x="117" y="0" name="bottom"/>
  <outline>
    <contour>
      <point x="92" y="560" type="line"/>
      <point x="92" y="0" type="line"/>
      <point x="142" y="0" type="line"/>
      <point x="142" y="560" type="line"/>
    </contour>
    <contour>
      <point x="117" y="306" type="line"/>
      <point x="117" y="263" type="line"/>
      <point x="422" y="263" type="line"/>
      <point x="422" y="306" type="line"/>
    </contour>
    <contour>
      <point x="117" y="560" type="line"/>
      <point x="117" y="517" type="line"/>
      <point x="496" y="517" type="line"/>
      <point x="496" y="560" type="line"/>
    </contour>
  </outline>
</glyph>
<glyph name="f_idieresis" format="2">
  <advance width="603"/>
  <outline>
    <contour>
      <point x="173" y="0" type="line"/>
      <point x="173" y="482" type="line"/>
      <point x="173" y="491" type="line"/>
      <point x="173" y="521"/>
      <point x="173" y="550"/>
      <point x="173" y="579" type="curve" smooth="yes"/>
      <point x="173" y="651"/>
      <point x="211" y="690"/>
      <point x="276" y="690" type="curve" smooth="yes"/>
      <point x="303" y="690"/>
      <point x="322" y="683"/>
      <point x="339" y="668" type="curve"/>
      <point x="353" y="708" type="line"/>
      <point x="336" y="725"/>
      <point x="309" y="735"/>
      <point x="272" y="735" type="curve" smooth="yes"/>
      <point x="175" y="735"/>
      <point x="123" y="675"/>
      <point x="123" y="584" type="curve" smooth="yes"/>
      <point x="123" y="552"/>
      <point x="123" y="521"/>
      <point x="123" y="490" type="curve"/>
      <point x="123" y="480" type="line"/>
      <point x="123" y="0" type="line"/>
    </contour>
    <contour>
      <point x="349" y="457" type="line"/>
      <point x="349" y="500" type="line"/>
      <point x="23" y="500" type="line"/>
      <point x="23" y="457" type="line"/>
    </contour>
    <contour>
      <point x="514" y="0" type="line"/>
      <point x="514" y="500" type="line"/>
      <point x="464" y="500" type="line"/>
      <point x="464" y="0" type="line"/>
    </contour>
    <contour>
      <point x="464" y="630" type="curve" smooth="yes"/>
      <point x="464" y="654"/>
      <point x="448" y="671"/>
      <point x="423" y="671" type="curve" smooth="yes"/>
      <point x="399" y="671"/>
      <point x="382" y="654"/>
      <point x="382" y="630" type="curve" smooth="yes"/>
      <point x="382" y="606"/>
      <point x="399" y="590"/>
      <point x="423" y="590" type="curve" smooth="yes"/>
      <point x="448" y="590"/>
      <point x="464" y="606"/>
    </contour>
    <contour>
      <point x="596" y="630" type="curve" smooth="yes"/>
      <point x="596" y="654"/>
      <point x="579" y="671"/>
      <point x="555" y="671" type="curve" smooth="yes"/>
      <point x="530" y="671"/>
      <point x="514" y="654"/>
      <point x="514" y="630" type="curve" smooth="yes"/>
      <point x="514" y="606"/>
      <point x="530" y="590"/>
      <point x="555" y="590" type="curve" smooth="yes"/>
      <point x="579" y="590"/>
      <point x="596" y="606"/>
    </contour>
  </outline>
</glyph>
<glyph name="g.sc" format="2">
  <advance width="627"/>
  <anchor x="325" y="0" name="bottomC"/>
  <anchor x="324" y="560" name="top"/>
  <anchor x="388" y="0" name="ogonek"/>
  <anchor x="349" y="0" name="bottom"/>
  <outline>
    <contour>
      <point x="56" y="280" type="curve" smooth="yes"/>
      <point x="56" y="102"/>
      <point x="160" y="-8"/>
      <point x="320" y="-8" type="curve" smooth="yes"/>
      <point x="465" y="-8"/>
      <point x="539" y="78"/>
      <point x="539" y="212" type="curve"/>
      <point x="516" y="222" type="line"/>
      <point x="516" y="127"/>
      <point x="459" y="35"/>
      <point x="324" y="35" type="curve" smooth="yes"/>
      <point x="189" y="35"/>
      <point x="106" y="127"/>
      <point x="106" y="280" type="curve" smooth="yes"/>
      <point x="106" y="432"/>
      <point x="198" y="525"/>
      <point x="327" y="525" type="curve" smooth="yes"/>
      <point x="422" y="525"/>
      <point x="488" y="485"/>
      <point x="515" y="404" type="curve"/>
      <point x="560" y="428" type="line"/>
      <point x="522" y="523"/>
      <point x="447" y="568"/>
      <point x="326" y="568" type="curve" smooth="yes"/>
      <point x="166" y="568"/>
      <point x="56" y="458"/>
    </contour>
    <contour>
      <point x="320" y="234" type="line"/>
      <point x="516" y="234" type="line"/>
      <point x="516" y="172" type="line"/>
      <point x="520" y="158" type="line"/>
      <point x="523" y="0" type="line"/>
      <point x="563" y="0" type="line"/>
      <point x="563" y="276" type="line"/>
      <point x="320" y="276" type="line"/>
    </contour>
  </outline>
</glyph>
<glyph name="g.sc.ss04" format="2">
  <advance width="616"/>
  <anchor x="321" y="0" name="bottomC"/>
  <anchor x="320" y="560" name="top"/>
  <anchor x="388" y="0" name="ogonek"/>
  <anchor x="337" y="0" name="bottom"/>
  <outline>
    <contour>
      <point x="570" y="251" type="curve" smooth="yes"/>
      <point x="570" y="276" type="line"/>
      <point x="321" y="276" type="line"/>
      <point x="321" y="234" type="line"/>
      <point x="548" y="234" type="line"/>
      <point x="523" y="255" type="line"/>
      <point x="523" y="233" type="line" smooth="yes"/>
      <point x="523" y="150"/>
      <point x="483" y="35"/>
      <point x="327" y="35" type="curve" smooth="yes"/>
      <point x="188" y="35"/>
      <point x="106" y="127"/>
      <point x="106" y="280" type="curve" smooth="yes"/>
      <point x="106" y="432"/>
      <point x="194" y="525"/>
      <point x="324" y="525" type="curve" smooth="yes"/>
      <point x="422" y="525"/>
      <point x="486" y="485"/>
      <point x="512" y="406" type="curve"/>
      <point x="558" y="428" type="line"/>
      <point x="520" y="523"/>
      <point x="446" y="568"/>
      <point x="324" y="568" type="curve" smooth="yes"/>
      <point x="163" y="568"/>
      <point x="56" y="458"/>
      <point x="56" y="280" type="curve" smooth="yes"/>
      <point x="56" y="102"/>
      <point x="160" y="-8"/>
      <point x="322" y="-8" type="curve" smooth="yes"/>
      <point x="496" y="-8"/>
      <point x="570" y="101"/>
    </contour>
  </outline>
</glyph>
<glyph name="g_idieresis" format="2">
  <advance width="744"/>
  <anchor x="633" y="0" name="bottomC"/>
  <anchor x="629" y="500" name="top"/>
  <anchor x="654" y="0" name="ogonek"/>
  <anchor x="629" y="0" name="bottom"/>
  <outline>
    <contour>
      <point x="376" y="465" type="curve"/>
      <point x="409" y="451" type="line"/>
      <point x="408" y="514"/>
      <point x="447" y="548"/>
      <point x="515" y="548" type="curve"/>
      <point x="503" y="592" type="line"/>
      <point x="428" y="592"/>
      <point x="375" y="543"/>
    </contour>
    <component base="gbase" xOffset="-12"/>
    <component base="idieresis" xOffset="515"/>
  </outline>
</glyph>
<glyph name="g_j.liga" format="2">
  <advance width="773"/>
  <outline>
    <contour>
      <point x="376" y="465" type="curve"/>
      <point x="409" y="451" type="line"/>
      <point x="408" y="514"/>
      <point x="447" y="548"/>
      <point x="515" y="548" type="curve"/>
      <point x="503" y="592" type="line"/>
      <point x="428" y="592"/>
      <point x="375" y="543"/>
    </contour>
    <contour>
      <point x="60" y="112" type="curve" smooth="yes"/>
      <point x="60" y="48"/>
      <point x="131" y="8"/>
      <point x="205" y="8" type="curve" smooth="yes"/>
      <point x="334" y="8" type="line" smooth="yes"/>
      <point x="419" y="8"/>
      <point x="461" y="-22"/>
      <point x="461" y="-69" type="curve" smooth="yes"/>
      <point x="461" y="-128"/>
      <point x="388" y="-173"/>
      <point x="273" y="-173" type="curve" smooth="yes"/>
      <point x="148" y="-173"/>
      <point x="81" y="-134"/>
      <point x="81" y="-74" type="curve" smooth="yes"/>
      <point x="81" y="-25"/>
      <point x="129" y="8"/>
      <point x="205" y="8" type="curve"/>
      <point x="186" y="33" type="line"/>
      <point x="95" y="33"/>
      <point x="35" y="-13"/>
      <point x="35" y="-82" type="curve" smooth="yes"/>
      <point x="35" y="-159"/>
      <point x="113" y="-215"/>
      <point x="268" y="-215" type="curve" smooth="yes"/>
      <point x="406" y="-215"/>
      <point x="506" y="-155"/>
      <point x="506" y="-63" type="curve" smooth="yes"/>
      <point x="506" y="6"/>
      <point x="446" y="51"/>
      <point x="345" y="51" type="curve" smooth="yes"/>
      <point x="216" y="51" type="line" smooth="yes"/>
      <point x="142" y="51"/>
      <point x="108" y="78"/>
      <point x="108" y="119" type="curve" smooth="yes"/>
      <point x="108" y="160"/>
      <point x="150" y="191"/>
      <point x="222" y="192" type="curve"/>
      <point x="191" y="215" type="line"/>
      <point x="118" y="213"/>
      <point x="60" y="174"/>
    </contour>
    <contour>
      <point x="62" y="347" type="curve" smooth="yes"/>
      <point x="62" y="248"/>
      <point x="142" y="183"/>
      <point x="265" y="183" type="curve" smooth="yes"/>
      <point x="387" y="183"/>
      <point x="467" y="248"/>
      <point x="467" y="347" type="curve" smooth="yes"/>
      <point x="467" y="445"/>
      <point x="387" y="510"/>
      <point x="265" y="510" type="curve" smooth="yes"/>
      <point x="142" y="510"/>
      <point x="62" y="445"/>
    </contour>
    <contour>
      <point x="417" y="347" type="curve" smooth="yes"/>
      <point x="417" y="272"/>
      <point x="359" y="225"/>
      <point x="265" y="225" type="curve" smooth="yes"/>
      <point x="171" y="225"/>
      <point x="112" y="272"/>
      <point x="112" y="347" type="curve" smooth="yes"/>
      <point x="112" y="421"/>
      <point x="171" y="468"/>
      <point x="265" y="468" type="curve" smooth="yes"/>
      <point x="359" y="468"/>
      <point x="417" y="421"/>
    </contour>
    <contour>
      <point x="634" y="500" type="line"/>
      <point x="634" y="-67" type="line" smooth="yes"/>
      <point x="634" y="-139"/>
      <point x="617" y="-167"/>
      <point x="577" y="-167" type="curve" smooth="yes"/>
      <point x="552" y="-167"/>
      <point x="540" y="-164"/>
      <point x="526" y="-154" type="curve"/>
      <point x="516" y="-201" type="line"/>
      <point x="533" y="-211"/>
      <point x="551" y="-215"/>
      <point x="577" y="-215" type="curve" smooth="yes"/>
      <point x="639" y="-215"/>
      <point x="684" y="-177"/>
      <point x="684" y="-71" type="curve" smooth="yes"/>
      <point x="684" y="500" type="line"/>
    </contour>
    <contour>
      <point x="617" y="639" type="curve" smooth="yes"/>
      <point x="617" y="616"/>
      <point x="635" y="597"/>
      <point x="659" y="597" type="curve" smooth="yes"/>
      <point x="683" y="597"/>
      <point x="701" y="616"/>
      <point x="701" y="639" type="curve" smooth="yes"/>
      <point x="701" y="663"/>
      <point x="683" y="681"/>
      <point x="659" y="681" type="curve" smooth="yes"/>
      <point x="635" y="681"/>
      <point x="617" y="663"/>
    </contour>
  </outline>
</glyph>
<glyph name="gbase" format="2">
  <advance width="522"/>
  <outline>
    <contour>
      <point x="73" y="112" type="curve" smooth="yes"/>
      <point x="73" y="48"/>
      <point x="144" y="8"/>
      <point x="217" y="8" type="curve" smooth="yes"/>
      <point x="346" y="8" type="line" smooth="yes"/>
      <point x="431" y="8"/>
      <point x="473" y="-22"/>
      <point x="473" y="-69" type="curve" smooth="yes"/>
      <point x="473" y="-128"/>
      <point x="401" y="-173"/>
      <point x="286" y="-173" type="curve" smooth="yes"/>
      <point x="161" y="-173"/>
      <point x="93" y="-134"/>
      <point x="93" y="-74" type="curve" smooth="yes"/>
      <point x="93" y="-25"/>
      <point x="141" y="8"/>
      <point x="217" y="8" type="curve"/>
      <point x="198" y="33" type="line"/>
      <point x="108" y="33"/>
      <point x="47" y="-13"/>
      <point x="47" y="-82" type="curve" smooth="yes"/>
      <point x="47" y="-159"/>
      <point x="125" y="-215"/>
      <point x="280" y="-215" type="curve" smooth="yes"/>
      <point x="419" y="-215"/>
      <point x="519" y="-155"/>
      <point x="519" y="-63" type="curve" smooth="yes"/>
      <point x="519" y="6"/>
      <point x="458" y="51"/>
      <point x="357" y="51" type="curve" smooth="yes"/>
      <point x="229" y="51" type="line" smooth="yes"/>
      <point x="154" y="51"/>
      <point x="120" y="78"/>
      <point x="120" y="119" type="curve" smooth="yes"/>
      <point x="120" y="160"/>
      <point x="162" y="191"/>
      <point x="234" y="192" type="curve"/>
      <point x="203" y="215" type="line"/>
      <point x="130" y="213"/>
      <point x="73" y="174"/>
    </contour>
    <contour>
      <point x="74" y="347" type="curve" smooth="yes"/>
      <point x="74" y="248"/>
      <point x="155" y="183"/>
      <point x="277" y="183" type="curve" smooth="yes"/>
      <point x="400" y="183"/>
      <point x="480" y="248"/>
      <point x="480" y="347" type="curve" smooth="yes"/>
      <point x="480" y="445"/>
      <point x="400" y="510"/>
      <point x="277" y="510" type="curve" smooth="yes"/>
      <point x="155" y="510"/>
      <point x="74" y="445"/>
    </contour>
    <contour>
      <point x="429" y="347" type="curve" smooth="yes"/>
      <point x="429" y="272"/>
      <point x="371" y="225"/>
      <point x="277" y="225" type="curve" smooth="yes"/>
      <point x="183" y="225"/>
      <point x="124" y="272"/>
      <point x="124" y="347" type="curve" smooth="yes"/>
      <point x="124" y="421"/>
      <point x="183" y="468"/>
      <point x="277" y="468" type="curve" smooth="yes"/>
      <point x="371" y="468"/>
      <point x="429" y="421"/>
    </contour>
  </outline>
</glyph>
<glyph name="hyphensuperior" format="2">
  <advance width="283"/>
  <outline>
    <contour>
      <point x="48" y="547" type="line"/>
      <point x="48" y="515" type="line"/>
      <point x="235" y="515" type="line"/>
      <point x="235" y="547" type="line"/>
    </contour>
  </outline>
</glyph>
<glyph name="idieresis.sc" format="2">
  <advance width="234"/>
  <anchor x="117" y="560" name="top"/>
  <anchor x="142" y="0" name="ogonek"/>
  <anchor x="117" y="0" name="bottom"/>
  <anchor x="121" y="0" name="bottomC"/>
  <outline>
    <contour>
      <point x="10" y="690" type="curve" smooth="yes"/>
      <point x="10" y="666"/>
      <point x="27" y="650"/>
      <point x="51" y="650" type="curve" smooth="yes"/>
      <point x="75" y="650"/>
      <point x="91" y="666"/>
      <point x="91" y="690" type="curve" smooth="yes"/>
      <point x="91" y="714"/>
      <point x="75" y="731"/>
      <point x="51" y="731" type="curve" smooth="yes"/>
      <point x="27" y="731"/>
      <point x="10" y="714"/>
    </contour>
    <contour>
      <point x="143" y="690" type="curve" smooth="yes"/>
      <point x="143" y="666"/>
      <point x="159" y="650"/>
      <point x="184" y="650" type="curve" smooth="yes"/>
      <point x="208" y="650"/>
      <point x="224" y="666"/>
      <point x="224" y="690" type="curve" smooth="yes"/>
      <point x="224" y="714"/>
      <point x="208" y="731"/>
      <point x="184" y="731" type="curve" smooth="yes"/>
      <point x="159" y="731"/>
      <point x="143" y="714"/>
    </contour>
    <component base="i.sc"/>
  </outline>
</glyph>
<glyph name="indexring" format="2">
  <advance width="910"/>
  <anchor x="455" y="330" name="indexring"/>
  <outline>
    <contour>
      <point x="824" y="330" type="curve" smooth="yes"/>
      <point x="824" y="548"/>
      <point x="673" y="700"/>
      <point x="455" y="700" type="curve" smooth="yes"/>
      <point x="237" y="700"/>
      <point x="86" y="548"/>
      <point x="86" y="330" type="curve" smooth="yes"/>
      <point x="86" y="112"/>
      <point x="237" y="-40"/>
      <point x="455" y="-40" type="curve" smooth="yes"/>
      <point x="673" y="-40"/>
      <point x="824" y="112"/>
    </contour>
    <contour>
      <point x="128" y="330" type="curve" smooth="yes"/>
      <point x="128" y="525"/>
      <point x="263" y="662"/>
      <point x="455" y="662" type="curve" smooth="yes"/>
      <point x="647" y="662"/>
      <point x="782" y="525"/>
      <point x="782" y="330" type="curve" smooth="yes"/>
      <point x="782" y="135"/>
      <point x="647" y="-2"/>
      <point x="455" y="-2" type="curve" smooth="yes"/>
      <point x="263" y="-2"/>
      <point x="128" y="135"/>
    </contour>
  </outline>
</glyph>
<glyph name="j_j.liga" format="2">
  <advance width="457"/>
  <outline>
    <contour>
      <point x="89" y="500" type="line"/>
      <point x="89" y="-53" type="line" smooth="yes"/>
      <point x="89" y="-129"/>
      <point x="52" y="-167"/>
      <point x="-4" y="-167" type="curve" smooth="yes"/>
      <point x="-34" y="-167"/>
      <point x="-61" y="-156"/>
      <point x="-78" y="-140" type="curve"/>
      <point x="-90" y="-187" type="line"/>
      <point x="-70" y="-204"/>
      <point x="-38" y="-215"/>
      <point x="-3" y="-215" type="curve" smooth="yes"/>
      <point x="70" y="-215"/>
      <point x="139" y="-167"/>
      <point x="139" y="-57" type="curve" smooth="yes"/>
      <point x="139" y="500" type="line"/>
    </contour>
    <contour>
      <point x="318" y="500" type="line"/>
      <point x="318" y="-53" type="line" smooth="yes"/>
      <point x="318" y="-129"/>
      <point x="280" y="-167"/>
      <point x="225" y="-167" type="curve" smooth="yes"/>
      <point x="195" y="-167"/>
      <point x="168" y="-156"/>
      <point x="150" y="-140" type="curve"/>
      <point x="139" y="-187" type="line"/>
      <point x="158" y="-204"/>
      <point x="190" y="-215"/>
      <point x="225" y="-215" type="curve" smooth="yes"/>
      <point x="299" y="-215"/>
      <point x="368" y="-167"/>
      <point x="368" y="-57" type="curve" smooth="yes"/>
      <point x="368" y="500" type="line"/>
    </contour>
    <contour>
      <point x="72" y="639" type="curve" smooth="yes"/>
      <point x="72" y="616"/>
      <point x="91" y="597"/>
      <point x="114" y="597" type="curve" smooth="yes"/>
      <point x="138" y="597"/>
      <point x="156" y="616"/>
      <point x="156" y="639" type="curve" smooth="yes"/>
      <point x="156" y="663"/>
      <point x="138" y="681"/>
      <point x="114" y="681" type="curve" smooth="yes"/>
      <point x="91" y="681"/>
      <point x="72" y="663"/>
    </contour>
    <contour>
      <point x="301" y="639" type="curve" smooth="yes"/>
      <point x="301" y="616"/>
      <point x="319" y="597"/>
      <point x="343" y="597" type="curve" smooth="yes"/>
      <point x="366" y="597"/>
      <point x="385" y="616"/>
      <point x="385" y="639" type="curve" smooth="yes"/>
      <point x="385" y="663"/>
      <point x="366" y="681"/>
      <point x="343" y="681" type="curve" smooth="yes"/>
      <point x="319" y="681"/>
      <point x="301" y="663"/>
    </contour>
  </outline>
</glyph>
<glyph name="jdotless.ogonek" format="2">
  <advance width="269"/>
  <anchor x="96" y="-210" name="bottomC"/>
  <anchor x="155" y="500" name="top"/>
  <anchor x="120" y="-204" name="ogonek"/>
  <anchor x="96" y="-210" name="bottom"/>
  <outline>
    <contour>
      <point x="130" y="500" type="line"/>
      <point x="130" y="-67" type="line" smooth="yes"/>
      <point x="130" y="-139"/>
      <point x="113" y="-167"/>
      <point x="73" y="-167" type="curve" smooth="yes"/>
      <point x="49" y="-167"/>
      <point x="36" y="-164"/>
      <point x="22" y="-154" type="curve"/>
      <point x="12" y="-201" type="line"/>
      <point x="29" y="-211"/>
      <point x="47" y="-215"/>
      <point x="73" y="-215" type="curve" smooth="yes"/>
      <point x="135" y="-215"/>
      <point x="180" y="-177"/>
      <point x="180" y="-71" type="curve" smooth="yes"/>
      <point x="180" y="500" type="line"/>
    </contour>
  </outline>
</glyph>
<glyph name="k.sc" format="2">
  <advance width="548"/>
  <anchor x="506" y="0" name="bottomC"/>
  <anchor x="302" y="560" name="top"/>
  <anchor x="528" y="0" name="ogonek"/>
  <anchor x="307" y="0" name="bottom"/>
  <outline>
    <contour>
      <point x="458" y="560" type="line"/>
      <point x="117" y="223" type="line"/>
      <point x="117" y="164" type="line"/>
      <point x="268" y="311" type="line"/>
      <point x="274" y="312" type="line"/>
      <point x="521" y="560" type="line"/>
    </contour>
    <contour>
      <point x="92" y="560" type="line"/>
      <point x="92" y="0" type="line"/>
      <point x="142" y="0" type="line"/>
      <point x="142" y="560" type="line"/>
    </contour>
    <contour>
      <point x="243" y="320" type="line"/>
      <point x="466" y="0" type="line"/>
      <point x="528" y="0" type="line"/>
      <point x="282" y="350" type="line"/>
    </contour>
  </outline>
</glyph>
<glyph name="longs_l" format="2">
  <advance width="510"/>
  <anchor x="480" y="357" name="center"/>
  <anchor x="413" y="0" name="bottomC"/>
  <anchor x="346" y="730" name="top"/>
  <anchor x="434" y="0" name="bottom"/>
  <anchor x="466" y="730" name="topright"/>
  <anchor x="481" y="0" name="ogonek"/>
  <outline>
    <contour>
      <point x="135" y="0" type="line"/>
      <point x="135" y="584" type="line" smooth="yes"/>
      <point x="135" y="656"/>
      <point x="164" y="690"/>
      <point x="217" y="690" type="curve" smooth="yes"/>
      <point x="241" y="690"/>
      <point x="253" y="684"/>
      <point x="268" y="671" type="curve"/>
      <point x="279" y="711" type="line"/>
      <point x="265" y="726"/>
      <point x="245" y="735"/>
      <point x="208" y="735" type="curve" smooth="yes"/>
      <point x="123" y="735"/>
      <point x="85" y="680"/>
      <point x="85" y="588" type="curve" smooth="yes"/>
      <point x="85" y="0" type="line"/>
    </contour>
    <component base="l" xOffset="236"/>
  </outline>
</glyph>
<glyph name="lslash.sc" format="2">
  <advance width="523"/>
  <anchor x="327" y="0" name="bottomC"/>
  <anchor x="133" y="560" name="top"/>
  <anchor x="503" y="0" name="ogonek"/>
  <anchor x="270" y="560" name="topright"/>
  <anchor x="327" y="0" name="bottom"/>
  <outline>
    <contour>
      <point x="9" y="217" type="line"/>
      <point x="9" y="170" type="line"/>
      <point x="321" y="346" type="line"/>
      <point x="321" y="392" type="line"/>
    </contour>
    <component base="l.sc" xOffset="12"/>
  </outline>
</glyph>
<glyph name="lslash.ss02" format="2">
  <advance width="271"/>
  <anchor x="142" y="0" name="bottomC"/>
  <anchor x="142" y="730" name="top"/>
  <anchor x="163" y="0" name="ogonek"/>
  <anchor x="256" y="730" name="topright"/>
  <anchor x="138" y="0" name="bottom"/>
  <outline>
    <contour>
      <point x="143" y="332" type="line"/>
      <point x="240" y="397" type="line"/>
      <point x="240" y="449" type="line"/>
      <point x="136" y="380" type="line"/>
      <point x="36" y="313" type="line"/>
      <point x="36" y="261" type="line"/>
    </contour>
    <component base="l.ss02" xOffset="21"/>
  </outline>
</glyph>
<glyph name="n.sc" format="2">
  <advance width="641"/>
  <anchor x="525" y="0" name="bottomC"/>
  <anchor x="321" y="560" name="top"/>
  <anchor x="549" y="0" name="ogonek"/>
  <anchor x="332" y="0" name="bottom"/>
  <outline>
    <contour>
      <point x="500" y="560" type="line"/>
      <point x="500" y="114" type="line"/>
      <point x="503" y="53" type="line"/>
      <point x="502" y="53" type="line"/>
      <point x="460" y="120" type="line"/>
      <point x="159" y="560" type="line"/>
      <point x="92" y="560" type="line"/>
      <point x="92" y="0" type="line"/>
      <point x="141" y="0" type="line"/>
      <point x="141" y="446" type="line"/>
      <point x="138" y="507" type="line"/>
      <point x="139" y="507" type="line"/>
      <point x="177" y="445" type="line"/>
      <point x="482" y="0" type="line"/>
      <point x="549" y="0" type="line"/>
      <point x="549" y="560" type="line"/>
    </contour>
  </outline>
</glyph>
<glyph name="nine.tf" format="2">
  <advance width="604"/>
  <outline>
    <contour>
      <point x="67" y="462" type="curve" smooth="yes"/>
      <point x="67" y="334"/>
      <point x="152" y="253"/>
      <point x="283" y="253" type="curve" smooth="yes"/>
      <point x="371" y="253"/>
      <point x="471" y="303"/>
      <point x="479" y="415" type="curve"/>
      <point x="482" y="415" type="line"/>
      <point x="485" y="393"/>
      <point x="488" y="370"/>
      <point x="488" y="346" type="curve" smooth="yes"/>
      <point x="488" y="177"/>
      <point x="439" y="36"/>
      <point x="288" y="36" type="curve" smooth="yes"/>
      <point x="184" y="36"/>
      <point x="137" y="87"/>
      <point x="119" y="161" type="curve"/>
      <point x="69" y="135" type="line"/>
      <point x="98" y="44"/>
      <point x="173" y="-10"/>
      <point x="289" y="-10" type="curve" smooth="yes"/>
      <point x="440" y="-10"/>
      <point x="533" y="106"/>
      <point x="533" y="330" type="curve" smooth="yes"/>
      <point x="533" y="538"/>
      <point x="447" y="670"/>
      <point x="288" y="670" type="curve" smooth="yes"/>
      <point x="153" y="670"/>
      <point x="67" y="589"/>
    </contour>
    <contour>
      <point x="456" y="460" type="curve" smooth="yes"/>
      <point x="456" y="375"/>
      <point x="386" y="300"/>
      <point x="287" y="300" type="curve" smooth="yes"/>
      <point x="183" y="300"/>
      <point x="119" y="363"/>
      <point x="119" y="460" type="curve" smooth="yes"/>
      <point x="119" y="560"/>
      <point x="183" y="623"/>
      <point x="289" y="623" type="curve" smooth="yes"/>
      <point x="388" y="623"/>
      <point x="456" y="555"/>
    </contour>
  </outline>
</glyph>
<glyph name="numbersign.tf" format="2">
  <advance width="604"/>
  <outline>
    <contour>
      <point x="438" y="660" type="line"/>
      <point x="339" y="0" type="line"/>
      <point x="383" y="0" type="line"/>
      <point x="483" y="660" type="line"/>
    </contour>
    <contour>
      <point x="28" y="238" type="line"/>
      <point x="28" y="199" type="line"/>
      <point x="535" y="199" type="line"/>
      <point x="535" y="238" type="line"/>
    </contour>
    <contour>
      <point x="224" y="660" type="line"/>
      <point x="125" y="0" type="line"/>
      <point x="169" y="0" type="line"/>
      <point x="269" y="660" type="line"/>
    </contour>
    <contour>
      <point x="69" y="468" type="line"/>
      <point x="69" y="429" type="line"/>
      <point x="576" y="429" type="line"/>
      <point x="576" y="468" type="line"/>
    </contour>
  </outline>
</glyph>
<glyph name="one.osf" format="2">
  <advance width="349"/>
  <outline>
    <contour>
      <point x="257" y="560" type="line"/>
      <point x="212" y="560" type="line"/>
      <point x="209" y="520"/>
      <point x="207" y="470"/>
      <point x="207" y="430" type="curve" smooth="yes"/>
      <point x="207" y="0" type="line"/>
      <point x="257" y="0" type="line"/>
      <point x="257" y="412" type="line"/>
    </contour>
    <contour>
      <point x="244" y="550" type="curve"/>
      <point x="212" y="560" type="line"/>
      <point x="177" y="500"/>
      <point x="91" y="451"/>
      <point x="27" y="431" type="curve"/>
      <point x="40" y="390" type="line"/>
      <point x="124" y="414"/>
      <point x="210" y="472"/>
    </contour>
  </outline>
</glyph>
<glyph name="one.sc" format="2">
  <advance width="344"/>
  <outline>
    <contour>
      <point x="252" y="560" type="line"/>
      <point x="207" y="560" type="line"/>
      <point x="204" y="520"/>
      <point x="202" y="469"/>
      <point x="202" y="429" type="curve" smooth="yes"/>
      <point x="202" y="0" type="line"/>
      <point x="252" y="0" type="line"/>
      <point x="252" y="412" type="line"/>
    </contour>
    <contour>
      <point x="238" y="546" type="curve"/>
      <point x="207" y="560" type="line"/>
      <point x="171" y="500"/>
      <point x="80" y="449"/>
      <point x="22" y="433" type="curve"/>
      <point x="35" y="390" type="line"/>
      <point x="119" y="415"/>
      <point x="204" y="468"/>
    </contour>
  </outline>
</glyph>
<glyph name="one.tf" format="2">
  <advance width="604"/>
  <outline>
    <contour>
      <point x="366" y="0" type="line"/>
      <point x="366" y="512" type="line"/>
      <point x="366" y="660" type="line"/>
      <point x="322" y="660" type="line"/>
      <point x="319" y="619"/>
      <point x="316" y="566"/>
      <point x="316" y="524" type="curve" smooth="yes"/>
      <point x="316" y="0" type="line"/>
    </contour>
    <contour>
      <point x="552" y="0" type="line"/>
      <point x="552" y="45" type="line"/>
      <point x="109" y="45" type="line"/>
      <point x="109" y="0" type="line"/>
    </contour>
    <contour>
      <point x="353" y="646" type="curve"/>
      <point x="322" y="660" type="line"/>
      <point x="285" y="599"/>
      <point x="157" y="537"/>
      <point x="99" y="522" type="curve"/>
      <point x="113" y="476" type="line"/>
      <point x="197" y="500"/>
      <point x="318" y="568"/>
    </contour>
  </outline>
</glyph>
<glyph name="one.tosf" format="2">
  <advance width="604"/>
  <outline>
    <contour>
      <point x="551" y="0" type="line"/>
      <point x="551" y="44" type="line"/>
      <point x="108" y="44" type="line"/>
      <point x="108" y="0" type="line"/>
    </contour>
    <contour>
      <point x="365" y="560" type="line"/>
      <point x="321" y="560" type="line"/>
      <point x="317" y="516"/>
      <point x="315" y="454"/>
      <point x="315" y="410" type="curve" smooth="yes"/>
      <point x="315" y="0" type="line"/>
      <point x="365" y="0" type="line"/>
      <point x="365" y="412" type="line"/>
    </contour>
    <contour>
      <point x="352" y="549" type="curve"/>
      <point x="321" y="560" type="line"/>
      <point x="284" y="501"/>
      <point x="170" y="440"/>
      <point x="112" y="425" type="curve"/>
      <point x="126" y="383" type="line"/>
      <point x="211" y="407"/>
      <point x="316" y="471"/>
    </contour>
  </outline>
</glyph>
<glyph name="q.sc" format="2">
  <advance width="654"/>
  <anchor x="463" y="-162" name="bottomC"/>
  <anchor x="327" y="560" name="top"/>
  <anchor x="504" y="-162" name="ogonek"/>
  <anchor x="327" y="-210" name="bottom"/>
  <outline>
    <contour>
      <point x="304" y="7" type="line"/>
      <point x="304" y="-112"/>
      <point x="375" y="-166"/>
      <point x="472" y="-166" type="curve" smooth="yes"/>
      <point x="518" y="-167"/>
      <point x="563" y="-153"/>
      <point x="588" y="-131" type="curve"/>
      <point x="572" y="-89" type="line"/>
      <point x="549" y="-110"/>
      <point x="513" y="-123"/>
      <point x="473" y="-123" type="curve" smooth="yes"/>
      <point x="398" y="-123"/>
      <point x="344" y="-86"/>
      <point x="345" y="13" type="curve"/>
    </contour>
    <component base="o.sc"/>
  </outline>
</glyph>
<glyph name="r.sc" format="2">
  <advance width="575"/>
  <anchor x="519" y="0" name="bottomC"/>
  <anchor x="276" y="560" name="top"/>
  <anchor x="539" y="0" name="ogonek"/>
  <anchor x="319" y="0" name="bottom"/>
  <outline>
    <contour>
      <point x="119" y="560" type="line"/>
      <point x="119" y="517" type="line"/>
      <point x="314" y="517" type="line" smooth="yes"/>
      <point x="407" y="517"/>
      <point x="458" y="475"/>
      <point x="458" y="400" type="curve" smooth="yes"/>
      <point x="458" y="324"/>
      <point x="407" y="283"/>
      <point x="314" y="283" type="curve" smooth="yes"/>
      <point x="119" y="283" type="line"/>
      <point x="119" y="240" type="line"/>
      <point x="315" y="240" type="line" smooth="yes"/>
      <point x="434" y="240"/>
      <point x="508" y="300"/>
      <point x="508" y="400" type="curve" smooth="yes"/>
      <point x="508" y="500"/>
      <point x="434" y="560"/>
      <point x="315" y="560" type="curve" smooth="yes"/>
    </contour>
    <contour>
      <point x="92" y="560" type="line"/>
      <point x="92" y="0" type="line"/>
      <point x="142" y="0" type="line"/>
      <point x="142" y="560" type="line"/>
    </contour>
    <contour>
      <point x="309" y="253" type="line"/>
      <point x="480" y="0" type="line"/>
      <point x="539" y="0" type="line"/>
      <point x="351" y="274" type="line"/>
    </contour>
  </outline>
</glyph>
<glyph name="r.sc.ss03" format="2">
  <advance width="571"/>
  <anchor x="496" y="0" name="bottomC"/>
  <anchor x="276" y="560" name="top"/>
  <anchor x="517" y="0" name="ogonek"/>
  <anchor x="314" y="0" name="bottom"/>
  <outline>
    <contour>
      <point x="142" y="0" type="line"/>
      <point x="142" y="240" type="line"/>
      <point x="303" y="240" type="line" smooth="yes"/>
      <point x="396" y="240"/>
      <point x="440" y="201"/>
      <point x="443" y="132" type="curve" smooth="yes"/>
      <point x="447" y="43"/>
      <point x="456" y="17"/>
      <point x="464" y="0" type="curve"/>
      <point x="517" y="0" type="line"/>
      <point x="517" y="3" type="line"/>
      <point x="507" y="17"/>
      <point x="496" y="32"/>
      <point x="492" y="138" type="curve" smooth="yes"/>
      <point x="489" y="202"/>
      <point x="455" y="245"/>
      <point x="382" y="256" type="curve"/>
      <point x="382" y="257" type="line"/>
      <point x="460" y="272"/>
      <point x="508" y="322"/>
      <point x="508" y="401" type="curve" smooth="yes"/>
      <point x="508" y="499"/>
      <point x="434" y="560"/>
      <point x="315" y="560" type="curve" smooth="yes"/>
      <point x="92" y="560" type="line"/>
      <point x="92" y="0" type="line"/>
    </contour>
    <contour>
      <point x="142" y="517" type="line"/>
      <point x="312" y="517" type="line" smooth="yes"/>
      <point x="406" y="517"/>
      <point x="458" y="475"/>
      <point x="458" y="400" type="curve" smooth="yes"/>
      <point x="458" y="324"/>
      <point x="406" y="283"/>
      <point x="312" y="283" type="curve" smooth="yes"/>
      <point x="142" y="283" type="line"/>
    </contour>
  </outline>
</glyph>
<glyph name="registeredsuperior" format="2">
  <advance width="531"/>
  <outline>
    <contour>
      <point x="509" y="429" type="curve" smooth="yes"/>
      <point x="509" y="570"/>
      <point x="408" y="670"/>
      <point x="265" y="670" type="curve" smooth="yes"/>
      <point x="123" y="670"/>
      <point x="23" y="570"/>
      <point x="23" y="429" type="curve" smooth="yes"/>
      <point x="23" y="288"/>
      <point x="123" y="188"/>
      <point x="265" y="188" type="curve" smooth="yes"/>
      <point x="408" y="188"/>
      <point x="509" y="288"/>
    </contour>
    <contour>
      <point x="214" y="301" type="line"/>
      <point x="214" y="557" type="line"/>
      <point x="175" y="557" type="line"/>
      <point x="175" y="301" type="line"/>
    </contour>
    <contour>
      <point x="382" y="301" type="line"/>
      <point x="302" y="422" type="line"/>
      <point x="268" y="411" type="line"/>
      <point x="337" y="301" type="line"/>
    </contour>
    <contour>
      <point x="64" y="429" type="curve" smooth="yes"/>
      <point x="64" y="547"/>
      <point x="148" y="632"/>
      <point x="265" y="632" type="curve" smooth="yes"/>
      <point x="383" y="632"/>
      <point x="467" y="547"/>
      <point x="467" y="429" type="curve" smooth="yes"/>
      <point x="467" y="311"/>
      <point x="383" y="227"/>
      <point x="265" y="227" type="curve" smooth="yes"/>
      <point x="148" y="227"/>
      <point x="64" y="311"/>
    </contour>
    <contour>
      <point x="284" y="403" type="line" smooth="yes"/>
      <point x="341" y="403"/>
      <point x="376" y="431"/>
      <point x="376" y="479" type="curve" smooth="yes"/>
      <point x="376" y="529"/>
      <point x="341" y="557"/>
      <point x="286" y="557" type="curve" smooth="yes"/>
      <point x="197" y="557" type="line"/>
      <point x="197" y="525" type="line"/>
      <point x="282" y="525" type="line" smooth="yes"/>
      <point x="319" y="525"/>
      <point x="337" y="511"/>
      <point x="337" y="479" type="curve" smooth="yes"/>
      <point x="337" y="446"/>
      <point x="319" y="431"/>
      <point x="282" y="431" type="curve" smooth="yes"/>
      <point x="197" y="431" type="line"/>
      <point x="197" y="403" type="line"/>
    </contour>
  </outline>
</glyph>
<glyph name="s.sc" format="2">
  <advance width="555"/>
  <anchor x="273" y="0" name="bottomC"/>
  <anchor x="277" y="560" name="top"/>
  <anchor x="358" y="0" name="ogonek"/>
  <anchor x="300" y="0" name="bottom"/>
  <outline>
    <contour>
      <point x="61" y="408" type="curve" smooth="yes"/>
      <point x="61" y="194"/>
      <point x="457" y="307"/>
      <point x="457" y="142" type="curve" smooth="yes"/>
      <point x="457" y="73"/>
      <point x="384" y="35"/>
      <point x="286" y="35" type="curve" smooth="yes"/>
      <point x="181" y="35"/>
      <point x="105" y="76"/>
      <point x="81" y="157" type="curve"/>
      <point x="42" y="124" type="line"/>
      <point x="73" y="39"/>
      <point x="161" y="-8"/>
      <point x="286" y="-8" type="curve" smooth="yes"/>
      <point x="417" y="-8"/>
      <point x="507" y="53"/>
      <point x="507" y="145" type="curve" smooth="yes"/>
      <point x="507" y="358"/>
      <point x="111" y="245"/>
      <point x="111" y="412" type="curve" smooth="yes"/>
      <point x="111" y="475"/>
      <point x="175" y="525"/>
      <point x="278" y="525" type="curve" smooth="yes"/>
      <point x="373" y="525"/>
      <point x="431" y="492"/>
      <point x="461" y="413" type="curve"/>
      <point x="500" y="446" type="line"/>
      <point x="461" y="529"/>
      <point x="387" y="568"/>
      <point x="277" y="568" type="curve" smooth="yes"/>
      <point x="142" y="568"/>
      <point x="61" y="494"/>
    </contour>
  </outline>
</glyph>
